<?xml version="1.0" encoding="utf-8"?>
<!-- Generator: Adobe Illustrator 21.1.0, SVG Export Plug-In . SVG Version: 6.00 Build 0)  -->
<svg version="1.1" id="Layer_1" xmlns="http://www.w3.org/2000/svg" xmlns:xlink="http://www.w3.org/1999/xlink" x="0px" y="0px"
     viewBox="0 40 200 120" xml:space="preserve">
<style type="text/css">
    .st0{fill:none;}
    .st1{fill:#FFFFFF;}
    .st2{fill:#FFCA4F;}
    .st3{clip-path:url(#SVGID_2_);}
</style>
<rect class="st0" width="200" height="200"/>
<rect class="st0" width="200" height="200"/>
<rect x="67" y="47" class="st1" width="63" height="104"/>
<path d="M131,152H66V46h65V152z M68,150h61V48H68V150z"/>
<rect x="67" y="134" width="63" height="2"/>
<rect x="68" y="56.9" width="62.6" height="2"/>
<rect x="95" y="142" width="8" height="2"/>
<rect x="76" y="67" width="16" height="2"/>
<rect x="76" y="73" width="23" height="2"/>
<rect x="76" y="79" width="23" height="2"/>
<path class="st2" d="M157.7,142.2c-1-0.1-2-0.5-2.7-1.2l-39.4-34.2c-1.7-1.4-1.9-4-0.4-5.6c1.4-1.7,4-1.9,5.6-0.4c0,0,0,0,0,0
    L160,135c1.7,1.5,2.5,4.3,1,6C160.1,141.8,159,142.3,157.7,142.2z"/>
<path d="M157.7,143.2c-1.3-0.1-2.5-0.6-3.4-1.5L115,107.5c-2.1-1.8-2.3-5-0.5-7.1c1.8-2.1,5-2.3,7.1-0.5c0,0,0,0,0.1,0l39.1,34.3
    c1,0.9,1.7,2.1,2,3.5c0.3,1.4,0,2.8-0.9,3.9C160.7,142.7,159.2,143.3,157.7,143.2z M118.3,100.8c-0.1,0-0.1,0-0.2,0
    c-1.7,0.1-2.9,1.5-2.8,3.2c0.1,0.8,0.4,1.5,1,2.1l39.4,34.2c0.6,0.6,1.3,0.9,2.1,1c0.9,0,1.8-0.3,2.5-0.9c0.5-0.6,0.6-1.5,0.4-2.2
    c-0.2-0.9-0.7-1.7-1.3-2.4l-39.1-34.3C119.7,101,119,100.7,118.3,100.8z"/>
<circle class="st1" cx="118" cy="104" r="24"/>
<path d="M118,129c-13.8,0-25-11.2-25-25s11.2-25,25-25s25,11.2,25,25C143,117.8,131.8,129,118,129z M118,81c-12.7,0-23,10.3-23,23
    s10.3,23,23,23s23-10.3,23-23C141,91.3,130.7,81,118,81z"/>
<g>
    <g>
        <path d="M126.1,237.7c-0.4,0-0.7-0.3-0.7-0.7c0-0.2,0.1-0.4,0.2-0.5c0.3-0.3,0.8-0.3,1,0c0.3,0.3,0.3,0.7,0,1c0,0,0,0,0,0l0,0
            C126.5,237.7,126.3,237.7,126.1,237.7z"/>
        <path d="M122.9,127.4c-0.4,0-0.7-0.3-0.7-0.7c0-0.2,0.1-0.4,0.2-0.5c0.3-0.3,0.8-0.3,1,0c0.3,0.3,0.3,0.7,0,1c0,0,0,0,0,0l0,0
            C123.2,127.3,123.1,127.4,122.9,127.4L122.9,127.4z M124.6,125.7c-0.4,0-0.7-0.3-0.7-0.7c0-0.2,0.1-0.4,0.2-0.5
            c0.3-0.3,0.8-0.3,1,0c0.3,0.3,0.3,0.7,0,1c0,0,0,0,0,0l0,0C124.9,125.7,124.7,125.7,124.6,125.7L124.6,125.7z M126.2,124.1
            c-0.4,0-0.7-0.3-0.7-0.7c0-0.2,0.1-0.4,0.2-0.5c0.3-0.3,0.8-0.3,1,0c0.3,0.3,0.3,0.7,0,1c0,0,0,0,0,0l0,0
            C126.6,124,126.4,124.1,126.2,124.1L126.2,124.1z M127.9,122.4c-0.4,0-0.7-0.3-0.7-0.7c0-0.2,0.1-0.4,0.2-0.5c0.3-0.3,0.8-0.3,1,0
            c0.3,0.3,0.3,0.7,0,1c0,0,0,0,0,0l0,0C128.3,122.3,128.1,122.4,127.9,122.4L127.9,122.4z M129.6,120.7c-0.4,0-0.7-0.3-0.7-0.7
            c0-0.2,0.1-0.4,0.2-0.5c0.3-0.3,0.8-0.3,1,0c0.3,0.3,0.3,0.7,0,1c0,0,0,0,0,0l0,0C129.9,120.6,129.8,120.7,129.6,120.7
            L129.6,120.7z M131.3,119c-0.4,0-0.7-0.3-0.7-0.7c0-0.2,0.1-0.4,0.2-0.5c0.3-0.3,0.8-0.3,1,0c0.3,0.3,0.3,0.7,0,1c0,0,0,0,0,0l0,0
            C131.6,119,131.4,119,131.3,119L131.3,119z M132.9,117.4c-0.4,0-0.7-0.3-0.7-0.7c0-0.2,0.1-0.4,0.2-0.5c0.3-0.3,0.8-0.3,1,0
            c0.3,0.3,0.3,0.7,0,1c0,0,0,0,0,0l0,0C133.3,117.3,133.1,117.4,132.9,117.4L132.9,117.4z M134.6,115.7c-0.4,0-0.7-0.3-0.7-0.7
            c0-0.2,0.1-0.4,0.2-0.5c0.3-0.3,0.8-0.3,1,0c0.3,0.3,0.3,0.7,0,1c0,0,0,0,0,0l0,0C135,115.6,134.8,115.7,134.6,115.7L134.6,115.7z
             M136.3,114c-0.4,0-0.7-0.3-0.7-0.7c0-0.2,0.1-0.4,0.2-0.5c0.3-0.3,0.8-0.3,1,0c0.3,0.3,0.3,0.7,0,1c0,0,0,0,0,0l0,0
            C136.6,114,136.5,114,136.3,114L136.3,114z M137.9,112.3c-0.4,0-0.7-0.3-0.7-0.7c0-0.2,0.1-0.4,0.2-0.5c0.3-0.3,0.8-0.3,1,0
            c0.3,0.3,0.3,0.7,0,1c0,0,0,0,0,0l0,0C138.3,112.3,138.1,112.4,137.9,112.3L137.9,112.3z M139.6,110.7c-0.4,0-0.7-0.3-0.7-0.7
            c0-0.2,0.1-0.4,0.2-0.5c0.3-0.3,0.8-0.3,1,0c0.3,0.3,0.3,0.7,0,1c0,0,0,0,0,0l0,0C140,110.6,139.8,110.7,139.6,110.7L139.6,110.7z
             M141.3,109c-0.4,0-0.7-0.3-0.7-0.7c0-0.2,0.1-0.4,0.2-0.5c0.3-0.3,0.8-0.3,1,0c0.3,0.3,0.3,0.7,0,1c0,0,0,0,0,0l0,0
            C141.6,108.9,141.5,109,141.3,109z"/>
        <path d="M126.4,127.6c-0.4,0-0.7-0.3-0.7-0.7c0-0.2,0.1-0.4,0.2-0.5c0.3-0.3,0.8-0.3,1,0c0.3,0.3,0.3,0.7,0,1c0,0,0,0,0,0l0,0
            C126.7,127.5,126.6,127.6,126.4,127.6L126.4,127.6z M128,125.9c-0.4,0-0.7-0.3-0.7-0.7c0-0.2,0.1-0.4,0.2-0.5c0.3-0.3,0.8-0.3,1,0
            c0.3,0.3,0.3,0.7,0,1c0,0,0,0,0,0l0,0C128.4,125.8,128.2,125.9,128,125.9L128,125.9z M129.7,124.2c-0.4,0-0.7-0.3-0.7-0.7
            c0-0.2,0.1-0.4,0.2-0.5c0.3-0.3,0.8-0.3,1,0c0.3,0.3,0.3,0.7,0,1c0,0,0,0,0,0l0,0C130.1,124.2,129.9,124.2,129.7,124.2
            L129.7,124.2z M131.4,122.6c-0.4,0-0.7-0.3-0.7-0.7c0-0.2,0.1-0.4,0.2-0.5c0.3-0.3,0.8-0.3,1,0c0.3,0.3,0.3,0.7,0,1c0,0,0,0,0,0
            l0,0C131.8,122.5,131.6,122.6,131.4,122.6L131.4,122.6z M133.1,120.9c-0.4,0-0.7-0.3-0.7-0.7c0-0.2,0.1-0.4,0.2-0.5
            c0.3-0.3,0.8-0.3,1,0c0.3,0.3,0.3,0.7,0,1c0,0,0,0,0,0l0,0C133.4,120.8,133.3,120.9,133.1,120.9L133.1,120.9z M134.7,119.2
            c-0.4,0-0.7-0.3-0.7-0.7c0-0.2,0.1-0.4,0.2-0.5c0.3-0.3,0.8-0.3,1,0c0.3,0.3,0.3,0.7,0,1c0,0,0,0,0,0l0,0
            C135.1,119.1,134.9,119.2,134.7,119.2L134.7,119.2z M136.4,117.5c-0.4,0-0.7-0.3-0.7-0.7c0-0.2,0.1-0.4,0.2-0.5
            c0.3-0.3,0.7-0.3,1,0c0.3,0.3,0.3,0.7,0,1c0,0,0,0,0,0l0,0C136.8,117.5,136.6,117.6,136.4,117.5L136.4,117.5z M138.1,115.9
            c-0.4,0-0.7-0.3-0.7-0.7c0-0.2,0.1-0.4,0.2-0.5c0.3-0.3,0.7-0.3,1,0c0.3,0.3,0.3,0.7,0,1c0,0,0,0,0,0l0,0
            C138.5,115.8,138.3,115.9,138.1,115.9L138.1,115.9z M139.8,114.2c-0.4,0-0.7-0.3-0.7-0.7c0-0.2,0.1-0.4,0.2-0.5
            c0.3-0.3,0.7-0.3,1,0c0.3,0.3,0.3,0.7,0,1c0,0,0,0,0,0l0,0C140.1,114.1,140,114.2,139.8,114.2L139.8,114.2z"/>
        <path d="M101.7,119.4c-0.4,0-0.7-0.3-0.7-0.7c0-0.2,0.1-0.4,0.2-0.5c0.3-0.3,0.8-0.3,1,0c0.3,0.3,0.3,0.7,0,1c0,0,0,0,0,0l0,0
            C102.1,119.3,101.9,119.4,101.7,119.4L101.7,119.4z M103.4,117.7c-0.4,0-0.7-0.3-0.7-0.7c0-0.2,0.1-0.4,0.2-0.5
            c0.3-0.3,0.8-0.3,1,0c0.3,0.3,0.3,0.7,0,1c0,0,0,0,0,0l0,0C103.7,117.6,103.6,117.7,103.4,117.7L103.4,117.7z M105,116
            c-0.4,0-0.7-0.3-0.7-0.7c0-0.2,0.1-0.4,0.2-0.5c0.3-0.3,0.8-0.3,1,0c0.3,0.3,0.3,0.7,0,1c0,0,0,0,0,0l0,0
            C105.4,116,105.2,116,105,116L105,116z M106.7,114.4c-0.4,0-0.7-0.3-0.7-0.7c0-0.2,0.1-0.4,0.2-0.5c0.3-0.3,0.8-0.3,1,0
            c0.3,0.3,0.3,0.7,0,1c0,0,0,0,0,0l0,0C107.1,114.3,106.9,114.4,106.7,114.4L106.7,114.4z M108.4,112.7c-0.4,0-0.7-0.3-0.7-0.7
            c0-0.2,0.1-0.4,0.2-0.5c0.3-0.3,0.8-0.3,1,0c0.3,0.3,0.3,0.7,0,1c0,0,0,0,0,0l0,0C108.7,112.6,108.6,112.7,108.4,112.7
            L108.4,112.7z M110.1,111c-0.4,0-0.7-0.3-0.7-0.7c0-0.2,0.1-0.4,0.2-0.5c0.3-0.3,0.8-0.3,1,0c0.3,0.3,0.3,0.7,0,1c0,0,0,0,0,0l0,0
            C110.4,110.9,110.2,111,110.1,111L110.1,111z M111.7,109.3c-0.4,0-0.7-0.3-0.7-0.7c0-0.2,0.1-0.4,0.2-0.5c0.3-0.3,0.8-0.3,1,0
            c0.3,0.3,0.3,0.7,0,1c0,0,0,0,0,0l0,0C112.1,109.3,111.9,109.3,111.7,109.3L111.7,109.3z M113.4,107.7c-0.4,0-0.7-0.3-0.7-0.7
            c0-0.2,0.1-0.4,0.2-0.5c0.3-0.3,0.8-0.3,1,0c0.3,0.3,0.3,0.7,0,1c0,0,0,0,0,0l0,0C113.8,107.6,113.6,107.7,113.4,107.7
            L113.4,107.7z M115.1,106c-0.4,0-0.7-0.3-0.7-0.7c0-0.2,0.1-0.4,0.2-0.5c0.3-0.3,0.8-0.3,1,0c0.3,0.3,0.3,0.7,0,1c0,0,0,0,0,0l0,0
            C115.5,105.9,115.3,106,115.1,106L115.1,106z M116.7,104.3c-0.4,0-0.7-0.3-0.7-0.7c0-0.2,0.1-0.4,0.2-0.5c0.3-0.3,0.8-0.3,1,0
            c0.3,0.3,0.3,0.7,0,1c0,0,0,0,0,0l0,0C117.1,104.2,116.9,104.3,116.7,104.3L116.7,104.3z M118.4,102.6c-0.4,0-0.7-0.3-0.7-0.7
            c0-0.2,0.1-0.4,0.2-0.5c0.3-0.3,0.8-0.3,1,0c0.3,0.3,0.3,0.7,0,1c0,0,0,0,0,0l0,0C118.8,102.6,118.6,102.6,118.4,102.6
            L118.4,102.6z M120.1,101c-0.4,0-0.7-0.3-0.7-0.7c0-0.2,0.1-0.4,0.2-0.5c0.3-0.3,0.8-0.3,1,0c0.3,0.3,0.3,0.7,0,1c0,0,0,0,0,0l0,0
            C120.5,100.9,120.3,101,120.1,101L120.1,101z M121.8,99.3c-0.4,0-0.7-0.3-0.7-0.7c0-0.2,0.1-0.4,0.2-0.5c0.3-0.3,0.8-0.3,1,0
            c0.3,0.3,0.3,0.7,0,1c0,0,0,0,0,0l0,0C122.1,99.2,122,99.3,121.8,99.3L121.8,99.3z M123.4,97.6c-0.4,0-0.7-0.3-0.7-0.7
            c0-0.2,0.1-0.4,0.2-0.5c0.3-0.3,0.8-0.3,1,0c0.3,0.3,0.3,0.7,0,1c0,0,0,0,0,0l0,0C123.8,97.6,123.6,97.6,123.4,97.6L123.4,97.6z
             M125.1,95.9c-0.4,0-0.7-0.3-0.7-0.7c0-0.2,0.1-0.4,0.2-0.5c0.3-0.3,0.8-0.3,1,0c0.3,0.3,0.3,0.7,0,1c0,0,0,0,0,0l0,0
            C125.5,95.9,125.3,96,125.1,95.9L125.1,95.9z M126.8,94.3c-0.4,0-0.7-0.3-0.7-0.7c0-0.2,0.1-0.4,0.2-0.5c0.3-0.3,0.7-0.3,1,0
            c0.3,0.3,0.3,0.7,0,1c0,0,0,0,0,0l0,0C127.2,94.2,127,94.3,126.8,94.3L126.8,94.3z M128.5,92.6c-0.4,0-0.7-0.3-0.7-0.7
            c0-0.2,0.1-0.4,0.2-0.5c0.3-0.3,0.7-0.3,1,0c0.3,0.3,0.3,0.7,0,1c0,0,0,0,0,0l0,0C128.8,92.5,128.7,92.6,128.5,92.6z M130.1,90.9
            c-0.4,0-0.7-0.3-0.7-0.7c0-0.2,0.1-0.4,0.2-0.5c0.3-0.3,0.7-0.3,1,0c0.3,0.3,0.3,0.7,0,1c0,0,0,0,0,0l0,0
            C130.5,90.8,130.3,90.9,130.1,90.9L130.1,90.9z M131.8,89.3c-0.4,0-0.7-0.3-0.7-0.7c0-0.2,0.1-0.4,0.2-0.5c0.3-0.3,0.7-0.3,1,0
            c0.3,0.3,0.3,0.7,0,1c0,0,0,0,0,0l0,0C132.2,89.2,132,89.3,131.8,89.3L131.8,89.3z M133.5,87.6c-0.4,0-0.7-0.3-0.7-0.7
            c0-0.2,0.1-0.4,0.2-0.5c0.3-0.3,0.7-0.3,1,0c0.3,0.3,0.3,0.7,0,1c0,0,0,0,0,0l0,0C133.9,87.5,133.7,87.6,133.5,87.6L133.5,87.6z"
            />
        <path d="M103.5,121.2c-0.4,0-0.7-0.3-0.7-0.7c0-0.2,0.1-0.4,0.2-0.5c0.3-0.3,0.8-0.3,1,0c0.3,0.3,0.3,0.7,0,1c0,0,0,0,0,0l0,0
            C103.9,121.1,103.7,121.2,103.5,121.2L103.5,121.2z M105.2,119.5c-0.4,0-0.7-0.3-0.7-0.7c0-0.4,0.3-0.7,0.7-0.7
            c0.2,0,0.4,0.1,0.5,0.2c0.3,0.3,0.3,0.7,0,1c0,0,0,0,0,0l0,0C105.6,119.5,105.4,119.6,105.2,119.5L105.2,119.5z M106.9,117.9
            c-0.4,0-0.7-0.3-0.7-0.7c0-0.2,0.1-0.4,0.2-0.5c0.3-0.3,0.8-0.3,1,0c0.3,0.3,0.3,0.7,0,1c0,0,0,0,0,0l0,0
            C107.2,117.8,107,117.9,106.9,117.9L106.9,117.9z M108.5,116.2c-0.4,0-0.7-0.3-0.7-0.7c0-0.2,0.1-0.4,0.2-0.5c0.3-0.3,0.8-0.3,1,0
            c0.3,0.3,0.3,0.7,0,1c0,0,0,0,0,0l0,0C108.9,116.1,108.7,116.2,108.5,116.2L108.5,116.2z M110.2,114.5c-0.4,0-0.7-0.3-0.7-0.7
            c0-0.4,0.3-0.7,0.7-0.7c0.2,0,0.4,0.1,0.5,0.2c0.3,0.3,0.3,0.7,0,1c0,0,0,0,0,0l0,0C110.6,114.5,110.4,114.5,110.2,114.5
            L110.2,114.5z M111.9,112.9c-0.4,0-0.7-0.3-0.7-0.7c0-0.2,0.1-0.4,0.2-0.5c0.3-0.3,0.8-0.3,1,0c0.3,0.3,0.3,0.7,0,1c0,0,0,0,0,0
            l0,0C112.3,112.8,112.1,112.9,111.9,112.9L111.9,112.9z M113.5,111.2c-0.4,0-0.7-0.3-0.7-0.7c0-0.2,0.1-0.4,0.2-0.5
            c0.3-0.3,0.8-0.3,1,0c0.3,0.3,0.3,0.7,0,1c0,0,0,0,0,0l0,0C113.9,111.1,113.7,111.2,113.5,111.2L113.5,111.2z M115.2,109.5
            c-0.4,0-0.7-0.3-0.7-0.7c0-0.2,0.1-0.4,0.2-0.5c0.3-0.3,0.8-0.3,1,0c0.3,0.3,0.3,0.7,0,1c0,0,0,0,0,0l0,0
            C115.6,109.4,115.4,109.5,115.2,109.5L115.2,109.5z M116.9,107.8c-0.4,0-0.7-0.3-0.7-0.7c0-0.2,0.1-0.4,0.2-0.5
            c0.3-0.3,0.8-0.3,1,0c0.3,0.3,0.3,0.7,0,1c0,0,0,0,0,0l0,0C117.3,107.8,117.1,107.8,116.9,107.8L116.9,107.8z M118.6,106.2
            c-0.4,0-0.7-0.3-0.7-0.7c0-0.2,0.1-0.4,0.2-0.5c0.3-0.3,0.8-0.3,1,0c0.3,0.3,0.3,0.7,0,1c0,0,0,0,0,0l0,0
            C118.9,106.1,118.7,106.2,118.6,106.2L118.6,106.2z M120.2,104.5c-0.4,0-0.7-0.3-0.7-0.7c0-0.2,0.1-0.4,0.2-0.5
            c0.3-0.3,0.8-0.3,1,0c0.3,0.3,0.3,0.7,0,1c0,0,0,0,0,0l0,0C120.6,104.4,120.4,104.5,120.2,104.5L120.2,104.5z M121.9,102.8
            c-0.4,0-0.7-0.3-0.7-0.7c0-0.2,0.1-0.4,0.2-0.5c0.3-0.3,0.8-0.3,1,0c0.3,0.3,0.3,0.7,0,1c0,0,0,0,0,0l0,0
            C122.3,102.7,122.1,102.8,121.9,102.8L121.9,102.8z M123.6,101.1c-0.4,0-0.7-0.3-0.7-0.7c0-0.2,0.1-0.4,0.2-0.5
            c0.3-0.3,0.8-0.3,1,0c0.3,0.3,0.3,0.7,0,1c0,0,0,0,0,0l0,0C124,101.1,123.8,101.1,123.6,101.1L123.6,101.1z M125.3,99.5
            c-0.4,0-0.7-0.3-0.7-0.7c0-0.4,0.3-0.7,0.7-0.7c0.2,0,0.4,0.1,0.5,0.2c0.3,0.3,0.3,0.7,0,1c0,0,0,0,0,0l0,0
            C125.6,99.4,125.5,99.5,125.3,99.5L125.3,99.5z M126.9,97.8c-0.4,0-0.7-0.3-0.7-0.7c0-0.2,0.1-0.4,0.2-0.5c0.3-0.3,0.8-0.3,1,0
            c0.3,0.3,0.3,0.7,0,1c0,0,0,0,0,0l0,0C127.3,97.7,127.1,97.8,126.9,97.8L126.9,97.8z M128.6,96.1c-0.4,0-0.7-0.3-0.7-0.7
            c0-0.2,0.1-0.4,0.2-0.5c0.3-0.3,0.8-0.3,1,0c0.3,0.3,0.3,0.7,0,1c0,0,0,0,0,0l0,0C129,96.1,128.8,96.1,128.6,96.1z M130.3,94.5
            c-0.4,0-0.7-0.3-0.7-0.7c0-0.2,0.1-0.4,0.2-0.5c0.3-0.3,0.7-0.3,1,0c0.3,0.3,0.3,0.7,0,1c0,0,0,0,0,0l0,0
            C130.7,94.4,130.5,94.5,130.3,94.5L130.3,94.5z M131.9,92.8c-0.4,0-0.7-0.3-0.7-0.7c0-0.2,0.1-0.4,0.2-0.5c0.3-0.3,0.7-0.3,1,0
            c0.3,0.3,0.3,0.7,0,1c0,0,0,0,0,0l0,0C132.3,92.7,132.1,92.8,131.9,92.8L131.9,92.8z M133.6,91.1c-0.4,0-0.7-0.3-0.7-0.7
            c0-0.2,0.1-0.4,0.2-0.5c0.3-0.3,0.7-0.3,1,0c0.3,0.3,0.3,0.7,0,1c0,0,0,0,0,0l0,0C134,91,133.8,91.1,133.6,91.1L133.6,91.1z
             M135.3,89.4c-0.4,0-0.7-0.3-0.7-0.7c0-0.2,0.1-0.4,0.2-0.5c0.3-0.3,0.7-0.3,1,0c0.3,0.3,0.3,0.7,0,1c0,0,0,0,0,0l0,0
            C135.7,89.4,135.5,89.4,135.3,89.4L135.3,89.4z"/>
        <path d="M105.3,123.1c-0.4,0-0.7-0.3-0.7-0.7c0-0.2,0.1-0.4,0.2-0.5c0.3-0.3,0.8-0.3,1,0c0.3,0.3,0.3,0.7,0,1c0,0,0,0,0,0l0,0
            C105.7,123,105.5,123.1,105.3,123.1L105.3,123.1z M107,121.4c-0.4,0-0.7-0.3-0.7-0.7c0-0.2,0.1-0.4,0.2-0.5c0.3-0.3,0.8-0.3,1,0
            c0.3,0.3,0.3,0.7,0,1c0,0,0,0,0,0l0,0C107.4,121.3,107.2,121.4,107,121.4L107,121.4z M108.7,119.7c-0.4,0-0.7-0.3-0.7-0.7
            c0-0.2,0.1-0.4,0.2-0.5c0.3-0.3,0.8-0.3,1,0c0.3,0.3,0.3,0.7,0,1c0,0,0,0,0,0l0,0C109,119.7,108.9,119.7,108.7,119.7L108.7,119.7z
             M110.3,118.1c-0.4,0-0.7-0.3-0.7-0.7c0-0.2,0.1-0.4,0.2-0.5c0.3-0.3,0.8-0.3,1,0c0.3,0.3,0.3,0.7,0,1c0,0,0,0,0,0l0,0
            C110.7,118,110.5,118.1,110.3,118.1L110.3,118.1z M112,116.4c-0.4,0-0.7-0.3-0.7-0.7c0-0.2,0.1-0.4,0.2-0.5c0.3-0.3,0.8-0.3,1,0
            c0.3,0.3,0.3,0.7,0,1c0,0,0,0,0,0l0,0C112.4,116.3,112.2,116.4,112,116.4L112,116.4z M113.7,114.7c-0.4,0-0.7-0.3-0.7-0.7
            c0-0.2,0.1-0.4,0.2-0.5c0.3-0.3,0.8-0.3,1,0c0.3,0.3,0.3,0.7,0,1c0,0,0,0,0,0l0,0C114.1,114.6,113.9,114.7,113.7,114.7
            L113.7,114.7z M115.4,113c-0.4,0-0.7-0.3-0.7-0.7c0-0.2,0.1-0.4,0.2-0.5c0.3-0.3,0.8-0.3,1,0c0.3,0.3,0.3,0.7,0,1c0,0,0,0,0,0l0,0
            C115.7,113,115.5,113,115.4,113L115.4,113z M117,111.4c-0.4,0-0.7-0.3-0.7-0.7c0-0.2,0.1-0.4,0.2-0.5c0.3-0.3,0.8-0.3,1,0
            c0.3,0.3,0.3,0.7,0,1c0,0,0,0,0,0l0,0C117.4,111.3,117.2,111.4,117,111.4L117,111.4z M118.7,109.7c-0.4,0-0.7-0.3-0.7-0.7
            c0-0.2,0.1-0.4,0.2-0.5c0.3-0.3,0.8-0.3,1,0c0.3,0.3,0.3,0.7,0,1c0,0,0,0,0,0l0,0C119.1,109.6,118.9,109.7,118.7,109.7
            L118.7,109.7z M120.4,108c-0.4,0-0.7-0.3-0.7-0.7c0-0.2,0.1-0.4,0.2-0.5c0.3-0.3,0.8-0.3,1,0c0.3,0.3,0.3,0.7,0,1c0,0,0,0,0,0l0,0
            C120.8,107.9,120.6,108,120.4,108L120.4,108z M122.1,106.3c-0.4,0-0.7-0.3-0.7-0.7c0-0.2,0.1-0.4,0.2-0.5c0.3-0.3,0.8-0.3,1,0
            c0.3,0.3,0.3,0.7,0,1c0,0,0,0,0,0l0,0C122.4,106.3,122.2,106.3,122.1,106.3L122.1,106.3z M123.7,104.7c-0.4,0-0.7-0.3-0.7-0.7
            c0-0.4,0.3-0.7,0.7-0.7c0.2,0,0.4,0.1,0.5,0.2c0.3,0.3,0.3,0.7,0,1c0,0,0,0,0,0l0,0C124.1,104.6,123.9,104.7,123.7,104.7
            L123.7,104.7z M125.4,103c-0.4,0-0.7-0.3-0.7-0.7c0-0.2,0.1-0.4,0.2-0.5c0.3-0.3,0.8-0.3,1,0c0.3,0.3,0.3,0.7,0,1c0,0,0,0,0,0l0,0
            C125.8,102.9,125.6,103,125.4,103z M127.1,101.3c-0.4,0-0.7-0.3-0.7-0.7c0-0.2,0.1-0.4,0.2-0.5c0.3-0.3,0.8-0.3,1,0
            c0.3,0.3,0.3,0.7,0,1c0,0,0,0,0,0l0,0C127.4,101.3,127.3,101.3,127.1,101.3L127.1,101.3z M128.7,99.7c-0.4,0-0.7-0.3-0.7-0.7
            c0-0.2,0.1-0.4,0.2-0.5c0.3-0.3,0.8-0.3,1,0c0.3,0.3,0.3,0.7,0,1c0,0,0,0,0,0l0,0C129.1,99.6,128.9,99.7,128.7,99.7L128.7,99.7z
             M130.4,98c-0.4,0-0.7-0.3-0.7-0.7c0-0.2,0.1-0.4,0.2-0.5c0.3-0.3,0.7-0.3,1,0c0.3,0.3,0.3,0.7,0,1c0,0,0,0,0,0l0,0
            C130.8,97.9,130.6,98,130.4,98L130.4,98z M132.1,96.3c-0.4,0-0.7-0.3-0.7-0.7c0-0.2,0.1-0.4,0.2-0.5c0.3-0.3,0.7-0.3,1,0
            c0.3,0.3,0.3,0.7,0,1c0,0,0,0,0,0l0,0C132.5,96.2,132.3,96.3,132.1,96.3L132.1,96.3z M133.8,94.6c-0.4,0-0.7-0.3-0.7-0.7
            c0-0.2,0.1-0.4,0.2-0.5c0.3-0.3,0.7-0.3,1,0c0.3,0.3,0.3,0.7,0,1c0,0,0,0,0,0l0,0C134.1,94.6,134,94.6,133.8,94.6L133.8,94.6z
             M135.4,93c-0.4,0-0.7-0.3-0.7-0.7c0-0.2,0.1-0.4,0.2-0.5c0.3-0.3,0.7-0.3,1,0c0.3,0.3,0.3,0.7,0,1c0,0,0,0,0,0l0,0
            C135.8,92.9,135.6,93,135.4,93L135.4,93z M137.1,91.3c-0.4,0-0.7-0.3-0.7-0.7c0-0.2,0.1-0.4,0.2-0.5c0.3-0.3,0.7-0.3,1,0
            c0.3,0.3,0.3,0.7,0,1c0,0,0,0,0,0l0,0C137.5,91.2,137.3,91.3,137.1,91.3L137.1,91.3z"/>
        <path d="M107.1,124.9c-0.4,0-0.7-0.3-0.7-0.7c0-0.2,0.1-0.4,0.2-0.5c0.3-0.3,0.8-0.3,1,0c0.3,0.3,0.3,0.7,0,1c0,0,0,0,0,0l0,0
            C107.5,124.8,107.3,124.9,107.1,124.9L107.1,124.9z M108.8,123.3c-0.4,0-0.7-0.3-0.7-0.7s0.3-0.7,0.7-0.7c0.2,0,0.4,0.1,0.5,0.2
            c0.3,0.3,0.3,0.7,0,1c0,0,0,0,0,0l0,0C109.2,123.2,109,123.3,108.8,123.3L108.8,123.3z M110.5,121.6c-0.4,0-0.7-0.3-0.7-0.7
            c0-0.2,0.1-0.4,0.2-0.5c0.3-0.3,0.8-0.3,1,0c0.3,0.3,0.3,0.7,0,1c0,0,0,0,0,0l0,0C110.9,121.5,110.7,121.6,110.5,121.6
            L110.5,121.6z M112.2,119.9c-0.4,0-0.7-0.3-0.7-0.7c0-0.2,0.1-0.4,0.2-0.5c0.3-0.3,0.8-0.3,1,0c0.3,0.3,0.3,0.7,0,1c0,0,0,0,0,0
            l0,0C112.5,119.8,112.3,119.9,112.2,119.9L112.2,119.9z M113.8,118.2c-0.4,0-0.7-0.3-0.7-0.7c0-0.4,0.3-0.7,0.7-0.7
            c0.2,0,0.4,0.1,0.5,0.2c0.3,0.3,0.3,0.7,0,1c0,0,0,0,0,0l0,0C114.2,118.2,114,118.2,113.8,118.2L113.8,118.2z M115.5,116.6
            c-0.4,0-0.7-0.3-0.7-0.7c0-0.2,0.1-0.4,0.2-0.5c0.3-0.3,0.8-0.3,1,0c0.3,0.3,0.3,0.7,0,1c0,0,0,0,0,0l0,0
            C115.9,116.5,115.7,116.6,115.5,116.6L115.5,116.6z M117.2,114.9c-0.4,0-0.7-0.3-0.7-0.7c0-0.2,0.1-0.4,0.2-0.5
            c0.3-0.3,0.8-0.3,1,0c0.3,0.3,0.3,0.7,0,1c0,0,0,0,0,0l0,0C117.6,114.8,117.4,114.9,117.2,114.9L117.2,114.9z M118.8,113.2
            c-0.4,0-0.7-0.3-0.7-0.7c0-0.2,0.1-0.4,0.2-0.5c0.3-0.3,0.8-0.3,1,0c0.3,0.3,0.3,0.7,0,1c0,0,0,0,0,0l0,0
            C119.2,113.1,119,113.2,118.8,113.2L118.8,113.2z M120.5,111.5c-0.4,0-0.7-0.3-0.7-0.7c0-0.2,0.1-0.4,0.2-0.5c0.3-0.3,0.8-0.3,1,0
            c0.3,0.3,0.3,0.7,0,1c0,0,0,0,0,0l0,0C120.9,111.5,120.7,111.5,120.5,111.5L120.5,111.5z M122.2,109.9c-0.4,0-0.7-0.3-0.7-0.7
            c0-0.2,0.1-0.4,0.2-0.5c0.3-0.3,0.8-0.3,1,0c0.3,0.3,0.3,0.7,0,1c0,0,0,0,0,0l0,0C122.6,109.8,122.4,109.9,122.2,109.9
            L122.2,109.9z M123.9,108.2c-0.4,0-0.7-0.3-0.7-0.7c0-0.2,0.1-0.4,0.2-0.5c0.3-0.3,0.8-0.3,1,0c0.3,0.3,0.3,0.7,0,1c0,0,0,0,0,0
            l0,0C124.2,108.1,124,108.2,123.9,108.2L123.9,108.2z M125.5,106.5c-0.4,0-0.7-0.3-0.7-0.7c0-0.2,0.1-0.4,0.2-0.5
            c0.3-0.3,0.8-0.3,1,0c0.3,0.3,0.3,0.7,0,1c0,0,0,0,0,0l0,0C125.9,106.5,125.7,106.5,125.5,106.5L125.5,106.5z M127.2,104.8
            c-0.4,0-0.7-0.3-0.7-0.7c0-0.2,0.1-0.4,0.2-0.5c0.3-0.3,0.8-0.3,1,0c0.3,0.3,0.3,0.7,0,1c0,0,0,0,0,0l0,0
            C127.6,104.8,127.4,104.9,127.2,104.8L127.2,104.8z M128.9,103.2c-0.4,0-0.7-0.3-0.7-0.7c0-0.2,0.1-0.4,0.2-0.5
            c0.3-0.3,0.8-0.3,1,0c0.3,0.3,0.3,0.7,0,1c0,0,0,0,0,0l0,0C129.3,103.1,129.1,103.2,128.9,103.2L128.9,103.2z M130.6,101.5
            c-0.4,0-0.7-0.3-0.7-0.7c0-0.4,0.3-0.7,0.7-0.7c0.2,0,0.4,0.1,0.5,0.2c0.3,0.3,0.3,0.7,0,1c0,0,0,0,0,0l0,0
            C130.9,101.4,130.7,101.5,130.6,101.5L130.6,101.5z M132.2,99.8c-0.4,0-0.7-0.3-0.7-0.7c0-0.2,0.1-0.4,0.2-0.5
            c0.3-0.3,0.8-0.3,1,0c0.3,0.3,0.3,0.7,0,1c0,0,0,0,0,0l0,0C132.6,99.8,132.4,99.8,132.2,99.8L132.2,99.8z M133.9,98.2
            c-0.4,0-0.7-0.3-0.7-0.7c0-0.2,0.1-0.4,0.2-0.5c0.3-0.3,0.7-0.3,1,0c0.3,0.3,0.3,0.7,0,1c0,0,0,0,0,0l0,0
            C134.3,98.1,134.1,98.2,133.9,98.2L133.9,98.2z M135.6,96.5c-0.4,0-0.7-0.3-0.7-0.7c0-0.2,0.1-0.4,0.2-0.5c0.3-0.3,0.7-0.3,1,0
            c0.3,0.3,0.3,0.7,0,1c0,0,0,0,0,0l0,0C136,96.4,135.8,96.5,135.6,96.5L135.6,96.5z M137.2,94.8c-0.4,0-0.7-0.3-0.7-0.7
            c0-0.2,0.1-0.4,0.2-0.5c0.3-0.3,0.7-0.3,1,0c0.3,0.3,0.3,0.7,0,1c0,0,0,0,0,0l0,0C137.6,94.7,137.4,94.8,137.2,94.8L137.2,94.8z
             M138.9,93.1c-0.4,0-0.7-0.3-0.7-0.7c0-0.2,0.1-0.4,0.2-0.5c0.3-0.3,0.7-0.3,1,0c0.3,0.3,0.3,0.7,0,1c0,0,0,0,0,0l0,0
            C139.3,93.1,139.1,93.1,138.9,93.1L138.9,93.1z"/>
        <path d="M108.9,126.8c-0.4,0-0.7-0.3-0.7-0.7c0-0.2,0.1-0.4,0.2-0.5c0.3-0.3,0.8-0.3,1,0c0.3,0.3,0.3,0.7,0,1c0,0,0,0,0,0l0,0
            C109.3,126.7,109.1,126.8,108.9,126.8L108.9,126.8z M110.6,125.1c-0.4,0-0.7-0.3-0.7-0.7c0-0.2,0.1-0.4,0.2-0.5
            c0.3-0.3,0.8-0.3,1,0c0.3,0.3,0.3,0.7,0,1c0,0,0,0,0,0l0,0C111,125,110.8,125.1,110.6,125.1L110.6,125.1z M112.3,123.4
            c-0.4,0-0.7-0.3-0.7-0.7c0-0.2,0.1-0.4,0.2-0.5c0.3-0.3,0.8-0.3,1,0c0.3,0.3,0.3,0.7,0,1c0,0,0,0,0,0l0,0
            C112.7,123.4,112.5,123.4,112.3,123.4L112.3,123.4z M114,121.8c-0.4,0-0.7-0.3-0.7-0.7c0-0.2,0.1-0.4,0.2-0.5c0.3-0.3,0.8-0.3,1,0
            c0.3,0.3,0.3,0.7,0,1c0,0,0,0,0,0l0,0C114.3,121.7,114.2,121.8,114,121.8L114,121.8z M115.6,120.1c-0.4,0-0.7-0.3-0.7-0.7
            c0-0.2,0.1-0.4,0.2-0.5c0.3-0.3,0.8-0.3,1,0c0.3,0.3,0.3,0.7,0,1c0,0,0,0,0,0l0,0C116,120,115.8,120.1,115.6,120.1L115.6,120.1z
             M117.3,118.4c-0.4,0-0.7-0.3-0.7-0.7c0-0.2,0.1-0.4,0.2-0.5c0.3-0.3,0.8-0.3,1,0c0.3,0.3,0.3,0.7,0,1c0,0,0,0,0,0l0,0
            C117.7,118.3,117.5,118.4,117.3,118.4L117.3,118.4z M119,116.7c-0.4,0-0.7-0.3-0.7-0.7c0-0.2,0.1-0.4,0.2-0.5c0.3-0.3,0.8-0.3,1,0
            c0.3,0.3,0.3,0.7,0,1c0,0,0,0,0,0l0,0C119.4,116.7,119.2,116.7,119,116.7L119,116.7z M120.7,115.1c-0.4,0-0.7-0.3-0.7-0.7
            c0-0.2,0.1-0.4,0.2-0.5c0.3-0.3,0.8-0.3,1,0c0.3,0.3,0.3,0.7,0,1c0,0,0,0,0,0l0,0C121,115,120.8,115.1,120.7,115.1L120.7,115.1z
             M122.3,113.4c-0.4,0-0.7-0.3-0.7-0.7c0-0.4,0.3-0.7,0.7-0.7c0.2,0,0.4,0.1,0.5,0.2c0.3,0.3,0.3,0.7,0,1c0,0,0,0,0,0l0,0
            C122.7,113.3,122.5,113.4,122.3,113.4L122.3,113.4z M124,111.7c-0.4,0-0.7-0.3-0.7-0.7c0-0.2,0.1-0.4,0.2-0.5c0.3-0.3,0.8-0.3,1,0
            c0.3,0.3,0.3,0.7,0,1c0,0,0,0,0,0l0,0C124.4,111.7,124.2,111.7,124,111.7z M125.7,110.1c-0.4,0-0.7-0.3-0.7-0.7
            c0-0.2,0.1-0.4,0.2-0.5c0.3-0.3,0.8-0.3,1,0c0.3,0.3,0.3,0.7,0,1c0,0,0,0,0,0l0,0C126.1,110,125.9,110.1,125.7,110.1L125.7,110.1z
             M127.3,108.4c-0.4,0-0.7-0.3-0.7-0.7c0-0.4,0.3-0.7,0.7-0.7c0.2,0,0.4,0.1,0.5,0.2c0.3,0.3,0.3,0.7,0,1c0,0,0,0,0,0l0,0
            C127.7,108.3,127.5,108.4,127.3,108.4L127.3,108.4z M129,106.7c-0.4,0-0.7-0.3-0.7-0.7c0-0.2,0.1-0.4,0.2-0.5c0.3-0.3,0.8-0.3,1,0
            c0.3,0.3,0.3,0.7,0,1c0,0,0,0,0,0l0,0C129.4,106.6,129.2,106.7,129,106.7L129,106.7z M130.7,105c-0.4,0-0.7-0.3-0.7-0.7
            c0-0.2,0.1-0.4,0.2-0.5c0.3-0.3,0.8-0.3,1,0c0.3,0.3,0.3,0.7,0,1c0,0,0,0,0,0l0,0C131.1,105,130.9,105,130.7,105z M132.4,103.4
            c-0.4,0-0.7-0.3-0.7-0.7c0-0.4,0.3-0.7,0.7-0.7c0.2,0,0.4,0.1,0.5,0.2c0.3,0.3,0.3,0.7,0,1c0,0,0,0,0,0l0,0
            C132.7,103.3,132.6,103.4,132.4,103.4L132.4,103.4z M134,101.7c-0.4,0-0.7-0.3-0.7-0.7c0-0.2,0.1-0.4,0.2-0.5c0.3-0.3,0.7-0.3,1,0
            c0.3,0.3,0.3,0.7,0,1c0,0,0,0,0,0l0,0C134.4,101.6,134.2,101.7,134,101.7L134,101.7z M135.7,100c-0.4,0-0.7-0.3-0.7-0.7
            c0-0.2,0.1-0.4,0.2-0.5c0.3-0.3,0.7-0.3,1,0c0.3,0.3,0.3,0.7,0,1c0,0,0,0,0,0l0,0C136.1,99.9,135.9,100,135.7,100L135.7,100z
             M137.4,98.3c-0.4,0-0.7-0.3-0.7-0.7c0-0.2,0.1-0.4,0.2-0.5c0.3-0.3,0.7-0.3,1,0c0.3,0.3,0.3,0.7,0,1c0,0,0,0,0,0l0,0
            C137.8,98.3,137.6,98.3,137.4,98.3L137.4,98.3z M139.1,96.7c-0.4,0-0.7-0.3-0.7-0.7c0-0.2,0.1-0.4,0.2-0.5c0.3-0.3,0.7-0.3,1,0
            c0.3,0.3,0.3,0.7,0,1c0,0,0,0,0,0l0,0C139.4,96.6,139.3,96.7,139.1,96.7L139.1,96.7z"/>
        <path d="M112.4,127c-0.4,0-0.7-0.3-0.7-0.7c0-0.2,0.1-0.4,0.2-0.5c0.3-0.3,0.8-0.3,1,0c0.3,0.3,0.3,0.7,0,1c0,0,0,0,0,0l0,0
            C112.8,126.9,112.6,127,112.4,127L112.4,127z M114.1,125.3c-0.4,0-0.7-0.3-0.7-0.7c0-0.2,0.1-0.4,0.2-0.5c0.3-0.3,0.8-0.3,1,0
            c0.3,0.3,0.3,0.7,0,1c0,0,0,0,0,0l0,0C114.5,125.2,114.3,125.3,114.1,125.3L114.1,125.3z M115.8,123.6c-0.4,0-0.7-0.3-0.7-0.7
            c0-0.2,0.1-0.4,0.2-0.5c0.3-0.3,0.8-0.3,1,0c0.3,0.3,0.3,0.7,0,1c0,0,0,0,0,0l0,0C116.1,123.5,116,123.6,115.8,123.6L115.8,123.6z
             M117.5,121.9c-0.4,0-0.7-0.3-0.7-0.7c0-0.2,0.1-0.4,0.2-0.5c0.3-0.3,0.8-0.3,1,0c0.3,0.3,0.3,0.7,0,1c0,0,0,0,0,0l0,0
            C117.8,121.9,117.6,121.9,117.5,121.9L117.5,121.9z M119.1,120.3c-0.4,0-0.7-0.3-0.7-0.7c0-0.2,0.1-0.4,0.2-0.5
            c0.3-0.3,0.8-0.3,1,0c0.3,0.3,0.3,0.7,0,1c0,0,0,0,0,0l0,0C119.5,120.2,119.3,120.3,119.1,120.3L119.1,120.3z M120.8,118.6
            c-0.4,0-0.7-0.3-0.7-0.7c0-0.2,0.1-0.4,0.2-0.5c0.3-0.3,0.8-0.3,1,0c0.3,0.3,0.3,0.7,0,1c0,0,0,0,0,0l0,0
            C121.2,118.5,121,118.6,120.8,118.6L120.8,118.6z M122.5,116.9c-0.4,0-0.7-0.3-0.7-0.7c0-0.2,0.1-0.4,0.2-0.5c0.3-0.3,0.8-0.3,1,0
            c0.3,0.3,0.3,0.7,0,1c0,0,0,0,0,0l0,0C122.8,116.9,122.7,116.9,122.5,116.9L122.5,116.9z M124.1,115.3c-0.4,0-0.7-0.3-0.7-0.7
            c0-0.2,0.1-0.4,0.2-0.5c0.3-0.3,0.8-0.3,1,0c0.3,0.3,0.3,0.7,0,1c0,0,0,0,0,0l0,0C124.5,115.2,124.3,115.3,124.1,115.3
            L124.1,115.3z M125.8,113.6c-0.4,0-0.7-0.3-0.7-0.7c0-0.4,0.3-0.7,0.7-0.7c0.2,0,0.4,0.1,0.5,0.2c0.3,0.3,0.3,0.7,0,1c0,0,0,0,0,0
            l0,0C126.2,113.5,126,113.6,125.8,113.6L125.8,113.6z M127.5,111.9c-0.4,0-0.7-0.3-0.7-0.7c0-0.4,0.3-0.7,0.7-0.7
            c0.2,0,0.4,0.1,0.5,0.2c0.3,0.3,0.3,0.7,0,1c0,0,0,0,0,0l0,0C127.9,111.8,127.7,111.9,127.5,111.9L127.5,111.9z M129.2,110.2
            c-0.4,0-0.7-0.3-0.7-0.7c0-0.2,0.1-0.4,0.2-0.5c0.3-0.3,0.8-0.3,1,0c0.3,0.3,0.3,0.7,0,1c0,0,0,0,0,0l0,0
            C129.5,110.2,129.4,110.2,129.2,110.2L129.2,110.2z M130.8,108.6c-0.4,0-0.7-0.3-0.7-0.7c0-0.4,0.3-0.7,0.7-0.7
            c0.2,0,0.4,0.1,0.5,0.2c0.3,0.3,0.3,0.7,0,1c0,0,0,0,0,0l0,0C131.2,108.5,131,108.6,130.8,108.6L130.8,108.6z M132.5,106.9
            c-0.4,0-0.7-0.3-0.7-0.7c0-0.4,0.3-0.7,0.7-0.7c0.2,0,0.4,0.1,0.5,0.2c0.3,0.3,0.3,0.7,0,1c0,0,0,0,0,0l0,0
            C132.9,106.8,132.7,106.9,132.5,106.9L132.5,106.9z M134.2,105.2c-0.4,0-0.7-0.3-0.7-0.7c0-0.2,0.1-0.4,0.2-0.5
            c0.3-0.3,0.8-0.3,1,0c0.3,0.3,0.3,0.7,0,1c0,0,0,0,0,0l0,0C134.6,105.1,134.4,105.2,134.2,105.2L134.2,105.2z M135.9,103.5
            c-0.4,0-0.7-0.3-0.7-0.7c0-0.2,0.1-0.4,0.2-0.5c0.3-0.3,0.7-0.3,1,0c0.3,0.3,0.3,0.7,0,1c0,0,0,0,0,0l0,0
            C136.3,103.5,136.1,103.5,135.9,103.5L135.9,103.5z M137.5,101.9c-0.4,0-0.7-0.3-0.7-0.7c0-0.2,0.1-0.4,0.2-0.5
            c0.3-0.3,0.7-0.3,1,0c0.3,0.3,0.3,0.7,0,1c0,0,0,0,0,0l0,0C137.9,101.8,137.7,101.9,137.5,101.9L137.5,101.9z M139.2,100.2
            c-0.4,0-0.7-0.3-0.7-0.7c0-0.2,0.1-0.4,0.2-0.5c0.3-0.3,0.7-0.3,1,0c0.3,0.3,0.3,0.7,0,1c0,0,0,0,0,0l0,0
            C139.6,100.1,139.4,100.2,139.2,100.2z M140.9,98.5c-0.4,0-0.7-0.3-0.7-0.7c0-0.2,0.1-0.4,0.2-0.5c0.3-0.3,0.7-0.3,1,0
            c0.3,0.3,0.3,0.7,0,1c0,0,0,0,0,0l0,0C141.3,98.4,141.1,98.5,140.9,98.5L140.9,98.5z"/>
        <path d="M115.9,127.1c-0.4,0-0.7-0.3-0.7-0.7c0-0.2,0.1-0.4,0.2-0.5c0.3-0.3,0.8-0.3,1,0c0.3,0.3,0.3,0.7,0,1c0,0,0,0,0,0l0,0
            C116.3,127.1,116.1,127.1,115.9,127.1L115.9,127.1z M117.6,125.5c-0.4,0-0.7-0.3-0.7-0.7c0-0.2,0.1-0.4,0.2-0.5
            c0.3-0.3,0.8-0.3,1,0c0.3,0.3,0.3,0.7,0,1c0,0,0,0,0,0l0,0C118,125.4,117.8,125.5,117.6,125.5L117.6,125.5z M119.3,123.8
            c-0.4,0-0.7-0.3-0.7-0.7c0-0.2,0.1-0.4,0.2-0.5c0.3-0.3,0.8-0.3,1,0c0.3,0.3,0.3,0.7,0,1c0,0,0,0,0,0l0,0
            C119.6,123.7,119.5,123.8,119.3,123.8L119.3,123.8z M120.9,122.1c-0.4,0-0.7-0.3-0.7-0.7c0-0.2,0.1-0.4,0.2-0.5
            c0.3-0.3,0.8-0.3,1,0c0.3,0.3,0.3,0.7,0,1c0,0,0,0,0,0l0,0C121.3,122.1,121.1,122.1,120.9,122.1L120.9,122.1z M122.6,120.4
            c-0.4,0-0.7-0.3-0.7-0.7c0-0.2,0.1-0.4,0.2-0.5c0.3-0.3,0.8-0.3,1,0c0.3,0.3,0.3,0.7,0,1c0,0,0,0,0,0l0,0
            C123,120.4,122.8,120.5,122.6,120.4L122.6,120.4z M124.3,118.8c-0.4,0-0.7-0.3-0.7-0.7c0-0.2,0.1-0.4,0.2-0.5c0.3-0.3,0.8-0.3,1,0
            c0.3,0.3,0.3,0.7,0,1c0,0,0,0,0,0l0,0C124.6,118.7,124.5,118.8,124.3,118.8L124.3,118.8z M126,117.1c-0.4,0-0.7-0.3-0.7-0.7
            c0-0.2,0.1-0.4,0.2-0.5c0.3-0.3,0.8-0.3,1,0c0.3,0.3,0.3,0.7,0,1c0,0,0,0,0,0l0,0C126.3,117,126.1,117.1,126,117.1L126,117.1z
             M127.6,115.4c-0.4,0-0.7-0.3-0.7-0.7c0-0.2,0.1-0.4,0.2-0.5c0.3-0.3,0.8-0.3,1,0c0.3,0.3,0.3,0.7,0,1c0,0,0,0,0,0l0,0
            C128,115.4,127.8,115.4,127.6,115.4L127.6,115.4z M129.3,113.8c-0.4,0-0.7-0.3-0.7-0.7c0-0.2,0.1-0.4,0.2-0.5c0.3-0.3,0.8-0.3,1,0
            c0.3,0.3,0.3,0.7,0,1c0,0,0,0,0,0l0,0C129.7,113.7,129.5,113.8,129.3,113.8L129.3,113.8z M131,112.1c-0.4,0-0.7-0.3-0.7-0.7
            c0-0.2,0.1-0.4,0.2-0.5c0.3-0.3,0.8-0.3,1,0c0.3,0.3,0.3,0.7,0,1c0,0,0,0,0,0l0,0C131.3,112,131.2,112.1,131,112.1L131,112.1z
             M132.6,110.4c-0.4,0-0.7-0.3-0.7-0.7c0-0.2,0.1-0.4,0.2-0.5c0.3-0.3,0.8-0.3,1,0c0.3,0.3,0.3,0.7,0,1c0,0,0,0,0,0l0,0
            C133,110.3,132.8,110.4,132.6,110.4L132.6,110.4z M134.3,108.7c-0.4,0-0.7-0.3-0.7-0.7c0-0.2,0.1-0.4,0.2-0.5c0.3-0.3,0.8-0.3,1,0
            c0.3,0.3,0.3,0.7,0,1c0,0,0,0,0,0l0,0C134.7,108.7,134.5,108.7,134.3,108.7L134.3,108.7z M136,107.1c-0.4,0-0.7-0.3-0.7-0.7
            c0-0.2,0.1-0.4,0.2-0.5c0.3-0.3,0.8-0.3,1,0c0.3,0.3,0.3,0.7,0,1c0,0,0,0,0,0l0,0C136.4,107,136.2,107.1,136,107.1L136,107.1z
             M137.7,105.4c-0.4,0-0.7-0.3-0.7-0.7c0-0.2,0.1-0.4,0.2-0.5c0.3-0.3,0.8-0.3,1,0c0.3,0.3,0.3,0.7,0,1c0,0,0,0,0,0l0,0
            C138,105.3,137.9,105.4,137.7,105.4L137.7,105.4z M139.3,103.7c-0.4,0-0.7-0.3-0.7-0.7c0-0.2,0.1-0.4,0.2-0.5c0.3-0.3,0.8-0.3,1,0
            c0.3,0.3,0.3,0.7,0,1c0,0,0,0,0,0l0,0C139.7,103.7,139.5,103.7,139.3,103.7L139.3,103.7z M141,102c-0.4,0-0.7-0.3-0.7-0.7
            c0-0.4,0.3-0.7,0.7-0.7c0.2,0,0.4,0.1,0.5,0.2c0.3,0.3,0.3,0.7,0,1c0,0,0,0,0,0l0,0C141.4,102,141.2,102,141,102L141,102z"/>
        <path d="M119.4,127.3c-0.4,0-0.7-0.3-0.7-0.7c0-0.2,0.1-0.4,0.2-0.5c0.3-0.3,0.8-0.3,1,0c0.3,0.3,0.3,0.7,0,1c0,0,0,0,0,0l0,0
            C119.8,127.3,119.6,127.3,119.4,127.3L119.4,127.3z M121.1,125.7c-0.4,0-0.7-0.3-0.7-0.7c0-0.2,0.1-0.4,0.2-0.5
            c0.3-0.3,0.8-0.3,1,0c0.3,0.3,0.3,0.7,0,1c0,0,0,0,0,0l0,0C121.4,125.6,121.3,125.7,121.1,125.7L121.1,125.7z M122.7,124
            c-0.4,0-0.7-0.3-0.7-0.7c0-0.2,0.1-0.4,0.2-0.5c0.3-0.3,0.8-0.3,1,0c0.3,0.3,0.3,0.7,0,1c0,0,0,0,0,0l0,0
            C123.1,123.9,122.9,124,122.7,124L122.7,124z M124.4,122.3c-0.4,0-0.7-0.3-0.7-0.7c0-0.2,0.1-0.4,0.2-0.5c0.3-0.3,0.8-0.3,1,0
            c0.3,0.3,0.3,0.7,0,1c0,0,0,0,0,0l0,0C124.8,122.2,124.6,122.3,124.4,122.3L124.4,122.3z M126.1,120.6c-0.4,0-0.7-0.3-0.7-0.7
            c0-0.2,0.1-0.4,0.2-0.5c0.3-0.3,0.8-0.3,1,0c0.3,0.3,0.3,0.7,0,1c0,0,0,0,0,0l0,0C126.5,120.6,126.3,120.6,126.1,120.6
            L126.1,120.6z M127.8,119c-0.4,0-0.7-0.3-0.7-0.7c0-0.2,0.1-0.4,0.2-0.5c0.3-0.3,0.8-0.3,1,0c0.3,0.3,0.3,0.7,0,1c0,0,0,0,0,0l0,0
            C128.1,118.9,128,119,127.8,119L127.8,119z M129.4,117.3c-0.4,0-0.7-0.3-0.7-0.7c0-0.2,0.1-0.4,0.2-0.5c0.3-0.3,0.8-0.3,1,0
            c0.3,0.3,0.3,0.7,0,1c0,0,0,0,0,0l0,0C129.8,117.2,129.6,117.3,129.4,117.3L129.4,117.3z M131.1,115.6c-0.4,0-0.7-0.3-0.7-0.7
            c0-0.2,0.1-0.4,0.2-0.5c0.3-0.3,0.8-0.3,1,0c0.3,0.3,0.3,0.7,0,1c0,0,0,0,0,0l0,0C131.5,115.5,131.3,115.6,131.1,115.6
            L131.1,115.6z M132.8,113.9c-0.4,0-0.7-0.3-0.7-0.7c0-0.2,0.1-0.4,0.2-0.5c0.3-0.3,0.7-0.3,1,0c0.3,0.3,0.3,0.7,0,1c0,0,0,0,0,0
            l0,0C133.2,113.9,133,113.9,132.8,113.9L132.8,113.9z M134.5,112.3c-0.4,0-0.7-0.3-0.7-0.7c0-0.2,0.1-0.4,0.2-0.5
            c0.3-0.3,0.7-0.3,1,0c0.3,0.3,0.3,0.7,0,1c0,0,0,0,0,0l0,0C134.9,112.2,134.7,112.3,134.5,112.3L134.5,112.3z M136.1,110.6
            c-0.4,0-0.7-0.3-0.7-0.7c0-0.2,0.1-0.4,0.2-0.5c0.3-0.3,0.7-0.3,1,0c0.3,0.3,0.3,0.7,0,1c0,0,0,0,0,0l0,0
            C136.5,110.5,136.3,110.6,136.1,110.6L136.1,110.6z M137.8,108.9c-0.4,0-0.7-0.3-0.7-0.7c0-0.2,0.1-0.4,0.2-0.5
            c0.3-0.3,0.7-0.3,1,0c0.3,0.3,0.3,0.7,0,1c0,0,0,0,0,0l0,0C138.2,108.8,138,108.9,137.8,108.9L137.8,108.9z M139.5,107.3
            c-0.4,0-0.7-0.3-0.7-0.7c0-0.2,0.1-0.4,0.2-0.5c0.3-0.3,0.7-0.3,1,0c0.3,0.3,0.3,0.7,0,1c0,0,0,0,0,0l0,0
            C139.9,107.2,139.7,107.3,139.5,107.3L139.5,107.3z M141.2,105.6c-0.4,0-0.7-0.3-0.7-0.7c0-0.2,0.1-0.4,0.2-0.5
            c0.3-0.3,0.7-0.3,1,0c0.3,0.3,0.3,0.7,0,1c0,0,0,0,0,0l0,0C141.5,105.5,141.4,105.6,141.2,105.6L141.2,105.6z"/>
        <path d="M95.6,96.2c-0.4,0-0.7-0.3-0.7-0.7c0-0.2,0.1-0.4,0.2-0.5c0.3-0.3,0.8-0.3,1,0c0.3,0.3,0.3,0.7,0,1c0,0,0,0,0,0l0,0
            C95.9,96.1,95.7,96.2,95.6,96.2L95.6,96.2z M97.2,94.5c-0.4,0-0.7-0.3-0.7-0.7c0-0.2,0.1-0.4,0.2-0.5c0.3-0.3,0.8-0.3,1,0
            c0.3,0.3,0.3,0.7,0,1c0,0,0,0,0,0l0,0C97.6,94.4,97.4,94.5,97.2,94.5L97.2,94.5z M98.9,92.8c-0.4,0-0.7-0.3-0.7-0.7
            c0-0.2,0.1-0.4,0.2-0.5c0.3-0.3,0.8-0.3,1,0c0.3,0.3,0.3,0.7,0,1c0,0,0,0,0,0l0,0C99.3,92.8,99.1,92.8,98.9,92.8z M100.6,91.2
            c-0.4,0-0.7-0.3-0.7-0.7c0-0.2,0.1-0.4,0.2-0.5c0.3-0.3,0.8-0.3,1,0c0.3,0.3,0.3,0.7,0,1c0,0,0,0,0,0l0,0
            C100.9,91.1,100.8,91.2,100.6,91.2L100.6,91.2z M102.2,89.5c-0.4,0-0.7-0.3-0.7-0.7c0-0.2,0.1-0.4,0.2-0.5c0.3-0.3,0.8-0.3,1,0
            c0.3,0.3,0.3,0.7,0,1c0,0,0,0,0,0l0,0C102.6,89.4,102.4,89.5,102.2,89.5L102.2,89.5z M103.9,87.8c-0.4,0-0.7-0.3-0.7-0.7
            c0-0.2,0.1-0.4,0.2-0.5c0.3-0.3,0.8-0.3,1,0c0.3,0.3,0.3,0.7,0,1c0,0,0,0,0,0l0,0C104.3,87.7,104.1,87.8,103.9,87.8L103.9,87.8z
             M105.6,86.1c-0.4,0-0.7-0.3-0.7-0.7c0-0.2,0.1-0.4,0.2-0.5c0.3-0.3,0.8-0.3,1,0c0.3,0.3,0.3,0.7,0,1c0,0,0,0,0,0l0,0
            C106,86.1,105.8,86.1,105.6,86.1L105.6,86.1z M107.3,84.5c-0.4,0-0.7-0.3-0.7-0.7c0-0.2,0.1-0.4,0.2-0.5c0.3-0.3,0.8-0.3,1,0
            c0.3,0.3,0.3,0.7,0,1c0,0,0,0,0,0l0,0C107.6,84.4,107.4,84.5,107.3,84.5L107.3,84.5z M108.9,82.8c-0.4,0-0.7-0.3-0.7-0.7
            c0-0.2,0.1-0.4,0.2-0.5c0.3-0.3,0.8-0.3,1,0c0.3,0.3,0.3,0.7,0,1c0,0,0,0,0,0l0,0C109.3,82.7,109.1,82.8,108.9,82.8L108.9,82.8z"
            />
        <path d="M94,101.4c-0.4,0-0.7-0.3-0.7-0.7c0-0.4,0.3-0.7,0.7-0.7c0.2,0,0.4,0.1,0.5,0.2c0.3,0.3,0.3,0.7,0,1c0,0,0,0,0,0l0,0
            C94.4,101.3,94.2,101.4,94,101.4L94,101.4z M95.7,99.7c-0.4,0-0.7-0.3-0.7-0.7c0-0.2,0.1-0.4,0.2-0.5c0.3-0.3,0.8-0.3,1,0
            c0.3,0.3,0.3,0.7,0,1c0,0,0,0,0,0l0,0C96.1,99.6,95.9,99.7,95.7,99.7L95.7,99.7z M97.4,98c-0.4,0-0.7-0.3-0.7-0.7
            c0-0.2,0.1-0.4,0.2-0.5c0.3-0.3,0.8-0.3,1,0c0.3,0.3,0.3,0.7,0,1c0,0,0,0,0,0l0,0C97.7,98,97.6,98,97.4,98L97.4,98z M99,96.4
            c-0.4,0-0.7-0.3-0.7-0.7c0-0.2,0.1-0.4,0.2-0.5c0.3-0.3,0.8-0.3,1,0c0.3,0.3,0.3,0.7,0,1c0,0,0,0,0,0l0,0
            C99.4,96.3,99.2,96.4,99,96.4L99,96.4z M100.7,94.7c-0.4,0-0.7-0.3-0.7-0.7c0-0.2,0.1-0.4,0.2-0.5c0.3-0.3,0.7-0.3,1,0
            c0.3,0.3,0.3,0.7,0,1c0,0,0,0,0,0l0,0C101.1,94.6,100.9,94.7,100.7,94.7L100.7,94.7z M102.4,93c-0.4,0-0.7-0.3-0.7-0.7
            c0-0.2,0.1-0.4,0.2-0.5c0.3-0.3,0.7-0.3,1,0c0.3,0.3,0.3,0.7,0,1c0,0,0,0,0,0l0,0C102.8,92.9,102.6,93,102.4,93L102.4,93z
             M104.1,91.3c-0.4,0-0.7-0.3-0.7-0.7c0-0.2,0.1-0.4,0.2-0.5c0.3-0.3,0.7-0.3,1,0c0.3,0.3,0.3,0.7,0,1c0,0,0,0,0,0l0,0
            C104.4,91.3,104.3,91.3,104.1,91.3L104.1,91.3z M105.7,89.7c-0.4,0-0.7-0.3-0.7-0.7c0-0.2,0.1-0.4,0.2-0.5c0.3-0.3,0.7-0.3,1,0
            c0.3,0.3,0.3,0.7,0,1c0,0,0,0,0,0l0,0C106.1,89.6,105.9,89.7,105.7,89.7L105.7,89.7z M107.4,88c-0.4,0-0.7-0.3-0.7-0.7
            c0-0.2,0.1-0.4,0.2-0.5c0.3-0.3,0.7-0.3,1,0c0.3,0.3,0.3,0.7,0,1c0,0,0,0,0,0l0,0C107.8,87.9,107.6,88,107.4,88z M109.1,86.3
            c-0.4,0-0.7-0.3-0.7-0.7c0-0.2,0.1-0.4,0.2-0.5c0.3-0.3,0.7-0.3,1,0c0.3,0.3,0.3,0.7,0,1c0,0,0,0,0,0l0,0
            C109.5,86.2,109.3,86.3,109.1,86.3L109.1,86.3z M110.7,84.7c-0.4,0-0.7-0.3-0.7-0.7c0-0.2,0.1-0.4,0.2-0.5c0.3-0.3,0.7-0.3,1,0
            c0.3,0.3,0.3,0.7,0,1c0,0,0,0,0,0l0,0C111.1,84.6,110.9,84.7,110.7,84.7L110.7,84.7z M112.4,83c-0.4,0-0.7-0.3-0.7-0.7
            c0-0.2,0.1-0.4,0.2-0.5c0.3-0.3,0.8-0.3,1,0c0.3,0.3,0.3,0.7,0,1c0,0,0,0,0,0l0,0C112.8,82.9,112.6,83,112.4,83L112.4,83z
             M114.1,81.3c-0.4,0-0.7-0.3-0.7-0.7c0-0.4,0.3-0.7,0.7-0.7c0.2,0,0.4,0.1,0.5,0.2c0.3,0.3,0.3,0.7,0,1c0,0,0,0,0,0l0,0
            C114.5,81.2,114.3,81.3,114.1,81.3L114.1,81.3z"/>
        <path d="M94.2,104.9c-0.4,0-0.7-0.3-0.7-0.7c0-0.2,0.1-0.4,0.2-0.5c0.3-0.3,0.8-0.3,1,0c0.3,0.3,0.3,0.7,0,1c0,0,0,0,0,0l0,0
            C94.5,104.8,94.4,104.9,94.2,104.9L94.2,104.9z M95.8,103.2c-0.4,0-0.7-0.3-0.7-0.7c0-0.2,0.1-0.4,0.2-0.5c0.3-0.3,0.8-0.3,1,0
            c0.3,0.3,0.3,0.7,0,1c0,0,0,0,0,0l0,0C96.2,103.2,96,103.2,95.8,103.2L95.8,103.2z M97.5,101.6c-0.4,0-0.7-0.3-0.7-0.7
            c0-0.4,0.3-0.7,0.7-0.7c0.2,0,0.4,0.1,0.5,0.2c0.3,0.3,0.3,0.7,0,1c0,0,0,0,0,0l0,0C97.9,101.5,97.7,101.6,97.5,101.6L97.5,101.6z
             M99.2,99.9c-0.4,0-0.7-0.3-0.7-0.7c0-0.2,0.1-0.4,0.2-0.5c0.3-0.3,0.8-0.3,1,0c0.3,0.3,0.3,0.7,0,1c0,0,0,0,0,0l0,0
            C99.6,99.8,99.4,99.9,99.2,99.9L99.2,99.9z M100.9,98.2c-0.4,0-0.7-0.3-0.7-0.7c0-0.2,0.1-0.4,0.2-0.5c0.3-0.3,0.8-0.3,1,0
            c0.3,0.3,0.3,0.7,0,1c0,0,0,0,0,0l0,0C101.2,98.1,101,98.2,100.9,98.2L100.9,98.2z M102.5,96.5c-0.4,0-0.7-0.3-0.7-0.7
            c0-0.2,0.1-0.4,0.2-0.5c0.3-0.3,0.8-0.3,1,0c0.3,0.3,0.3,0.7,0,1c0,0,0,0,0,0l0,0C102.9,96.5,102.7,96.5,102.5,96.5L102.5,96.5z
             M104.2,94.9c-0.4,0-0.7-0.3-0.7-0.7c0-0.2,0.1-0.4,0.2-0.5c0.3-0.3,0.8-0.3,1,0c0.3,0.3,0.3,0.7,0,1c0,0,0,0,0,0l0,0
            C104.6,94.8,104.4,94.9,104.2,94.9L104.2,94.9z M105.9,93.2c-0.4,0-0.7-0.3-0.7-0.7c0-0.2,0.1-0.4,0.2-0.5c0.3-0.3,0.8-0.3,1,0
            c0.3,0.3,0.3,0.7,0,1c0,0,0,0,0,0l0,0C106.2,93.1,106.1,93.2,105.9,93.2L105.9,93.2z M107.5,91.5c-0.4,0-0.7-0.3-0.7-0.7
            c0-0.2,0.1-0.4,0.2-0.5c0.3-0.3,0.8-0.3,1,0c0.3,0.3,0.3,0.7,0,1c0,0,0,0,0,0l0,0C107.9,91.5,107.7,91.5,107.5,91.5L107.5,91.5z
             M109.2,89.9c-0.4,0-0.7-0.3-0.7-0.7c0-0.2,0.1-0.4,0.2-0.5c0.3-0.3,0.8-0.3,1,0c0.3,0.3,0.3,0.7,0,1c0,0,0,0,0,0l0,0
            C109.6,89.8,109.4,89.9,109.2,89.9L109.2,89.9z M110.9,88.2c-0.4,0-0.7-0.3-0.7-0.7c0-0.2,0.1-0.4,0.2-0.5c0.3-0.3,0.8-0.3,1,0
            c0.3,0.3,0.3,0.7,0,1c0,0,0,0,0,0l0,0C111.3,88.1,111.1,88.2,110.9,88.2L110.9,88.2z M112.6,86.5c-0.4,0-0.7-0.3-0.7-0.7
            c0-0.2,0.1-0.4,0.2-0.5c0.3-0.3,0.8-0.3,1,0c0.3,0.3,0.3,0.7,0,1c0,0,0,0,0,0l0,0C112.9,86.4,112.7,86.5,112.6,86.5L112.6,86.5z
             M114.2,84.8c-0.4,0-0.7-0.3-0.7-0.7c0-0.2,0.1-0.4,0.2-0.5c0.3-0.3,0.8-0.3,1,0c0.3,0.3,0.3,0.7,0,1c0,0,0,0,0,0l0,0
            C114.6,84.8,114.4,84.8,114.2,84.8L114.2,84.8z M115.9,83.2c-0.4,0-0.7-0.3-0.7-0.7c0-0.2,0.1-0.4,0.2-0.5c0.3-0.3,0.8-0.3,1,0
            c0.3,0.3,0.3,0.7,0,1c0,0,0,0,0,0l0,0C116.3,83.1,116.1,83.2,115.9,83.2L115.9,83.2z M117.6,81.5c-0.4,0-0.7-0.3-0.7-0.7
            c0-0.2,0.1-0.4,0.2-0.5c0.3-0.3,0.8-0.3,1,0c0.3,0.3,0.3,0.7,0,1c0,0,0,0,0,0l0,0C118,81.4,117.8,81.5,117.6,81.5L117.6,81.5z"/>
        <path d="M94.3,108.4c-0.4,0-0.7-0.3-0.7-0.7c0-0.2,0.1-0.4,0.2-0.5c0.3-0.3,0.8-0.3,1,0c0.3,0.3,0.3,0.7,0,1c0,0,0,0,0,0l0,0
            C94.7,108.4,94.5,108.4,94.3,108.4L94.3,108.4z M96,106.8c-0.4,0-0.7-0.3-0.7-0.7c0-0.2,0.1-0.4,0.2-0.5c0.3-0.3,0.8-0.3,1,0
            c0.3,0.3,0.3,0.7,0,1c0,0,0,0,0,0l0,0C96.3,106.7,96.2,106.8,96,106.8L96,106.8z M97.7,105.1c-0.4,0-0.7-0.3-0.7-0.7
            c0-0.2,0.1-0.4,0.2-0.5c0.3-0.3,0.8-0.3,1,0c0.3,0.3,0.3,0.7,0,1c0,0,0,0,0,0l0,0C98,105,97.8,105.1,97.7,105.1L97.7,105.1z
             M99.3,103.4c-0.4,0-0.7-0.3-0.7-0.7c0-0.2,0.1-0.4,0.2-0.5c0.3-0.3,0.8-0.3,1,0c0.3,0.3,0.3,0.7,0,1c0,0,0,0,0,0l0,0
            C99.7,103.3,99.5,103.4,99.3,103.4L99.3,103.4z M101,101.7c-0.4,0-0.7-0.3-0.7-0.7c0-0.2,0.1-0.4,0.2-0.5c0.3-0.3,0.8-0.3,1,0
            c0.3,0.3,0.3,0.7,0,1c0,0,0,0,0,0l0,0C101.4,101.7,101.2,101.7,101,101.7L101,101.7z M102.7,100.1c-0.4,0-0.7-0.3-0.7-0.7
            c0-0.2,0.1-0.4,0.2-0.5c0.3-0.3,0.7-0.3,1,0c0.3,0.3,0.3,0.7,0,1c0,0,0,0,0,0l0,0C103.1,100,102.9,100.1,102.7,100.1L102.7,100.1z
             M104.3,98.4c-0.4,0-0.7-0.3-0.7-0.7c0-0.2,0.1-0.4,0.2-0.5c0.3-0.3,0.7-0.3,1,0c0.3,0.3,0.3,0.7,0,1c0,0,0,0,0,0l0,0
            C104.7,98.3,104.5,98.4,104.3,98.4L104.3,98.4z M106,96.7c-0.4,0-0.7-0.3-0.7-0.7c0-0.2,0.1-0.4,0.2-0.5c0.3-0.3,0.7-0.3,1,0
            c0.3,0.3,0.3,0.7,0,1c0,0,0,0,0,0l0,0C106.4,96.6,106.2,96.7,106,96.7L106,96.7z M107.7,95c-0.4,0-0.7-0.3-0.7-0.7
            c0-0.2,0.1-0.4,0.2-0.5c0.3-0.3,0.7-0.3,1,0c0.3,0.3,0.3,0.7,0,1c0,0,0,0,0,0l0,0C108.1,95,107.9,95,107.7,95L107.7,95z
             M109.4,93.4c-0.4,0-0.7-0.3-0.7-0.7c0-0.2,0.1-0.4,0.2-0.5c0.3-0.3,0.7-0.3,1,0c0.3,0.3,0.3,0.7,0,1c0,0,0,0,0,0l0,0
            C109.8,93.3,109.6,93.4,109.4,93.4L109.4,93.4z M111,91.7c-0.4,0-0.7-0.3-0.7-0.7c0-0.2,0.1-0.4,0.2-0.5c0.3-0.3,0.7-0.3,1,0
            c0.3,0.3,0.3,0.7,0,1c0,0,0,0,0,0l0,0C111.4,91.6,111.2,91.7,111,91.7z M112.7,90c-0.4,0-0.7-0.3-0.7-0.7c0-0.2,0.1-0.4,0.2-0.5
            c0.3-0.3,0.7-0.3,1,0c0.3,0.3,0.3,0.7,0,1c0,0,0,0,0,0l0,0C113.1,89.9,112.9,90,112.7,90L112.7,90z M114.4,88.4
            c-0.4,0-0.7-0.3-0.7-0.7c0-0.2,0.1-0.4,0.2-0.5c0.3-0.3,0.7-0.3,1,0c0.3,0.3,0.3,0.7,0,1c0,0,0,0,0,0l0,0
            C114.8,88.3,114.6,88.4,114.4,88.4L114.4,88.4z M116,86.7c-0.4,0-0.7-0.3-0.7-0.7c0-0.4,0.3-0.7,0.7-0.7c0.2,0,0.4,0.1,0.5,0.2
            c0.3,0.3,0.3,0.7,0,1c0,0,0,0,0,0l0,0C116.4,86.6,116.2,86.7,116,86.7L116,86.7z M117.7,85c-0.4,0-0.7-0.3-0.7-0.7
            c0-0.4,0.3-0.7,0.7-0.7c0.2,0,0.4,0.1,0.5,0.2c0.3,0.3,0.3,0.7,0,1c0,0,0,0,0,0l0,0C118.1,84.9,117.9,85,117.7,85L117.7,85z
             M119.4,83.3c-0.4,0-0.7-0.3-0.7-0.7c0-0.2,0.1-0.4,0.2-0.5c0.3-0.3,0.7-0.3,1,0c0.3,0.3,0.3,0.7,0,1c0,0,0,0,0,0l0,0
            C119.8,83.3,119.6,83.3,119.4,83.3L119.4,83.3z M121.1,81.7c-0.4,0-0.7-0.3-0.7-0.7c0-0.2,0.1-0.4,0.2-0.5c0.3-0.3,0.7-0.3,1,0
            c0.3,0.3,0.3,0.7,0,1c0,0,0,0,0,0l0,0C121.5,81.6,121.3,81.7,121.1,81.7L121.1,81.7z"/>
        <path d="M96.1,110.3c-0.4,0-0.7-0.3-0.7-0.7c0-0.4,0.3-0.7,0.7-0.7c0.2,0,0.4,0.1,0.5,0.2c0.3,0.3,0.3,0.7,0,1c0,0,0,0,0,0l0,0
            C96.5,110.2,96.3,110.3,96.1,110.3L96.1,110.3z M97.8,108.6c-0.4,0-0.7-0.3-0.7-0.7c0-0.2,0.1-0.4,0.2-0.5c0.3-0.3,0.8-0.3,1,0
            c0.3,0.3,0.3,0.7,0,1c0,0,0,0,0,0l0,0C98.2,108.5,98,108.6,97.8,108.6L97.8,108.6z M99.5,106.9c-0.4,0-0.7-0.3-0.7-0.7
            c0-0.2,0.1-0.4,0.2-0.5c0.3-0.3,0.8-0.3,1,0c0.3,0.3,0.3,0.7,0,1c0,0,0,0,0,0l0,0C99.8,106.9,99.6,106.9,99.5,106.9L99.5,106.9z
             M101.1,105.3c-0.4,0-0.7-0.3-0.7-0.7c0-0.2,0.1-0.4,0.2-0.5c0.3-0.3,0.8-0.3,1,0c0.3,0.3,0.3,0.7,0,1c0,0,0,0,0,0l0,0
            C101.5,105.2,101.3,105.3,101.1,105.3L101.1,105.3z M102.8,103.6c-0.4,0-0.7-0.3-0.7-0.7c0-0.2,0.1-0.4,0.2-0.5
            c0.3-0.3,0.8-0.3,1,0c0.3,0.3,0.3,0.7,0,1c0,0,0,0,0,0l0,0C103.2,103.5,103,103.6,102.8,103.6L102.8,103.6z M104.5,101.9
            c-0.4,0-0.7-0.3-0.7-0.7c0-0.2,0.1-0.4,0.2-0.5c0.3-0.3,0.8-0.3,1,0c0.3,0.3,0.3,0.7,0,1c0,0,0,0,0,0l0,0
            C104.8,101.8,104.7,101.9,104.5,101.9L104.5,101.9z M106.2,100.2c-0.4,0-0.7-0.3-0.7-0.7c0-0.2,0.1-0.4,0.2-0.5
            c0.3-0.3,0.8-0.3,1,0c0.3,0.3,0.3,0.7,0,1c0,0,0,0,0,0l0,0C106.5,100.2,106.3,100.2,106.2,100.2L106.2,100.2z M107.8,98.6
            c-0.4,0-0.7-0.3-0.7-0.7c0-0.2,0.1-0.4,0.2-0.5c0.3-0.3,0.8-0.3,1,0c0.3,0.3,0.3,0.7,0,1c0,0,0,0,0,0l0,0
            C108.2,98.5,108,98.6,107.8,98.6L107.8,98.6z M109.5,96.9c-0.4,0-0.7-0.3-0.7-0.7c0-0.2,0.1-0.4,0.2-0.5c0.3-0.3,0.8-0.3,1,0
            c0.3,0.3,0.3,0.7,0,1c0,0,0,0,0,0l0,0C109.9,96.8,109.7,96.9,109.5,96.9z M111.2,95.2c-0.4,0-0.7-0.3-0.7-0.7
            c0-0.2,0.1-0.4,0.2-0.5c0.3-0.3,0.8-0.3,1,0c0.3,0.3,0.3,0.7,0,1c0,0,0,0,0,0l0,0C111.5,95.2,111.4,95.2,111.2,95.2L111.2,95.2z
             M112.8,93.6c-0.4,0-0.7-0.3-0.7-0.7c0-0.2,0.1-0.4,0.2-0.5c0.3-0.3,0.8-0.3,1,0c0.3,0.3,0.3,0.7,0,1c0,0,0,0,0,0l0,0
            C113.2,93.5,113,93.6,112.8,93.6L112.8,93.6z M114.5,91.9c-0.4,0-0.7-0.3-0.7-0.7c0-0.2,0.1-0.4,0.2-0.5c0.3-0.3,0.8-0.3,1,0
            c0.3,0.3,0.3,0.7,0,1c0,0,0,0,0,0l0,0C114.9,91.8,114.7,91.9,114.5,91.9L114.5,91.9z M116.2,90.2c-0.4,0-0.7-0.3-0.7-0.7
            c0-0.2,0.1-0.4,0.2-0.5c0.3-0.3,0.8-0.3,1,0c0.3,0.3,0.3,0.7,0,1c0,0,0,0,0,0l0,0C116.6,90.1,116.4,90.2,116.2,90.2L116.2,90.2z
             M117.9,88.5c-0.4,0-0.7-0.3-0.7-0.7c0-0.2,0.1-0.4,0.2-0.5c0.3-0.3,0.8-0.3,1,0c0.3,0.3,0.3,0.7,0,1c0,0,0,0,0,0l0,0
            C118.2,88.5,118.1,88.5,117.9,88.5L117.9,88.5z M119.5,86.9c-0.4,0-0.7-0.3-0.7-0.7c0-0.2,0.1-0.4,0.2-0.5c0.3-0.3,0.8-0.3,1,0
            c0.3,0.3,0.3,0.7,0,1c0,0,0,0,0,0l0,0C119.9,86.8,119.7,86.9,119.5,86.9L119.5,86.9z M121.2,85.2c-0.4,0-0.7-0.3-0.7-0.7
            c0-0.2,0.1-0.4,0.2-0.5c0.3-0.3,0.8-0.3,1,0c0.3,0.3,0.3,0.7,0,1c0,0,0,0,0,0l0,0C121.6,85.1,121.4,85.2,121.2,85.2L121.2,85.2z
             M122.9,83.5c-0.4,0-0.7-0.3-0.7-0.7c0-0.2,0.1-0.4,0.2-0.5c0.3-0.3,0.7-0.3,1,0c0.3,0.3,0.3,0.7,0,1c0,0,0,0,0,0l0,0
            C123.3,83.4,123.1,83.5,122.9,83.5L122.9,83.5z M124.6,81.8c-0.4,0-0.7-0.3-0.7-0.7c0-0.2,0.1-0.4,0.2-0.5c0.3-0.3,0.7-0.3,1,0
            c0.3,0.3,0.3,0.7,0,1c0,0,0,0,0,0l0,0C124.9,81.8,124.8,81.8,124.6,81.8L124.6,81.8z"/>
        <path d="M96.3,113.8c-0.4,0-0.7-0.3-0.7-0.7c0-0.2,0.1-0.4,0.2-0.5c0.3-0.3,0.8-0.3,1,0c0.3,0.3,0.3,0.7,0,1c0,0,0,0,0,0l0,0
            C96.6,113.7,96.4,113.8,96.3,113.8L96.3,113.8z M97.9,112.1c-0.4,0-0.7-0.3-0.7-0.7c0-0.2,0.1-0.4,0.2-0.5c0.3-0.3,0.8-0.3,1,0
            c0.3,0.3,0.3,0.7,0,1c0,0,0,0,0,0l0,0C98.3,112.1,98.1,112.1,97.9,112.1L97.9,112.1z M99.6,110.5c-0.4,0-0.7-0.3-0.7-0.7
            c0-0.2,0.1-0.4,0.2-0.5c0.3-0.3,0.8-0.3,1,0c0.3,0.3,0.3,0.7,0,1c0,0,0,0,0,0l0,0C100,110.4,99.8,110.5,99.6,110.5L99.6,110.5z
             M101.3,108.8c-0.4,0-0.7-0.3-0.7-0.7c0-0.2,0.1-0.4,0.2-0.5c0.3-0.3,0.8-0.3,1,0c0.3,0.3,0.3,0.7,0,1c0,0,0,0,0,0l0,0
            C101.6,108.7,101.5,108.8,101.3,108.8L101.3,108.8z M102.9,107.1c-0.4,0-0.7-0.3-0.7-0.7c0-0.2,0.1-0.4,0.2-0.5
            c0.3-0.3,0.8-0.3,1,0c0.3,0.3,0.3,0.7,0,1c0,0,0,0,0,0l0,0C103.3,107.1,103.1,107.1,102.9,107.1L102.9,107.1z M104.6,105.4
            c-0.4,0-0.7-0.3-0.7-0.7c0-0.2,0.1-0.4,0.2-0.5c0.3-0.3,0.8-0.3,1,0c0.3,0.3,0.3,0.7,0,1c0,0,0,0,0,0l0,0
            C105,105.4,104.8,105.4,104.6,105.4L104.6,105.4z M106.3,103.8c-0.4,0-0.7-0.3-0.7-0.7c0-0.2,0.1-0.4,0.2-0.5c0.3-0.3,0.8-0.3,1,0
            c0.3,0.3,0.3,0.7,0,1c0,0,0,0,0,0l0,0C106.7,103.7,106.5,103.8,106.3,103.8L106.3,103.8z M108,102.1c-0.4,0-0.7-0.3-0.7-0.7
            s0.3-0.7,0.7-0.7c0.2,0,0.4,0.1,0.5,0.2c0.3,0.3,0.3,0.7,0,1c0,0,0,0,0,0l0,0C108.3,102,108.2,102.1,108,102.1L108,102.1z
             M109.6,100.4c-0.4,0-0.7-0.3-0.7-0.7c0-0.2,0.1-0.4,0.2-0.5c0.3-0.3,0.7-0.3,1,0c0.3,0.3,0.3,0.7,0,1c0,0,0,0,0,0l0,0
            C110,100.3,109.8,100.4,109.6,100.4L109.6,100.4z M111.3,98.8c-0.4,0-0.7-0.3-0.7-0.7c0-0.2,0.1-0.4,0.2-0.5c0.3-0.3,0.7-0.3,1,0
            c0.3,0.3,0.3,0.7,0,1c0,0,0,0,0,0l0,0C111.7,98.7,111.5,98.8,111.3,98.8L111.3,98.8z M113,97.1c-0.4,0-0.7-0.3-0.7-0.7
            c0-0.2,0.1-0.4,0.2-0.5c0.3-0.3,0.7-0.3,1,0c0.3,0.3,0.3,0.7,0,1c0,0,0,0,0,0l0,0C113.4,97,113.2,97.1,113,97.1L113,97.1z
             M114.7,95.4c-0.4,0-0.7-0.3-0.7-0.7c0-0.2,0.1-0.4,0.2-0.5c0.3-0.3,0.7-0.3,1,0c0.3,0.3,0.3,0.7,0,1c0,0,0,0,0,0l0,0
            C115,95.3,114.9,95.4,114.7,95.4L114.7,95.4z M116.3,93.7c-0.4,0-0.7-0.3-0.7-0.7c0-0.2,0.1-0.4,0.2-0.5c0.3-0.3,0.7-0.3,1,0
            c0.3,0.3,0.3,0.7,0,1c0,0,0,0,0,0l0,0C116.7,93.7,116.5,93.7,116.3,93.7L116.3,93.7z M118,92.1c-0.4,0-0.7-0.3-0.7-0.7
            c0-0.2,0.1-0.4,0.2-0.5c0.3-0.3,0.7-0.3,1,0c0.3,0.3,0.3,0.7,0,1c0,0,0,0,0,0l0,0C118.4,92,118.2,92.1,118,92.1z M119.7,90.4
            c-0.4,0-0.7-0.3-0.7-0.7c0-0.2,0.1-0.4,0.2-0.5c0.3-0.3,0.8-0.3,1,0c0.3,0.3,0.3,0.7,0,1c0,0,0,0,0,0l0,0
            C120.1,90.3,119.9,90.4,119.7,90.4L119.7,90.4z M121.3,88.7c-0.4,0-0.7-0.3-0.7-0.7c0-0.4,0.3-0.7,0.7-0.7c0.2,0,0.4,0.1,0.5,0.2
            c0.3,0.3,0.3,0.7,0,1c0,0,0,0,0,0l0,0C121.7,88.6,121.5,88.7,121.3,88.7L121.3,88.7z M123,87c-0.4,0-0.7-0.3-0.7-0.7
            c0-0.2,0.1-0.4,0.2-0.5c0.3-0.3,0.7-0.3,1,0c0.3,0.3,0.3,0.7,0,1c0,0,0,0,0,0l0,0C123.4,87,123.2,87,123,87L123,87z M124.7,85.4
            c-0.4,0-0.7-0.3-0.7-0.7c0-0.2,0.1-0.4,0.2-0.5c0.3-0.3,0.7-0.3,1,0c0.3,0.3,0.3,0.7,0,1c0,0,0,0,0,0l0,0
            C125.1,85.3,124.9,85.4,124.7,85.4L124.7,85.4z M126.4,83.7c-0.4,0-0.7-0.3-0.7-0.7c0-0.2,0.1-0.4,0.2-0.5c0.3-0.3,0.7-0.3,1,0
            c0.3,0.3,0.3,0.7,0,1c0,0,0,0,0,0l0,0C126.8,83.6,126.6,83.7,126.4,83.7L126.4,83.7z"/>
        <path d="M98.1,115.7c-0.4,0-0.7-0.3-0.7-0.7c0-0.2,0.1-0.4,0.2-0.5c0.3-0.3,0.8-0.3,1,0c0.3,0.3,0.3,0.7,0,1c0,0,0,0,0,0l0,0
            C98.4,115.6,98.3,115.7,98.1,115.7L98.1,115.7z M99.7,114c-0.4,0-0.7-0.3-0.7-0.7c0-0.2,0.1-0.4,0.2-0.5c0.3-0.3,0.8-0.3,1,0
            c0.3,0.3,0.3,0.7,0,1c0,0,0,0,0,0l0,0C100.1,113.9,99.9,114,99.7,114L99.7,114z M101.4,112.3c-0.4,0-0.7-0.3-0.7-0.7
            c0-0.2,0.1-0.4,0.2-0.5c0.3-0.3,0.8-0.3,1,0c0.3,0.3,0.3,0.7,0,1c0,0,0,0,0,0l0,0C101.8,112.2,101.6,112.3,101.4,112.3
            L101.4,112.3z M103.1,110.6c-0.4,0-0.7-0.3-0.7-0.7c0-0.4,0.3-0.7,0.7-0.7c0.2,0,0.4,0.1,0.5,0.2c0.3,0.3,0.3,0.7,0,1c0,0,0,0,0,0
            l0,0C103.5,110.6,103.3,110.6,103.1,110.6L103.1,110.6z M104.8,109c-0.4,0-0.7-0.3-0.7-0.7c0-0.4,0.3-0.7,0.7-0.7
            c0.2,0,0.4,0.1,0.5,0.2c0.3,0.3,0.3,0.7,0,1c0,0,0,0,0,0l0,0C105.1,108.9,105,109,104.8,109L104.8,109z M106.4,107.3
            c-0.4,0-0.7-0.3-0.7-0.7c0-0.2,0.1-0.4,0.2-0.5c0.3-0.3,0.8-0.3,1,0c0.3,0.3,0.3,0.7,0,1c0,0,0,0,0,0l0,0
            C106.8,107.2,106.6,107.3,106.4,107.3L106.4,107.3z M108.1,105.6c-0.4,0-0.7-0.3-0.7-0.7c0-0.4,0.3-0.7,0.7-0.7
            c0.2,0,0.4,0.1,0.5,0.2c0.3,0.3,0.3,0.7,0,1c0,0,0,0,0,0l0,0C108.5,105.5,108.3,105.6,108.1,105.6L108.1,105.6z M109.8,104
            c-0.4,0-0.7-0.3-0.7-0.7c0-0.4,0.3-0.7,0.7-0.7c0.2,0,0.4,0.1,0.5,0.2c0.3,0.3,0.3,0.7,0,1c0,0,0,0,0,0l0,0
            C110.2,103.9,110,104,109.8,104L109.8,104z M111.5,102.3c-0.4,0-0.7-0.3-0.7-0.7c0-0.2,0.1-0.4,0.2-0.5c0.3-0.3,0.8-0.3,1,0
            c0.3,0.3,0.3,0.7,0,1c0,0,0,0,0,0l0,0C111.8,102.2,111.6,102.3,111.5,102.3L111.5,102.3z M113.1,100.6c-0.4,0-0.7-0.3-0.7-0.7
            c0-0.2,0.1-0.4,0.2-0.5c0.3-0.3,0.8-0.3,1,0c0.3,0.3,0.3,0.7,0,1c0,0,0,0,0,0l0,0C113.5,100.5,113.3,100.6,113.1,100.6
            L113.1,100.6z M114.8,98.9c-0.4,0-0.7-0.3-0.7-0.7c0-0.2,0.1-0.4,0.2-0.5c0.3-0.3,0.8-0.3,1,0c0.3,0.3,0.3,0.7,0,1c0,0,0,0,0,0
            l0,0C115.2,98.9,115,98.9,114.8,98.9L114.8,98.9z M116.5,97.3c-0.4,0-0.7-0.3-0.7-0.7c0-0.2,0.1-0.4,0.2-0.5c0.3-0.3,0.8-0.3,1,0
            c0.3,0.3,0.3,0.7,0,1c0,0,0,0,0,0l0,0C116.8,97.2,116.7,97.3,116.5,97.3L116.5,97.3z M118.1,95.6c-0.4,0-0.7-0.3-0.7-0.7
            c0-0.2,0.1-0.4,0.2-0.5c0.3-0.3,0.8-0.3,1,0c0.3,0.3,0.3,0.7,0,1c0,0,0,0,0,0l0,0C118.5,95.5,118.3,95.6,118.1,95.6L118.1,95.6z
             M119.8,93.9c-0.4,0-0.7-0.3-0.7-0.7c0-0.2,0.1-0.4,0.2-0.5c0.3-0.3,0.8-0.3,1,0c0.3,0.3,0.3,0.7,0,1c0,0,0,0,0,0l0,0
            C120.2,93.8,120,93.9,119.8,93.9L119.8,93.9z M121.5,92.2c-0.4,0-0.7-0.3-0.7-0.7c0-0.2,0.1-0.4,0.2-0.5c0.3-0.3,0.8-0.3,1,0
            c0.3,0.3,0.3,0.7,0,1c0,0,0,0,0,0l0,0C121.9,92.2,121.7,92.2,121.5,92.2L121.5,92.2z M123.2,90.6c-0.4,0-0.7-0.3-0.7-0.7
            c0-0.2,0.1-0.4,0.2-0.5c0.3-0.3,0.8-0.3,1,0c0.3,0.3,0.3,0.7,0,1c0,0,0,0,0,0l0,0C123.5,90.5,123.4,90.6,123.2,90.6L123.2,90.6z
             M124.8,88.9c-0.4,0-0.7-0.3-0.7-0.7c0-0.2,0.1-0.4,0.2-0.5c0.3-0.3,0.8-0.3,1,0c0.3,0.3,0.3,0.7,0,1c0,0,0,0,0,0l0,0
            C125.2,88.8,125,88.9,124.8,88.9L124.8,88.9z M126.5,87.2c-0.4,0-0.7-0.3-0.7-0.7c0-0.2,0.1-0.4,0.2-0.5c0.3-0.3,0.7-0.3,1,0
            c0.3,0.3,0.3,0.7,0,1c0,0,0,0,0,0l0,0C126.9,87.1,126.7,87.2,126.5,87.2L126.5,87.2z M128.2,85.5c-0.4,0-0.7-0.3-0.7-0.7
            c0-0.2,0.1-0.4,0.2-0.5c0.3-0.3,0.7-0.3,1,0c0.3,0.3,0.3,0.7,0,1c0,0,0,0,0,0l0,0C128.6,85.5,128.4,85.6,128.2,85.5L128.2,85.5z
             M129.9,83.9c-0.4,0-0.7-0.3-0.7-0.7c0-0.2,0.1-0.4,0.2-0.5c0.3-0.3,0.7-0.3,1,0c0.3,0.3,0.3,0.7,0,1c0,0,0,0,0,0l0,0
            C130.2,83.8,130.1,83.9,129.9,83.9L129.9,83.9z"/>
        <path d="M99.9,117.5c-0.4,0-0.7-0.3-0.7-0.7c0-0.2,0.1-0.4,0.2-0.5c0.3-0.3,0.8-0.3,1,0c0.3,0.3,0.3,0.7,0,1c0,0,0,0,0,0l0,0
            C100.3,117.4,100.1,117.5,99.9,117.5L99.9,117.5z M101.6,115.8c-0.4,0-0.7-0.3-0.7-0.7c0-0.2,0.1-0.4,0.2-0.5c0.3-0.3,0.8-0.3,1,0
            c0.3,0.3,0.3,0.7,0,1c0,0,0,0,0,0l0,0C101.9,115.8,101.7,115.8,101.6,115.8L101.6,115.8z M103.2,114.2c-0.4,0-0.7-0.3-0.7-0.7
            c0-0.2,0.1-0.4,0.2-0.5c0.3-0.3,0.8-0.3,1,0c0.3,0.3,0.3,0.7,0,1c0,0,0,0,0,0l0,0C103.6,114.1,103.4,114.2,103.2,114.2
            L103.2,114.2z M104.9,112.5c-0.4,0-0.7-0.3-0.7-0.7c0-0.2,0.1-0.4,0.2-0.5c0.3-0.3,0.8-0.3,1,0c0.3,0.3,0.3,0.7,0,1c0,0,0,0,0,0
            l0,0C105.3,112.4,105.1,112.5,104.9,112.5z M106.6,110.8c-0.4,0-0.7-0.3-0.7-0.7c0-0.2,0.1-0.4,0.2-0.5c0.3-0.3,0.8-0.3,1,0
            c0.3,0.3,0.3,0.7,0,1c0,0,0,0,0,0l0,0C107,110.8,106.8,110.8,106.6,110.8L106.6,110.8z M108.2,109.2c-0.4,0-0.7-0.3-0.7-0.7
            c0-0.2,0.1-0.4,0.2-0.5c0.3-0.3,0.8-0.3,1,0c0.3,0.3,0.3,0.7,0,1c0,0,0,0,0,0l0,0C108.6,109.1,108.4,109.2,108.2,109.2
            L108.2,109.2z M109.9,107.5c-0.4,0-0.7-0.3-0.7-0.7c0-0.2,0.1-0.4,0.2-0.5c0.3-0.3,0.8-0.3,1,0c0.3,0.3,0.3,0.7,0,1c0,0,0,0,0,0
            l0,0C110.3,107.4,110.1,107.5,109.9,107.5L109.9,107.5z M111.6,105.8c-0.4,0-0.7-0.3-0.7-0.7c0-0.2,0.1-0.4,0.2-0.5
            c0.3-0.3,0.8-0.3,1,0c0.3,0.3,0.3,0.7,0,1c0,0,0,0,0,0l0,0C112,105.7,111.8,105.8,111.6,105.8L111.6,105.8z M113.3,104.1
            c-0.4,0-0.7-0.3-0.7-0.7c0-0.2,0.1-0.4,0.2-0.5c0.3-0.3,0.8-0.3,1,0c0.3,0.3,0.3,0.7,0,1c0,0,0,0,0,0l0,0
            C113.6,104.1,113.4,104.1,113.3,104.1L113.3,104.1z M114.9,102.5c-0.4,0-0.7-0.3-0.7-0.7c0-0.2,0.1-0.4,0.2-0.5
            c0.3-0.3,0.8-0.3,1,0c0.3,0.3,0.3,0.7,0,1c0,0,0,0,0,0l0,0C115.3,102.4,115.1,102.5,114.9,102.5L114.9,102.5z M116.6,100.8
            c-0.4,0-0.7-0.3-0.7-0.7c0-0.2,0.1-0.4,0.2-0.5c0.3-0.3,0.8-0.3,1,0c0.3,0.3,0.3,0.7,0,1c0,0,0,0,0,0l0,0
            C117,100.7,116.8,100.8,116.6,100.8L116.6,100.8z M118.3,99.1c-0.4,0-0.7-0.3-0.7-0.7c0-0.2,0.1-0.4,0.2-0.5c0.3-0.3,0.8-0.3,1,0
            c0.3,0.3,0.3,0.7,0,1c0,0,0,0,0,0l0,0C118.7,99,118.5,99.1,118.3,99.1L118.3,99.1z M120,97.4c-0.4,0-0.7-0.3-0.7-0.7
            c0-0.2,0.1-0.4,0.2-0.5c0.3-0.3,0.7-0.3,1,0c0.3,0.3,0.3,0.7,0,1c0,0,0,0,0,0l0,0C120.3,97.4,120.2,97.4,120,97.4L120,97.4z
             M121.6,95.8c-0.4,0-0.7-0.3-0.7-0.7c0-0.4,0.3-0.7,0.7-0.7c0.2,0,0.4,0.1,0.5,0.2c0.3,0.3,0.3,0.7,0,1c0,0,0,0,0,0l0,0
            C122,95.7,121.8,95.8,121.6,95.8L121.6,95.8z M123.3,94.1c-0.4,0-0.7-0.3-0.7-0.7c0-0.2,0.1-0.4,0.2-0.5c0.3-0.3,0.8-0.3,1,0
            c0.3,0.3,0.3,0.7,0,1c0,0,0,0,0,0l0,0C123.7,94,123.5,94.1,123.3,94.1z M125,92.4c-0.4,0-0.7-0.3-0.7-0.7c0-0.2,0.1-0.4,0.2-0.5
            c0.3-0.3,0.8-0.3,1,0c0.3,0.3,0.3,0.7,0,1c0,0,0,0,0,0l0,0C125.4,92.3,125.2,92.4,125,92.4L125,92.4z M126.6,90.8
            c-0.4,0-0.7-0.3-0.7-0.7c0-0.2,0.1-0.4,0.2-0.5c0.3-0.3,0.7-0.3,1,0c0.3,0.3,0.3,0.7,0,1c0,0,0,0,0,0l0,0
            C127,90.7,126.8,90.8,126.6,90.8L126.6,90.8z M128.3,89.1c-0.4,0-0.7-0.3-0.7-0.7c0-0.2,0.1-0.4,0.2-0.5c0.3-0.3,0.7-0.3,1,0
            c0.3,0.3,0.3,0.7,0,1c0,0,0,0,0,0l0,0C128.7,89,128.5,89.1,128.3,89.1L128.3,89.1z M130,87.4c-0.4,0-0.7-0.3-0.7-0.7
            c0-0.2,0.1-0.4,0.2-0.5c0.3-0.3,0.7-0.3,1,0c0.3,0.3,0.3,0.7,0,1c0,0,0,0,0,0l0,0C130.4,87.3,130.2,87.4,130,87.4L130,87.4z
             M131.7,85.7c-0.4,0-0.7-0.3-0.7-0.7c0-0.2,0.1-0.4,0.2-0.5c0.3-0.3,0.7-0.3,1,0c0.3,0.3,0.3,0.7,0,1c0,0,0,0,0,0l0,0
            C132.1,85.7,131.9,85.7,131.7,85.7L131.7,85.7z"/>
    </g>
</g>
<circle class="st1" cx="118" cy="104" r="18"/>
<path d="M118,123c-10.5,0-19-8.5-19-19s8.5-19,19-19s19,8.5,19,19C137,114.5,128.5,123,118,123z M118,87c-9.4,0-17,7.6-17,17
    s7.6,17,17,17s17-7.6,17-17C135,94.6,127.4,87,118,87z"/>
<path class="st1" d="M116.8,90.2c8.2-0.1,14.9,6.4,15,14.6c0,0.1,0,0.1,0,0.2"/>
<path d="M131.8,106c-0.6,0-1-0.4-1-1c0-7.6-6.1-13.7-13.7-13.8c-0.1,0-0.2,0-0.3,0c-0.6,0-1-0.4-1-1s0.4-1,1-1
    c8.7-0.2,15.8,6.7,16,15.4c0,0.1,0,0.2,0,0.3C132.8,105.6,132.3,106,131.8,106z"/>
<g>
    <defs>
        <rect id="SVGID_1_" x="67" y="47" width="63" height="11"/>
    </defs>
    <clipPath id="SVGID_2_">
        <use xlink:href="#SVGID_1_"  style="overflow:visible;"/>
    </clipPath>
    <g class="st3">
        <path d="M127.2,56.4c-0.4,0-0.7-0.3-0.7-0.7c0-0.2,0.1-0.4,0.2-0.5c0.3-0.3,0.7-0.3,1,0c0.3,0.3,0.3,0.7,0,1c0,0,0,0,0,0l0,0
            C127.5,56.4,127.3,56.4,127.2,56.4L127.2,56.4z M128.8,54.8c-0.4,0-0.7-0.3-0.7-0.7c0-0.2,0.1-0.4,0.2-0.5c0.3-0.3,0.7-0.3,1,0
            c0.3,0.3,0.3,0.7,0,1c0,0,0,0,0,0l0,0C129.2,54.7,129,54.8,128.8,54.8L128.8,54.8z"/>
        <path d="M94.6,57.3c-0.4,0-0.7-0.3-0.7-0.7c0-0.2,0.1-0.4,0.2-0.5c0.3-0.3,0.7-0.3,1,0c0.3,0.3,0.3,0.7,0,1c0,0,0,0,0,0l0,0
            C95,57.2,94.8,57.3,94.6,57.3L94.6,57.3z M96.3,55.6c-0.4,0-0.7-0.3-0.7-0.7c0-0.2,0.1-0.4,0.2-0.5c0.3-0.3,0.8-0.3,1,0
            c0.3,0.3,0.3,0.7,0,1c0,0,0,0,0,0l0,0C96.7,55.5,96.5,55.6,96.3,55.6L96.3,55.6z M98,53.9c-0.4,0-0.7-0.3-0.7-0.7
            c0-0.2,0.1-0.4,0.2-0.5c0.3-0.3,0.8-0.3,1,0c0.3,0.3,0.3,0.7,0,1c0,0,0,0,0,0l0,0C98.4,53.9,98.2,53.9,98,53.9z M99.7,52.2
            c-0.4,0-0.7-0.3-0.7-0.7c0-0.2,0.1-0.4,0.2-0.5c0.3-0.3,0.7-0.3,1,0c0.3,0.3,0.3,0.7,0,1c0,0,0,0,0,0l0,0
            C100.1,52.2,99.9,52.2,99.7,52.2L99.7,52.2z M101.4,50.6c-0.4,0-0.7-0.3-0.7-0.7c0-0.2,0.1-0.4,0.2-0.5c0.3-0.3,0.7-0.3,1,0
            c0.3,0.3,0.3,0.7,0,1c0,0,0,0,0,0l0,0C101.8,50.5,101.6,50.6,101.4,50.6L101.4,50.6z M103,48.9c-0.4,0-0.7-0.3-0.7-0.7
            c0-0.2,0.1-0.4,0.2-0.5c0.3-0.3,0.7-0.3,1,0c0.3,0.3,0.3,0.7,0,1c0,0,0,0,0,0l0,0C103.4,48.8,103.2,48.9,103,48.9L103,48.9z"/>
        <path d="M98.3,57.6c-0.4,0-0.7-0.3-0.7-0.7c0-0.2,0.1-0.4,0.2-0.5c0.3-0.3,0.7-0.3,1,0c0.3,0.3,0.3,0.7,0,1c0,0,0,0,0,0l0,0
            C98.7,57.5,98.5,57.6,98.3,57.6L98.3,57.6z M100,55.9c-0.4,0-0.7-0.3-0.7-0.7c0-0.2,0.1-0.4,0.2-0.5c0.3-0.3,0.8-0.3,1,0
            c0.3,0.3,0.3,0.7,0,1c0,0,0,0,0,0l0,0C100.3,55.9,100.2,55.9,100,55.9L100,55.9z M101.6,54.3c-0.4,0-0.7-0.3-0.7-0.7
            c0-0.2,0.1-0.4,0.2-0.5c0.3-0.3,0.8-0.3,1,0c0.3,0.3,0.3,0.7,0,1c0,0,0,0,0,0l0,0C102,54.2,101.8,54.3,101.6,54.3L101.6,54.3z
             M103.3,52.6c-0.4,0-0.7-0.3-0.7-0.7c0-0.2,0.1-0.4,0.2-0.5c0.3-0.3,0.7-0.3,1,0c0.3,0.3,0.3,0.7,0,1c0,0,0,0,0,0l0,0
            C103.7,52.5,103.5,52.6,103.3,52.6L103.3,52.6z M105,50.9c-0.4,0-0.7-0.3-0.7-0.7c0-0.2,0.1-0.4,0.2-0.5c0.3-0.3,0.7-0.3,1,0
            c0.3,0.3,0.3,0.7,0,1c0,0,0,0,0,0l0,0C105.4,50.8,105.2,50.9,105,50.9z M106.7,49.2c-0.4,0-0.7-0.3-0.7-0.7c0-0.4,0.3-0.7,0.7-0.7
            c0.2,0,0.4,0.1,0.5,0.2c0.3,0.3,0.3,0.7,0,1c0,0,0,0,0,0l0,0C107.1,49.1,106.9,49.2,106.7,49.2L106.7,49.2z"/>
        <path d="M101.9,57.9c-0.4,0-0.7-0.3-0.7-0.7c0-0.2,0.1-0.4,0.2-0.5c0.3-0.3,0.8-0.3,1,0c0.3,0.3,0.3,0.7,0,1c0,0,0,0,0,0l0,0
            C102.3,57.9,102.1,57.9,101.9,57.9L101.9,57.9z M103.6,56.3c-0.4,0-0.7-0.3-0.7-0.7c0-0.2,0.1-0.4,0.2-0.5c0.3-0.3,0.8-0.3,1,0
            c0.3,0.3,0.3,0.7,0,1c0,0,0,0,0,0l0,0C104,56.2,103.8,56.3,103.6,56.3L103.6,56.3z M105.3,54.6c-0.4,0-0.7-0.3-0.7-0.7
            c0-0.2,0.1-0.4,0.2-0.5c0.3-0.3,0.7-0.3,1,0c0.3,0.3,0.3,0.7,0,1c0,0,0,0,0,0l0,0C105.7,54.5,105.5,54.6,105.3,54.6L105.3,54.6z
             M107,52.9c-0.4,0-0.7-0.3-0.7-0.7c0-0.2,0.1-0.4,0.2-0.5c0.3-0.3,0.7-0.3,1,0c0.3,0.3,0.3,0.7,0,1c0,0,0,0,0,0l0,0
            C107.4,52.8,107.2,52.9,107,52.9L107,52.9z M108.6,51.2c-0.4,0-0.7-0.3-0.7-0.7c0-0.2,0.1-0.4,0.2-0.5c0.3-0.3,0.8-0.3,1,0
            c0.3,0.3,0.3,0.7,0,1c0,0,0,0,0,0l0,0C109,51.1,108.8,51.2,108.6,51.2L108.6,51.2z M110.3,49.5c-0.4,0-0.7-0.3-0.7-0.7
            c0-0.2,0.1-0.4,0.2-0.5c0.3-0.3,0.8-0.3,1,0c0.3,0.3,0.3,0.7,0,1c0,0,0,0,0,0l0,0C110.7,49.5,110.5,49.5,110.3,49.5L110.3,49.5z"
            />
        <path d="M107.3,56.6c-0.4,0-0.7-0.3-0.7-0.7c0-0.2,0.1-0.4,0.2-0.5c0.3-0.3,0.7-0.3,1,0c0.3,0.3,0.3,0.7,0,1c0,0,0,0,0,0l0,0
            C107.6,56.5,107.5,56.6,107.3,56.6L107.3,56.6z M108.9,54.9c-0.4,0-0.7-0.3-0.7-0.7c0-0.2,0.1-0.4,0.2-0.5c0.3-0.3,0.7-0.3,1,0
            c0.3,0.3,0.3,0.7,0,1c0,0,0,0,0,0l0,0C109.3,54.8,109.1,54.9,108.9,54.9L108.9,54.9z M110.6,53.2c-0.4,0-0.7-0.3-0.7-0.7
            c0-0.2,0.1-0.4,0.2-0.5c0.3-0.3,0.8-0.3,1,0c0.3,0.3,0.3,0.7,0,1c0,0,0,0,0,0l0,0C111,53.2,110.8,53.2,110.6,53.2L110.6,53.2z
             M112.3,51.5c-0.4,0-0.7-0.3-0.7-0.7c0-0.2,0.1-0.4,0.2-0.5c0.3-0.3,0.8-0.3,1,0c0.3,0.3,0.3,0.7,0,1c0,0,0,0,0,0l0,0
            C112.7,51.5,112.5,51.5,112.3,51.5L112.3,51.5z M114,49.9c-0.4,0-0.7-0.3-0.7-0.7c0-0.2,0.1-0.4,0.2-0.5c0.3-0.3,0.8-0.3,1,0
            c0.3,0.3,0.3,0.7,0,1c0,0,0,0,0,0l0,0C114.3,49.8,114.2,49.9,114,49.9L114,49.9z"/>
        <path d="M110.9,56.9c-0.4,0-0.7-0.3-0.7-0.7c0-0.2,0.1-0.4,0.2-0.5c0.3-0.3,0.7-0.3,1,0c0.3,0.3,0.3,0.7,0,1c0,0,0,0,0,0l0,0
            C111.3,56.8,111.1,56.9,110.9,56.9L110.9,56.9z M112.6,55.2c-0.4,0-0.7-0.3-0.7-0.7c0-0.4,0.3-0.7,0.7-0.7c0.2,0,0.4,0.1,0.5,0.2
            c0.3,0.3,0.3,0.7,0,1c0,0,0,0,0,0l0,0C113,55.2,112.8,55.2,112.6,55.2L112.6,55.2z M114.3,53.6c-0.4,0-0.7-0.3-0.7-0.7
            c0-0.2,0.1-0.4,0.2-0.5c0.3-0.3,0.8-0.3,1,0c0.3,0.3,0.3,0.7,0,1c0,0,0,0,0,0l0,0C114.6,53.5,114.4,53.6,114.3,53.6L114.3,53.6z
             M115.9,51.9c-0.4,0-0.7-0.3-0.7-0.7c0-0.2,0.1-0.4,0.2-0.5c0.3-0.3,0.8-0.3,1,0c0.3,0.3,0.3,0.7,0,1c0,0,0,0,0,0l0,0
            C116.3,51.8,116.1,51.9,115.9,51.9L115.9,51.9z M117.6,50.2c-0.4,0-0.7-0.3-0.7-0.7c0-0.2,0.1-0.4,0.2-0.5c0.3-0.3,0.7-0.3,1,0
            c0.3,0.3,0.3,0.7,0,1c0,0,0,0,0,0l0,0C118,50.1,117.8,50.2,117.6,50.2L117.6,50.2z M119.3,48.5c-0.4,0-0.7-0.3-0.7-0.7
            c0-0.2,0.1-0.4,0.2-0.5c0.3-0.3,0.7-0.3,1,0c0.3,0.3,0.3,0.7,0,1c0,0,0,0,0,0l0,0C119.7,48.4,119.5,48.5,119.3,48.5L119.3,48.5z"
            />
        <path d="M114.5,57.2c-0.4,0-0.7-0.3-0.7-0.7c0-0.2,0.1-0.4,0.2-0.5c0.3-0.3,0.7-0.3,1,0c0.3,0.3,0.3,0.7,0,1l0,0l0,0
            C114.9,57.2,114.7,57.2,114.5,57.2L114.5,57.2z M116.2,55.6c-0.4,0-0.7-0.3-0.7-0.7c0-0.2,0.1-0.4,0.2-0.5c0.3-0.3,0.8-0.3,1,0
            c0.3,0.3,0.3,0.7,0,1c0,0,0,0,0,0l0,0C116.6,55.5,116.4,55.6,116.2,55.6L116.2,55.6z M117.9,53.9c-0.4,0-0.7-0.3-0.7-0.7
            c0-0.2,0.1-0.4,0.2-0.5c0.3-0.3,0.8-0.3,1,0c0.3,0.3,0.3,0.7,0,1c0,0,0,0,0,0l0,0C118.3,53.8,118.1,53.9,117.9,53.9L117.9,53.9z
             M119.6,52.2c-0.4,0-0.7-0.3-0.7-0.7c0-0.2,0.1-0.4,0.2-0.5c0.3-0.3,0.7-0.3,1,0c0.3,0.3,0.3,0.7,0,1c0,0,0,0,0,0l0,0
            C120,52.1,119.8,52.2,119.6,52.2L119.6,52.2z M121.3,50.5c-0.4,0-0.7-0.3-0.7-0.7c0-0.2,0.1-0.4,0.2-0.5c0.3-0.3,0.7-0.3,1,0
            c0.3,0.3,0.3,0.7,0,1c0,0,0,0,0,0l0,0C121.7,50.4,121.5,50.5,121.3,50.5L121.3,50.5z M122.9,48.8c-0.4,0-0.7-0.3-0.7-0.7
            c0-0.2,0.1-0.4,0.2-0.5c0.3-0.3,0.7-0.3,1,0c0.3,0.3,0.3,0.7,0,1c0,0,0,0,0,0l0,0C123.3,48.8,123.1,48.8,122.9,48.8L122.9,48.8z"
            />
        <path d="M118.2,57.6c-0.4,0-0.7-0.3-0.7-0.7c0-0.2,0.1-0.4,0.2-0.5c0.3-0.3,0.8-0.3,1,0c0.3,0.3,0.3,0.7,0,1c0,0,0,0,0,0l0,0
            C118.6,57.5,118.4,57.6,118.2,57.6L118.2,57.6z M119.9,55.9c-0.4,0-0.7-0.3-0.7-0.7c0-0.2,0.1-0.4,0.2-0.5c0.3-0.3,0.8-0.3,1,0
            c0.3,0.3,0.3,0.7,0,1c0,0,0,0,0,0l0,0C120.2,55.8,120.1,55.9,119.9,55.9L119.9,55.9z M121.6,54.2c-0.4,0-0.7-0.3-0.7-0.7
            c0-0.2,0.1-0.4,0.2-0.5c0.3-0.3,0.8-0.3,1,0c0.3,0.3,0.3,0.7,0,1c0,0,0,0,0,0l0,0C121.9,54.1,121.7,54.2,121.6,54.2L121.6,54.2z
             M123.2,52.5c-0.4,0-0.7-0.3-0.7-0.7c0-0.2,0.1-0.4,0.2-0.5c0.3-0.3,0.7-0.3,1,0c0.3,0.3,0.3,0.7,0,1c0,0,0,0,0,0l0,0
            C123.6,52.4,123.4,52.5,123.2,52.5L123.2,52.5z M124.9,50.8c-0.4,0-0.7-0.3-0.7-0.7c0-0.2,0.1-0.4,0.2-0.5c0.3-0.3,0.7-0.3,1,0
            c0.3,0.3,0.3,0.7,0,1c0,0,0,0,0,0l0,0C125.3,50.8,125.1,50.8,124.9,50.8L124.9,50.8z M126.6,49.2c-0.4,0-0.7-0.3-0.7-0.7
            c0-0.2,0.1-0.4,0.2-0.5c0.3-0.3,0.8-0.3,1,0c0.3,0.3,0.3,0.7,0,1c0,0,0,0,0,0l0,0C127,49.1,126.8,49.2,126.6,49.2L126.6,49.2z"/>
        <path d="M121.8,57.9c-0.4,0-0.7-0.3-0.7-0.7c0-0.2,0.1-0.4,0.2-0.5c0.3-0.3,0.8-0.3,1,0c0.3,0.3,0.3,0.7,0,1c0,0,0,0,0,0l0,0
            C122.2,57.8,122,57.9,121.8,57.9L121.8,57.9z M123.5,56.2c-0.4,0-0.7-0.3-0.7-0.7c0-0.2,0.1-0.4,0.2-0.5c0.3-0.3,0.7-0.3,1,0
            c0.3,0.3,0.3,0.7,0,1c0,0,0,0,0,0l0,0C123.9,56.1,123.7,56.2,123.5,56.2L123.5,56.2z M125.2,54.5c-0.4,0-0.7-0.3-0.7-0.7
            c0-0.2,0.1-0.4,0.2-0.5c0.3-0.3,0.7-0.3,1,0c0.3,0.3,0.3,0.7,0,1c0,0,0,0,0,0l0,0C125.6,54.5,125.4,54.5,125.2,54.5L125.2,54.5z
             M126.9,52.9c-0.4,0-0.7-0.3-0.7-0.7c0-0.2,0.1-0.4,0.2-0.5c0.3-0.3,0.7-0.3,1,0c0.3,0.3,0.3,0.7,0,1c0,0,0,0,0,0l0,0
            C127.3,52.8,127.1,52.9,126.9,52.9L126.9,52.9z M128.6,51.2c-0.4,0-0.7-0.3-0.7-0.7c0-0.2,0.1-0.4,0.2-0.5c0.3-0.3,0.8-0.3,1,0
            c0.3,0.3,0.3,0.7,0,1c0,0,0,0,0,0l0,0C128.9,51.1,128.7,51.2,128.6,51.2L128.6,51.2z"/>
        <path d="M68.8,51.3c-0.4,0-0.7-0.3-0.7-0.7c0-0.2,0.1-0.4,0.2-0.5c0.3-0.3,0.7-0.3,1,0c0.3,0.3,0.3,0.7,0,1c0,0,0,0,0,0l0,0
            C69.2,51.2,69,51.3,68.8,51.3L68.8,51.3z M70.5,49.6c-0.4,0-0.7-0.3-0.7-0.7c0-0.2,0.1-0.4,0.2-0.5c0.3-0.3,0.7-0.3,1,0
            c0.3,0.3,0.3,0.7,0,1c0,0,0,0,0,0l0,0C70.9,49.6,70.7,49.6,70.5,49.6L70.5,49.6z M72.2,48c-0.4,0-0.7-0.3-0.7-0.7
            c0-0.2,0.1-0.4,0.2-0.5c0.3-0.3,0.8-0.3,1,0c0.3,0.3,0.3,0.7,0,1c0,0,0,0,0,0l0,0C72.6,47.9,72.4,47.9,72.2,48z"/>
        <path d="M69.1,55c-0.4,0-0.7-0.3-0.7-0.7c0-0.2,0.1-0.4,0.2-0.5c0.3-0.3,0.8-0.3,1,0c0.3,0.3,0.3,0.7,0,1c0,0,0,0,0,0l0,0
            C69.5,54.9,69.3,55,69.1,55z M70.8,53.3c-0.4,0-0.7-0.3-0.7-0.7c0-0.2,0.1-0.4,0.2-0.5c0.3-0.3,0.7-0.3,1,0c0.3,0.3,0.3,0.7,0,1
            c0,0,0,0,0,0l0,0C71.2,53.2,71,53.3,70.8,53.3L70.8,53.3z M72.5,51.6c-0.4,0-0.7-0.3-0.7-0.7c0-0.2,0.1-0.4,0.2-0.5
            c0.3-0.3,0.7-0.3,1,0c0.3,0.3,0.3,0.7,0,1c0,0,0,0,0,0l0,0C72.9,51.6,72.7,51.6,72.5,51.6L72.5,51.6z M74.2,50
            c-0.4,0-0.7-0.3-0.7-0.7c0-0.2,0.1-0.4,0.2-0.5c0.3-0.3,0.7-0.3,1,0c0.3,0.3,0.3,0.7,0,1c0,0,0,0,0,0l0,0
            C74.6,49.9,74.4,50,74.2,50L74.2,50z M75.8,48.3c-0.4,0-0.7-0.3-0.7-0.7c0-0.2,0.1-0.4,0.2-0.5c0.3-0.3,0.8-0.3,1,0
            c0.3,0.3,0.3,0.7,0,1c0,0,0,0,0,0l0,0C76.2,48.2,76,48.3,75.8,48.3L75.8,48.3z"/>
        <path d="M71.1,57c-0.4,0-0.7-0.3-0.7-0.7c0-0.2,0.1-0.4,0.2-0.5c0.3-0.3,0.8-0.3,1,0c0.3,0.3,0.3,0.7,0,1c0,0,0,0,0,0l0,0
            C71.5,56.9,71.3,57,71.1,57L71.1,57z M72.8,55.3c-0.4,0-0.7-0.3-0.7-0.7c0-0.2,0.1-0.4,0.2-0.5c0.3-0.3,0.7-0.3,1,0
            c0.3,0.3,0.3,0.7,0,1c0,0,0,0,0,0l0,0C73.2,55.2,73,55.3,72.8,55.3L72.8,55.3z M74.5,53.6c-0.4,0-0.7-0.3-0.7-0.7
            c0-0.2,0.1-0.4,0.2-0.5c0.3-0.3,0.7-0.3,1,0c0.3,0.3,0.3,0.7,0,1c0,0,0,0,0,0l0,0C74.8,53.6,74.7,53.6,74.5,53.6L74.5,53.6z
             M76.1,52c-0.4,0-0.7-0.3-0.7-0.7c0-0.2,0.1-0.4,0.2-0.5c0.3-0.3,0.7-0.3,1,0c0.3,0.3,0.3,0.7,0,1c0,0,0,0,0,0l0,0
            C76.5,51.9,76.3,52,76.1,52L76.1,52z M77.8,50.3c-0.4,0-0.7-0.3-0.7-0.7c0-0.2,0.1-0.4,0.2-0.5c0.3-0.3,0.8-0.3,1,0
            c0.3,0.3,0.3,0.7,0,1c0,0,0,0,0,0l0,0C78.2,50.2,78,50.3,77.8,50.3L77.8,50.3z M79.5,48.6c-0.4,0-0.7-0.3-0.7-0.7
            c0-0.2,0.1-0.4,0.2-0.5c0.3-0.3,0.8-0.3,1,0c0.3,0.3,0.3,0.7,0,1c0,0,0,0,0,0l0,0C79.9,48.5,79.7,48.6,79.5,48.6L79.5,48.6z"/>
        <path d="M74.7,57.3c-0.4,0-0.7-0.3-0.7-0.7c0-0.2,0.1-0.4,0.2-0.5c0.3-0.3,0.7-0.3,1,0c0.3,0.3,0.3,0.7,0,1c0,0,0,0,0,0l0,0
            C75.1,57.3,74.9,57.3,74.7,57.3L74.7,57.3z M76.4,55.7c-0.4,0-0.7-0.3-0.7-0.7c0-0.2,0.1-0.4,0.2-0.5c0.3-0.3,0.8-0.3,1,0
            c0.3,0.3,0.3,0.7,0,1c0,0,0,0,0,0l0,0C76.8,55.6,76.6,55.7,76.4,55.7L76.4,55.7z M78.1,54c-0.4,0-0.7-0.3-0.7-0.7
            c0-0.2,0.1-0.4,0.2-0.5c0.3-0.3,0.8-0.3,1,0c0.3,0.3,0.3,0.7,0,1c0,0,0,0,0,0l0,0C78.5,53.9,78.3,54,78.1,54L78.1,54z M79.8,52.3
            c-0.4,0-0.7-0.3-0.7-0.7c0-0.2,0.1-0.4,0.2-0.5c0.3-0.3,0.8-0.3,1,0c0.3,0.3,0.3,0.7,0,1c0,0,0,0,0,0l0,0
            C80.2,52.2,80,52.3,79.8,52.3L79.8,52.3z M81.5,50.6c-0.4,0-0.7-0.3-0.7-0.7c0-0.2,0.1-0.4,0.2-0.5c0.3-0.3,0.7-0.3,1,0
            c0.3,0.3,0.3,0.7,0,1c0,0,0,0,0,0l0,0C81.8,50.5,81.7,50.6,81.5,50.6L81.5,50.6z M83.1,48.9c-0.4,0-0.7-0.3-0.7-0.7
            c0-0.2,0.1-0.4,0.2-0.5c0.3-0.3,0.7-0.3,1,0c0.3,0.3,0.3,0.7,0,1c0,0,0,0,0,0l0,0C83.5,48.9,83.3,48.9,83.1,48.9L83.1,48.9z"/>
        <path d="M78.4,57.7c-0.4,0-0.7-0.3-0.7-0.7c0-0.2,0.1-0.4,0.2-0.5c0.3-0.3,0.7-0.3,1,0c0.3,0.3,0.3,0.7,0,1c0,0,0,0,0,0l0,0
            C78.8,57.6,78.6,57.7,78.4,57.7L78.4,57.7z M80.1,56c-0.4,0-0.7-0.3-0.7-0.7c0-0.2,0.1-0.4,0.2-0.5c0.3-0.3,0.7-0.3,1,0
            c0.3,0.3,0.3,0.7,0,1c0,0,0,0,0,0l0,0C80.5,55.9,80.3,56,80.1,56L80.1,56z M81.7,54.3c-0.4,0-0.7-0.3-0.7-0.7
            c0-0.2,0.1-0.4,0.2-0.5c0.3-0.3,0.8-0.3,1,0c0.3,0.3,0.3,0.7,0,1c0,0,0,0,0,0l0,0C82.1,54.2,81.9,54.3,81.7,54.3L81.7,54.3z
             M83.4,52.6c-0.4,0-0.7-0.3-0.7-0.7c0-0.2,0.1-0.4,0.2-0.5c0.3-0.3,0.8-0.3,1,0c0.3,0.3,0.3,0.7,0,1c0,0,0,0,0,0l0,0
            C83.8,52.5,83.6,52.6,83.4,52.6L83.4,52.6z M85.1,50.9c-0.4,0-0.7-0.3-0.7-0.7c0-0.2,0.1-0.4,0.2-0.5c0.3-0.3,0.7-0.3,1,0
            c0.3,0.3,0.3,0.7,0,1c0,0,0,0,0,0l0,0C85.5,50.9,85.3,50.9,85.1,50.9z M86.8,49.3c-0.4,0-0.7-0.3-0.7-0.7c0-0.4,0.3-0.7,0.7-0.7
            c0.2,0,0.4,0.1,0.5,0.2c0.3,0.3,0.3,0.7,0,1c0,0,0,0,0,0l0,0C87.2,49.2,87,49.3,86.8,49.3z"/>
        <path d="M82,58c-0.4,0-0.7-0.3-0.7-0.7c0-0.2,0.1-0.4,0.2-0.5c0.3-0.3,0.7-0.3,1,0c0.3,0.3,0.3,0.7,0,1c0,0,0,0,0,0l0,0
            C82.4,57.9,82.2,58,82,58L82,58z M83.7,56.3c-0.4,0-0.7-0.3-0.7-0.7c0-0.2,0.1-0.4,0.2-0.5c0.3-0.3,0.8-0.3,1,0
            c0.3,0.3,0.3,0.7,0,1c0,0,0,0,0,0l0,0C84.1,56.2,83.9,56.3,83.7,56.3L83.7,56.3z M85.4,54.6c-0.4,0-0.7-0.3-0.7-0.7
            c0-0.2,0.1-0.4,0.2-0.5c0.3-0.3,0.8-0.3,1,0c0.3,0.3,0.3,0.7,0,1c0,0,0,0,0,0l0,0C85.8,54.6,85.6,54.6,85.4,54.6L85.4,54.6z
             M87.1,52.9c-0.4,0-0.7-0.3-0.7-0.7c0-0.2,0.1-0.4,0.2-0.5c0.3-0.3,0.7-0.3,1,0c0.3,0.3,0.3,0.7,0,1c0,0,0,0,0,0l0,0
            C87.5,52.9,87.3,52.9,87.1,52.9L87.1,52.9z M88.7,51.3c-0.4,0-0.7-0.3-0.7-0.7c0-0.2,0.1-0.4,0.2-0.5c0.3-0.3,0.8-0.3,1,0
            c0.3,0.3,0.3,0.7,0,1c0,0,0,0,0,0l0,0C89.1,51.2,88.9,51.3,88.7,51.3L88.7,51.3z M90.4,49.6c-0.4,0-0.7-0.3-0.7-0.7
            c0-0.2,0.1-0.4,0.2-0.5c0.3-0.3,0.7-0.3,1,0c0.3,0.3,0.3,0.7,0,1c0,0,0,0,0,0l0,0C90.8,49.5,90.6,49.6,90.4,49.6L90.4,49.6z"/>
        <path d="M87.3,56.6c-0.4,0-0.7-0.3-0.7-0.7c0-0.2,0.1-0.4,0.2-0.5c0.3-0.3,0.8-0.3,1,0c0.3,0.3,0.3,0.7,0,1c0,0,0,0,0,0l0,0
            C87.7,56.6,87.5,56.6,87.3,56.6L87.3,56.6z M89,55c-0.4,0-0.7-0.3-0.7-0.7c0-0.2,0.1-0.4,0.2-0.5c0.3-0.3,0.7-0.3,1,0
            c0.3,0.3,0.3,0.7,0,1c0,0,0,0,0,0l0,0C89.4,54.9,89.2,55,89,55L89,55z M90.7,53.3c-0.4,0-0.7-0.3-0.7-0.7c0-0.2,0.1-0.4,0.2-0.5
            c0.3-0.3,0.7-0.3,1,0c0.3,0.3,0.3,0.7,0,1c0,0,0,0,0,0l0,0C91.1,53.2,90.9,53.3,90.7,53.3L90.7,53.3z M92.4,51.6
            c-0.4,0-0.7-0.3-0.7-0.7c0-0.2,0.1-0.4,0.2-0.5c0.3-0.3,0.7-0.3,1,0c0.3,0.3,0.3,0.7,0,1c0,0,0,0,0,0l0,0
            C92.8,51.5,92.6,51.6,92.4,51.6L92.4,51.6z M94.1,49.9c-0.4,0-0.7-0.3-0.7-0.7c0-0.2,0.1-0.4,0.2-0.5c0.3-0.3,0.8-0.3,1,0
            c0.3,0.3,0.3,0.7,0,1c0,0,0,0,0,0l0,0C94.4,49.8,94.3,49.9,94.1,49.9L94.1,49.9z M95.8,48.2c-0.4,0-0.7-0.3-0.7-0.7
            c0-0.2,0.1-0.4,0.2-0.5c0.3-0.3,0.8-0.3,1,0c0.3,0.3,0.3,0.7,0,1c0,0,0,0,0,0l0,0C96.1,48.2,95.9,48.2,95.8,48.2L95.8,48.2z"/>
        <path d="M91,57c-0.4,0-0.7-0.3-0.7-0.7c0-0.2,0.1-0.4,0.2-0.5c0.3-0.3,0.7-0.3,1,0c0.3,0.3,0.3,0.7,0,1c0,0,0,0,0,0l0,0
            C91.4,56.9,91.2,57,91,57L91,57z M92.7,55.3c-0.4,0-0.7-0.3-0.7-0.7c0-0.2,0.1-0.4,0.2-0.5c0.3-0.3,0.7-0.3,1,0
            c0.3,0.3,0.3,0.7,0,1c0,0,0,0,0,0l0,0C93.1,55.2,92.9,55.3,92.7,55.3L92.7,55.3z M94.4,53.6c-0.4,0-0.7-0.3-0.7-0.7
            c0-0.2,0.1-0.4,0.2-0.5c0.3-0.3,0.8-0.3,1,0c0.3,0.3,0.3,0.7,0,1c0,0,0,0,0,0l0,0C94.7,53.5,94.5,53.6,94.4,53.6L94.4,53.6z
             M96,51.9c-0.4,0-0.7-0.3-0.7-0.7c0-0.2,0.1-0.4,0.2-0.5c0.3-0.3,0.8-0.3,1,0c0.3,0.3,0.3,0.7,0,1c0,0,0,0,0,0l0,0
            C96.4,51.8,96.2,51.9,96,51.9L96,51.9z M97.7,50.2c-0.4,0-0.7-0.3-0.7-0.7c0-0.2,0.1-0.4,0.2-0.5c0.3-0.3,0.8-0.3,1,0
            c0.3,0.3,0.3,0.7,0,1c0,0,0,0,0,0l0,0C98.1,50.2,97.9,50.2,97.7,50.2L97.7,50.2z M99.4,48.6c-0.4,0-0.7-0.3-0.7-0.7
            c0-0.2,0.1-0.4,0.2-0.5c0.3-0.3,0.7-0.3,1,0c0.3,0.3,0.3,0.7,0,1c0,0,0,0,0,0l0,0C99.8,48.5,99.6,48.6,99.4,48.6L99.4,48.6z"/>
        <path d="M68,48.3c-0.4,0-0.7-0.3-0.7-0.7c0-0.2,0.1-0.4,0.2-0.5c0.3-0.3,0.7-0.3,1,0c0.3,0.3,0.3,0.7,0,1c0,0,0,0,0,0l0,0
            C68.4,48.2,68.2,48.3,68,48.3L68,48.3z"/>
    </g>
</g>
</svg>
