<?xml version="1.0" encoding="utf-8"?>
<!-- Generator: Adobe Illustrator 21.1.0, SVG Export Plug-In . SVG Version: 6.00 Build 0)  -->
<svg version="1.1" id="Layer_1" xmlns="http://www.w3.org/2000/svg" xmlns:xlink="http://www.w3.org/1999/xlink" x="0px" y="0px"
	 viewBox="0 40 200 120" xml:space="preserve">
<style type="text/css">
	.st0{fill:none;}
	.st1{fill:#FFFFFF;}
	.st2{fill:#FFCA4F;}
	.st3{clip-path:url(#SVGID_2_);}
</style>
<g>
	<rect class="st0" width="200" height="200"/>
	<rect x="34" y="58" class="st1" width="118" height="75"/>
	<path d="M153,134H33V57h120V134z M35,132h116V59H35V132z"/>
	<rect x="85" y="108.5" width="25" height="1"/>
	<rect x="91" y="113.5" width="12" height="1"/>
	<rect x="46" y="108.5" width="25" height="1"/>
	<rect x="52" y="113.5" width="13" height="1"/>
	<rect x="124" y="76" class="st1" width="37" height="47"/>
	<path d="M162,124h-39V75h39V124z M125,122h35V77h-35V122z"/>
	<rect x="128" y="72" class="st1" width="37" height="47"/>
	<path d="M166,120h-39V71h39V120z M129,118h35V73h-35V118z"/>
	<rect x="132" y="69" class="st1" width="38" height="46"/>
	<path d="M171,116h-40V68h40V116z M133,114h36V70h-36V114z"/>
	<circle class="st1" cx="169.9" cy="82" r="6"/>
	<path d="M169.9,89c-3.9,0-7-3.1-7-7s3.1-7,7-7c3.9,0,7,3.1,7,7C176.9,85.9,173.8,89,169.9,89z M169.9,77c-2.8,0-5,2.3-5,5
		s2.3,5,5,5c2.8,0,5-2.3,5-5C174.9,79.2,172.7,77,169.9,77L169.9,77z"/>
	<polygon points="169.5,84.6 167.4,82.3 168.1,81.6 169.5,83.1 172.4,79.5 173.2,80.2 	"/>
	<rect x="23.1" y="132.9" class="st1" width="143.2" height="8.7"/>
	<path d="M167.4,142.6H22.1v-10.7h145.2V142.6z M24.1,140.6h141.2v-6.7H24.1L24.1,140.6z"/>
	<circle class="st2" cx="150.6" cy="85.3" r="5.7"/>
	<path d="M150.6,91.9c-3.7,0-6.7-3-6.7-6.7s3-6.7,6.7-6.7c3.7,0,6.7,3,6.7,6.7c0,0,0,0,0,0C157.3,89,154.3,91.9,150.6,91.9z
		 M150.6,80.6c-2.6,0-4.7,2.1-4.7,4.7c0,2.6,2.1,4.7,4.7,4.7c2.6,0,4.7-2.1,4.7-4.7c0,0,0,0,0,0C155.3,82.7,153.2,80.6,150.6,80.6z"
		/>
	<polygon class="st2" points="139.9,102.9 143.2,94.2 158.9,94.2 161.4,102.9 	"/>
	<path d="M138.4,103.9l4.1-10.7h17.1l3.1,10.7L138.4,103.9z M143.9,95.2l-2.6,6.7h18.7l-1.9-6.7L143.9,95.2z"/>
	<circle class="st1" cx="58.8" cy="85.3" r="5.7"/>
	<path d="M58.8,91.9c-3.7,0-6.7-3-6.7-6.7c0-3.7,3-6.7,6.7-6.7c3.7,0,6.7,3,6.7,6.7c0,0,0,0,0,0C65.4,89,62.4,91.9,58.8,91.9z
		 M58.8,80.6c-2.6,0-4.7,2.1-4.7,4.7c0,2.6,2.1,4.7,4.7,4.7s4.7-2.1,4.7-4.7c0,0,0,0,0,0C63.4,82.7,61.3,80.6,58.8,80.6z"/>
	<polygon class="st1" points="48,102.9 51.4,94.2 67,94.2 69.5,102.9 	"/>
	<path d="M46.5,103.9l4.1-10.7h17.1l3.1,10.7L46.5,103.9z M52,95.2l-2.6,6.7h18.7l-1.9-6.7L52,95.2z"/>
	<circle class="st1" cx="96.3" cy="85.3" r="5.7"/>
	<path d="M96.3,91.9c-3.7,0-6.7-3-6.7-6.7s3-6.7,6.7-6.7c3.7,0,6.7,3,6.7,6.7c0,0,0,0,0,0C102.9,89,99.9,91.9,96.3,91.9z M96.3,80.6
		c-2.6,0-4.7,2.1-4.7,4.7s2.1,4.7,4.7,4.7c2.6,0,4.7-2.1,4.7-4.7c0,0,0,0,0,0C100.9,82.7,98.8,80.6,96.3,80.6z"/>
	<polygon class="st1" points="85.5,102.9 88.9,94.2 104.5,94.2 107,102.9 	"/>
	<path d="M84.1,103.9l4.1-10.7h17.1l3.1,10.7L84.1,103.9z M89.6,95.2l-2.6,6.7h18.7l-1.9-6.7L89.6,95.2z"/>
	<g>
		<defs>
			<rect id="SVGID_1_" x="23" y="133" width="143" height="8"/>
		</defs>
		<clipPath id="SVGID_2_">
			<use xlink:href="#SVGID_1_"  style="overflow:visible;"/>
		</clipPath>
		<g class="st3">
			<path d="M138.5,141.9c-0.4,0-0.7-0.3-0.7-0.7c0-0.2,0.1-0.4,0.2-0.5c0.3-0.3,0.7-0.3,1,0c0.3,0.3,0.3,0.7,0,1c0,0,0,0,0,0l0,0
				C138.9,141.8,138.7,141.9,138.5,141.9L138.5,141.9z M140.1,140.2c-0.4,0-0.7-0.3-0.7-0.7c0-0.2,0.1-0.4,0.2-0.5
				c0.3-0.3,0.7-0.3,1,0c0.3,0.3,0.3,0.7,0,1c0,0,0,0,0,0l0,0C140.5,140.1,140.3,140.2,140.1,140.2L140.1,140.2z M141.8,138.5
				c-0.4,0-0.7-0.3-0.7-0.7c0-0.2,0.1-0.4,0.2-0.5c0.3-0.3,0.8-0.3,1,0c0.3,0.3,0.3,0.7,0,1c0,0,0,0,0,0l0,0
				C142.2,138.5,142,138.5,141.8,138.5L141.8,138.5z M143.5,136.9c-0.4,0-0.7-0.3-0.7-0.7c0-0.2,0.1-0.4,0.2-0.5
				c0.3-0.3,0.8-0.3,1,0c0.3,0.3,0.3,0.7,0,1c0,0,0,0,0,0l0,0C143.9,136.8,143.7,136.9,143.5,136.9L143.5,136.9z M145.2,135.2
				c-0.4,0-0.7-0.3-0.7-0.7c0-0.2,0.1-0.4,0.2-0.5c0.3-0.3,0.8-0.3,1,0c0.3,0.3,0.3,0.7,0,1c0,0,0,0,0,0l0,0
				C145.6,135.1,145.4,135.2,145.2,135.2L145.2,135.2z"/>
			<path d="M142.1,142.2c-0.4,0-0.7-0.3-0.7-0.7c0-0.4,0.3-0.7,0.7-0.7c0.2,0,0.4,0.1,0.5,0.2c0.3,0.3,0.3,0.7,0,1c0,0,0,0,0,0l0,0
				C142.5,142.1,142.3,142.2,142.1,142.2L142.1,142.2z M143.8,140.5c-0.4,0-0.7-0.3-0.7-0.7c0-0.2,0.1-0.4,0.2-0.5
				c0.3-0.3,0.8-0.3,1,0c0.3,0.3,0.3,0.7,0,1c0,0,0,0,0,0l0,0C144.2,140.5,144,140.5,143.8,140.5L143.8,140.5z M145.5,138.9
				c-0.4,0-0.7-0.3-0.7-0.7c0-0.2,0.1-0.4,0.2-0.5c0.3-0.3,0.8-0.3,1,0c0.3,0.3,0.3,0.7,0,1c0,0,0,0,0,0l0,0
				C145.8,138.8,145.7,138.9,145.5,138.9L145.5,138.9z M147.2,137.2c-0.4,0-0.7-0.3-0.7-0.7c0-0.2,0.1-0.4,0.2-0.5
				c0.3-0.3,0.8-0.3,1,0c0.3,0.3,0.3,0.7,0,1c0,0,0,0,0,0l0,0C147.5,137.1,147.3,137.2,147.2,137.2L147.2,137.2z M148.8,135.5
				c-0.4,0-0.7-0.3-0.7-0.7c0-0.2,0.1-0.4,0.2-0.5c0.3-0.3,0.8-0.3,1,0c0.3,0.3,0.3,0.7,0,1c0,0,0,0,0,0l0,0
				C149.2,135.4,149,135.5,148.8,135.5L148.8,135.5z"/>
			<path d="M147.4,140.9c-0.4,0-0.7-0.3-0.7-0.7c0-0.2,0.1-0.4,0.2-0.5c0.3-0.3,0.8-0.3,1,0c0.3,0.3,0.3,0.7,0,1c0,0,0,0,0,0l0,0
				C147.8,140.8,147.6,140.9,147.4,140.9L147.4,140.9z M149.1,139.2c-0.4,0-0.7-0.3-0.7-0.7c0-0.2,0.1-0.4,0.2-0.5
				c0.3-0.3,0.8-0.3,1,0c0.3,0.3,0.3,0.7,0,1c0,0,0,0,0,0l0,0C149.5,139.1,149.3,139.2,149.1,139.2L149.1,139.2z M150.8,137.5
				c-0.4,0-0.7-0.3-0.7-0.7c0-0.2,0.1-0.4,0.2-0.5c0.3-0.3,0.8-0.3,1,0c0.3,0.3,0.3,0.7,0,1c0,0,0,0,0,0l0,0
				C151.2,137.4,151,137.5,150.8,137.5L150.8,137.5z M152.5,135.8c-0.4,0-0.7-0.3-0.7-0.7c0-0.2,0.1-0.4,0.2-0.5
				c0.3-0.3,0.7-0.3,1,0c0.3,0.3,0.3,0.7,0,1c0,0,0,0,0,0l0,0C152.9,135.7,152.7,135.8,152.5,135.8L152.5,135.8z M154.1,134.2
				c-0.4,0-0.7-0.3-0.7-0.7c0-0.4,0.3-0.7,0.7-0.7c0.2,0,0.4,0.1,0.5,0.2c0.3,0.3,0.3,0.7,0,1c0,0,0,0,0,0l0,0
				C154.5,134.1,154.3,134.2,154.1,134.2L154.1,134.2z"/>
			<path d="M151.1,141.2c-0.4,0-0.7-0.3-0.7-0.7c0-0.2,0.1-0.4,0.2-0.5c0.3-0.3,0.8-0.3,1,0c0.3,0.3,0.3,0.7,0,1c0,0,0,0,0,0l0,0
				C151.5,141.1,151.3,141.2,151.1,141.2L151.1,141.2z M152.8,139.5c-0.4,0-0.7-0.3-0.7-0.7c0-0.2,0.1-0.4,0.2-0.5
				c0.3-0.3,0.8-0.3,1,0c0.3,0.3,0.3,0.7,0,1c0,0,0,0,0,0l0,0C153.1,139.4,153,139.5,152.8,139.5L152.8,139.5z M154.4,137.8
				c-0.4,0-0.7-0.3-0.7-0.7c0-0.2,0.1-0.4,0.2-0.5c0.3-0.3,0.7-0.3,1,0c0.3,0.3,0.3,0.7,0,1c0,0,0,0,0,0l0,0
				C154.8,137.7,154.6,137.8,154.4,137.8L154.4,137.8z M156.1,136.1c-0.4,0-0.7-0.3-0.7-0.7c0-0.2,0.1-0.4,0.2-0.5
				c0.3-0.3,0.8-0.3,1,0c0.3,0.3,0.3,0.7,0,1c0,0,0,0,0,0l0,0C156.5,136.1,156.3,136.2,156.1,136.1L156.1,136.1z M157.8,134.5
				c-0.4,0-0.7-0.3-0.7-0.7c0-0.2,0.1-0.4,0.2-0.5c0.3-0.3,0.8-0.3,1,0c0.3,0.3,0.3,0.7,0,1c0,0,0,0,0,0l0,0
				C158.2,134.4,158,134.5,157.8,134.5L157.8,134.5z"/>
			<path d="M154.7,141.5c-0.4,0-0.7-0.3-0.7-0.7c0-0.2,0.1-0.4,0.2-0.5c0.3-0.3,0.8-0.3,1,0c0.3,0.3,0.3,0.7,0,1c0,0,0,0,0,0l0,0
				C155.1,141.4,154.9,141.5,154.7,141.5L154.7,141.5z M156.4,139.8c-0.4,0-0.7-0.3-0.7-0.7c0-0.2,0.1-0.4,0.2-0.5
				c0.3-0.3,0.7-0.3,1,0c0.3,0.3,0.3,0.7,0,1c0,0,0,0,0,0l0,0C156.8,139.8,156.6,139.8,156.4,139.8L156.4,139.8z M158.1,138.2
				c-0.4,0-0.7-0.3-0.7-0.7c0-0.2,0.1-0.4,0.2-0.5c0.3-0.3,0.8-0.3,1,0c0.3,0.3,0.3,0.7,0,1c0,0,0,0,0,0l0,0
				C158.5,138.1,158.3,138.2,158.1,138.2L158.1,138.2z M159.8,136.5c-0.4,0-0.7-0.3-0.7-0.7c0-0.2,0.1-0.4,0.2-0.5
				c0.3-0.3,0.8-0.3,1,0c0.3,0.3,0.3,0.7,0,1c0,0,0,0,0,0l0,0C160.1,136.4,159.9,136.5,159.8,136.5L159.8,136.5z M161.5,134.8
				c-0.4,0-0.7-0.3-0.7-0.7c0-0.2,0.1-0.4,0.2-0.5c0.3-0.3,0.8-0.3,1,0c0.3,0.3,0.3,0.7,0,1c0,0,0,0,0,0l0,0
				C161.8,134.7,161.6,134.8,161.5,134.8L161.5,134.8z"/>
			<path d="M158.4,141.9c-0.4,0-0.7-0.3-0.7-0.7c0-0.2,0.1-0.4,0.2-0.5c0.3-0.3,0.7-0.3,1,0c0.3,0.3,0.3,0.7,0,1c0,0,0,0,0,0l0,0
				C158.8,141.8,158.6,141.9,158.4,141.9L158.4,141.9z M160,140.2c-0.4,0-0.7-0.3-0.7-0.7c0-0.2,0.1-0.4,0.2-0.5
				c0.3-0.3,0.8-0.3,1,0c0.3,0.3,0.3,0.7,0,1c0,0,0,0,0,0l0,0C160.4,140.1,160.2,140.2,160,140.2L160,140.2z M161.7,138.5
				c-0.4,0-0.7-0.3-0.7-0.7c0-0.4,0.3-0.7,0.7-0.7c0.2,0,0.4,0.1,0.5,0.2c0.3,0.3,0.3,0.7,0,1c0,0,0,0,0,0l0,0
				C162.1,138.4,161.9,138.5,161.7,138.5L161.7,138.5z M163.4,136.8c-0.4,0-0.7-0.3-0.7-0.7c0-0.2,0.1-0.4,0.2-0.5
				c0.3-0.3,0.8-0.3,1,0c0.3,0.3,0.3,0.7,0,1c0,0,0,0,0,0l0,0C163.8,136.7,163.6,136.8,163.4,136.8L163.4,136.8z M165.1,135.1
				c-0.4,0-0.7-0.3-0.7-0.7c0-0.2,0.1-0.4,0.2-0.5c0.3-0.3,0.8-0.3,1,0c0.3,0.3,0.3,0.7,0,1c0,0,0,0,0,0l0,0
				C165.5,135.1,165.3,135.1,165.1,135.1L165.1,135.1z"/>
			<path d="M162,142.2c-0.4,0-0.7-0.3-0.7-0.7c0-0.2,0.1-0.4,0.2-0.5c0.3-0.3,0.8-0.3,1,0c0.3,0.3,0.3,0.7,0,1c0,0,0,0,0,0l0,0
				C162.4,142.1,162.2,142.2,162,142.2z M163.7,140.5c-0.4,0-0.7-0.3-0.7-0.7c0-0.2,0.1-0.4,0.2-0.5c0.3-0.3,0.8-0.3,1,0
				c0.3,0.3,0.3,0.7,0,1c0,0,0,0,0,0l0,0C164.1,140.4,163.9,140.5,163.7,140.5L163.7,140.5z M165.4,138.8c-0.4,0-0.7-0.3-0.7-0.7
				c0-0.2,0.1-0.4,0.2-0.5c0.3-0.3,0.8-0.3,1,0c0.3,0.3,0.3,0.7,0,1c0,0,0,0,0,0l0,0C165.7,138.7,165.6,138.8,165.4,138.8
				L165.4,138.8z"/>
			<path d="M107.6,141c-0.4,0-0.7-0.3-0.7-0.7c0-0.4,0.3-0.7,0.7-0.7c0.2,0,0.4,0.1,0.5,0.2c0.3,0.3,0.3,0.7,0,1c0,0,0,0,0,0l0,0
				C108,140.9,107.8,141,107.6,141L107.6,141z M109.3,139.3c-0.4,0-0.7-0.3-0.7-0.7c0-0.2,0.1-0.4,0.2-0.5c0.3-0.3,0.8-0.3,1,0
				c0.3,0.3,0.3,0.7,0,1c0,0,0,0,0,0l0,0C109.7,139.2,109.5,139.3,109.3,139.3L109.3,139.3z M111,137.6c-0.4,0-0.7-0.3-0.7-0.7
				c0-0.2,0.1-0.4,0.2-0.5c0.3-0.3,0.8-0.3,1,0c0.3,0.3,0.3,0.7,0,1c0,0,0,0,0,0l0,0C111.4,137.5,111.2,137.6,111,137.6L111,137.6z
				 M112.7,135.9c-0.4,0-0.7-0.3-0.7-0.7c0-0.2,0.1-0.4,0.2-0.5c0.3-0.3,0.8-0.3,1,0c0.3,0.3,0.3,0.7,0,1c0,0,0,0,0,0l0,0
				C113.1,135.8,112.9,135.9,112.7,135.9L112.7,135.9z M114.4,134.2c-0.4,0-0.7-0.3-0.7-0.7c0-0.2,0.1-0.4,0.2-0.5
				c0.3-0.3,0.8-0.3,1,0c0.3,0.3,0.3,0.7,0,1c0,0,0,0,0,0l0,0C114.7,134.2,114.5,134.2,114.4,134.2L114.4,134.2z"/>
			<path d="M111.3,141.3c-0.4,0-0.7-0.3-0.7-0.7c0-0.2,0.1-0.4,0.2-0.5c0.3-0.3,0.8-0.3,1,0c0.3,0.3,0.3,0.7,0,1c0,0,0,0,0,0l0,0
				C111.6,141.2,111.5,141.3,111.3,141.3L111.3,141.3z M113,139.6c-0.4,0-0.7-0.3-0.7-0.7c0-0.2,0.1-0.4,0.2-0.5
				c0.3-0.3,0.8-0.3,1,0c0.3,0.3,0.3,0.7,0,1c0,0,0,0,0,0l0,0C113.3,139.5,113.1,139.6,113,139.6L113,139.6z M114.6,137.9
				c-0.4,0-0.7-0.3-0.7-0.7c0-0.2,0.1-0.4,0.2-0.5c0.3-0.3,0.8-0.3,1,0c0.3,0.3,0.3,0.7,0,1c0,0,0,0,0,0l0,0
				C115,137.9,114.8,137.9,114.6,137.9L114.6,137.9z M116.3,136.2c-0.4,0-0.7-0.3-0.7-0.7c0-0.2,0.1-0.4,0.2-0.5
				c0.3-0.3,0.7-0.3,1,0c0.3,0.3,0.3,0.7,0,1c0,0,0,0,0,0l0,0C116.7,136.2,116.5,136.3,116.3,136.2L116.3,136.2z M118,134.6
				c-0.4,0-0.7-0.3-0.7-0.7c0-0.2,0.1-0.4,0.2-0.5c0.3-0.3,0.8-0.3,1,0c0.3,0.3,0.3,0.7,0,1c0,0,0,0,0,0l0,0
				C118.4,134.5,118.2,134.6,118,134.6L118,134.6z"/>
			<path d="M114.9,141.6c-0.4,0-0.7-0.3-0.7-0.7c0-0.2,0.1-0.4,0.2-0.5c0.3-0.3,0.8-0.3,1,0c0.3,0.3,0.3,0.7,0,1c0,0,0,0,0,0l0,0
				C115.3,141.5,115.1,141.6,114.9,141.6L114.9,141.6z M116.6,139.9c-0.4,0-0.7-0.3-0.7-0.7c0-0.2,0.1-0.4,0.2-0.5
				c0.3-0.3,0.7-0.3,1,0c0.3,0.3,0.3,0.7,0,1c0,0,0,0,0,0l0,0C117,139.9,116.8,139.9,116.6,139.9L116.6,139.9z M118.3,138.2
				c-0.4,0-0.7-0.3-0.7-0.7c0-0.2,0.1-0.4,0.2-0.5c0.3-0.3,0.7-0.3,1,0c0.3,0.3,0.3,0.7,0,1c0,0,0,0,0,0l0,0
				C118.7,138.2,118.5,138.3,118.3,138.2L118.3,138.2z M120,136.6c-0.4,0-0.7-0.3-0.7-0.7c0-0.2,0.1-0.4,0.2-0.5
				c0.3-0.3,0.8-0.3,1,0c0.3,0.3,0.3,0.7,0,1c0,0,0,0,0,0l0,0C120.3,136.5,120.2,136.6,120,136.6L120,136.6z M121.6,134.9
				c-0.4,0-0.7-0.3-0.7-0.7c0-0.2,0.1-0.4,0.2-0.5c0.3-0.3,0.8-0.3,1,0c0.3,0.3,0.3,0.7,0,1c0,0,0,0,0,0l0,0
				C122,134.8,121.8,134.9,121.6,134.9L121.6,134.9z"/>
			<path d="M118.6,141.9c-0.4,0-0.7-0.3-0.7-0.7c0-0.2,0.1-0.4,0.2-0.5c0.3-0.3,0.8-0.3,1,0c0.3,0.3,0.3,0.7,0,1c0,0,0,0,0,0l0,0
				C118.9,141.9,118.7,141.9,118.6,141.9L118.6,141.9z M120.2,140.3c-0.4,0-0.7-0.3-0.7-0.7c0-0.2,0.1-0.4,0.2-0.5
				c0.3-0.3,0.7-0.3,1,0c0.3,0.3,0.3,0.7,0,1c0,0,0,0,0,0l0,0C120.6,140.2,120.4,140.3,120.2,140.3L120.2,140.3z M121.9,138.6
				c-0.4,0-0.7-0.3-0.7-0.7c0-0.2,0.1-0.4,0.2-0.5c0.3-0.3,0.8-0.3,1,0c0.3,0.3,0.3,0.7,0,1c0,0,0,0,0,0l0,0
				C122.3,138.5,122.1,138.6,121.9,138.6L121.9,138.6z M123.6,136.9c-0.4,0-0.7-0.3-0.7-0.7c0-0.2,0.1-0.4,0.2-0.5
				c0.3-0.3,0.8-0.3,1,0c0.3,0.3,0.3,0.7,0,1c0,0,0,0,0,0l0,0C124,136.8,123.8,136.9,123.6,136.9L123.6,136.9z M125.3,135.2
				c-0.4,0-0.7-0.3-0.7-0.7c0-0.2,0.1-0.4,0.2-0.5c0.3-0.3,0.8-0.3,1,0c0.3,0.3,0.3,0.7,0,1c0,0,0,0,0,0l0,0
				C125.6,135.2,125.5,135.2,125.3,135.2L125.3,135.2z"/>
			<path d="M122.2,142.3c-0.4,0-0.7-0.3-0.7-0.7c0-0.2,0.1-0.4,0.2-0.5c0.3-0.3,0.7-0.3,1,0c0.3,0.3,0.3,0.7,0,1c0,0,0,0,0,0l0,0
				C122.6,142.2,122.4,142.3,122.2,142.3L122.2,142.3z M123.9,140.6c-0.4,0-0.7-0.3-0.7-0.7c0-0.2,0.1-0.4,0.2-0.5
				c0.3-0.3,0.8-0.3,1,0c0.3,0.3,0.3,0.7,0,1c0,0,0,0,0,0l0,0C124.3,140.5,124.1,140.6,123.9,140.6L123.9,140.6z M125.6,138.9
				c-0.4,0-0.7-0.3-0.7-0.7c0-0.2,0.1-0.4,0.2-0.5c0.3-0.3,0.8-0.3,1,0c0.3,0.3,0.3,0.7,0,1c0,0,0,0,0,0l0,0
				C125.9,138.8,125.7,138.9,125.6,138.9L125.6,138.9z M127.3,137.2c-0.4,0-0.7-0.3-0.7-0.7c0-0.2,0.1-0.4,0.2-0.5
				c0.3-0.3,0.8-0.3,1,0c0.3,0.3,0.3,0.7,0,1c0,0,0,0,0,0l0,0C127.6,137.2,127.4,137.2,127.3,137.2L127.3,137.2z M128.9,135.5
				c-0.4,0-0.7-0.3-0.7-0.7c0-0.2,0.1-0.4,0.2-0.5c0.3-0.3,0.8-0.3,1,0c0.3,0.3,0.3,0.7,0,1c0,0,0,0,0,0l0,0
				C129.3,135.5,129.1,135.6,128.9,135.5L128.9,135.5z"/>
			<path d="M127.5,140.9c-0.4,0-0.7-0.3-0.7-0.7c0-0.2,0.1-0.4,0.2-0.5c0.3-0.3,0.8-0.3,1,0c0.3,0.3,0.3,0.7,0,1c0,0,0,0,0,0l0,0
				C127.9,140.8,127.7,140.9,127.5,140.9L127.5,140.9z M129.2,139.2c-0.4,0-0.7-0.3-0.7-0.7c0-0.2,0.1-0.4,0.2-0.5
				c0.3-0.3,0.8-0.3,1,0c0.3,0.3,0.3,0.7,0,1c0,0,0,0,0,0l0,0C129.6,139.2,129.4,139.2,129.2,139.2L129.2,139.2z M130.9,137.5
				c-0.4,0-0.7-0.3-0.7-0.7c0-0.2,0.1-0.4,0.2-0.5c0.3-0.3,0.8-0.3,1,0c0.3,0.3,0.3,0.7,0,1c0,0,0,0,0,0l0,0
				C131.3,137.5,131.1,137.6,130.9,137.5L130.9,137.5z M132.6,135.9c-0.4,0-0.7-0.3-0.7-0.7c0-0.2,0.1-0.4,0.2-0.5
				c0.3-0.3,0.7-0.3,1,0c0.3,0.3,0.3,0.7,0,1c0,0,0,0,0,0l0,0C133,135.8,132.8,135.9,132.6,135.9L132.6,135.9z M134.3,134.2
				c-0.4,0-0.7-0.3-0.7-0.7c0-0.2,0.1-0.4,0.2-0.5c0.3-0.3,0.8-0.3,1,0c0.3,0.3,0.3,0.7,0,1c0,0,0,0,0,0l0,0
				C134.6,134.1,134.4,134.2,134.3,134.2L134.3,134.2z"/>
			<path d="M131.2,141.2c-0.4,0-0.7-0.3-0.7-0.7c0-0.2,0.1-0.4,0.2-0.5c0.3-0.3,0.8-0.3,1,0c0.3,0.3,0.3,0.7,0,1c0,0,0,0,0,0l0,0
				C131.5,141.2,131.4,141.2,131.2,141.2L131.2,141.2z M132.8,139.6c-0.4,0-0.7-0.3-0.7-0.7c0-0.2,0.1-0.4,0.2-0.5
				c0.3-0.3,0.8-0.3,1,0c0.3,0.3,0.3,0.7,0,1c0,0,0,0,0,0l0,0C133.2,139.5,133,139.6,132.8,139.6L132.8,139.6z M134.5,137.9
				c-0.4,0-0.7-0.3-0.7-0.7c0-0.2,0.1-0.4,0.2-0.5c0.3-0.3,0.7-0.3,1,0c0.3,0.3,0.3,0.7,0,1c0,0,0,0,0,0l0,0
				C134.9,137.8,134.7,137.9,134.5,137.9L134.5,137.9z M136.2,136.2c-0.4,0-0.7-0.3-0.7-0.7c0-0.2,0.1-0.4,0.2-0.5
				c0.3-0.3,0.7-0.3,1,0c0.3,0.3,0.3,0.7,0,1c0,0,0,0,0,0l0,0C136.6,136.1,136.4,136.2,136.2,136.2L136.2,136.2z M137.9,134.5
				c-0.4,0-0.7-0.3-0.7-0.7c0-0.2,0.1-0.4,0.2-0.5c0.3-0.3,0.8-0.3,1,0c0.3,0.3,0.3,0.7,0,1c0,0,0,0,0,0l0,0
				C138.3,134.5,138.1,134.5,137.9,134.5L137.9,134.5z"/>
			<path d="M134.8,141.6c-0.4,0-0.7-0.3-0.7-0.7c0-0.2,0.1-0.4,0.2-0.5c0.3-0.3,0.8-0.3,1,0c0.3,0.3,0.3,0.7,0,1c0,0,0,0,0,0l0,0
				C135.2,141.5,135,141.6,134.8,141.6L134.8,141.6z M136.5,139.9c-0.4,0-0.7-0.3-0.7-0.7c0-0.2,0.1-0.4,0.2-0.5
				c0.3-0.3,0.7-0.3,1,0c0.3,0.3,0.3,0.7,0,1c0,0,0,0,0,0l0,0C136.9,139.8,136.7,139.9,136.5,139.9L136.5,139.9z M138.2,138.2
				c-0.4,0-0.7-0.3-0.7-0.7c0-0.4,0.3-0.7,0.7-0.7c0.2,0,0.4,0.1,0.5,0.2c0.3,0.3,0.3,0.7,0,1c0,0,0,0,0,0l0,0
				C138.6,138.1,138.4,138.2,138.2,138.2L138.2,138.2z M139.9,136.5c-0.4,0-0.7-0.3-0.7-0.7c0-0.4,0.3-0.7,0.7-0.7
				c0.2,0,0.4,0.1,0.5,0.2c0.3,0.3,0.3,0.7,0,1c0,0,0,0,0,0l0,0C140.2,136.5,140.1,136.5,139.9,136.5L139.9,136.5z M141.6,134.8
				c-0.4,0-0.7-0.3-0.7-0.7c0-0.2,0.1-0.4,0.2-0.5c0.3-0.3,0.8-0.3,1,0c0.3,0.3,0.3,0.7,0,1c0,0,0,0,0,0l0,0
				C141.9,134.8,141.7,134.9,141.6,134.8L141.6,134.8z"/>
			<path d="M75.1,141.8c-0.4,0-0.7-0.3-0.7-0.7c0-0.4,0.3-0.7,0.7-0.7c0.2,0,0.4,0.1,0.5,0.2c0.3,0.3,0.3,0.7,0,1c0,0,0,0,0,0l0,0
				C75.5,141.7,75.3,141.8,75.1,141.8L75.1,141.8z M76.8,140.1c-0.4,0-0.7-0.3-0.7-0.7c0-0.2,0.1-0.4,0.2-0.5c0.3-0.3,0.7-0.3,1,0
				c0.3,0.3,0.3,0.7,0,1c0,0,0,0,0,0l0,0C77.2,140,77,140.1,76.8,140.1L76.8,140.1z M78.5,138.4c-0.4,0-0.7-0.3-0.7-0.7
				c0-0.2,0.1-0.4,0.2-0.5c0.3-0.3,0.7-0.3,1,0c0.3,0.3,0.3,0.7,0,1c0,0,0,0,0,0l0,0C78.9,138.4,78.7,138.5,78.5,138.4L78.5,138.4z
				 M80.2,136.8c-0.4,0-0.7-0.3-0.7-0.7c0-0.2,0.1-0.4,0.2-0.5c0.3-0.3,0.8-0.3,1,0c0.3,0.3,0.3,0.7,0,1c0,0,0,0,0,0l0,0
				C80.5,136.7,80.4,136.8,80.2,136.8L80.2,136.8z M81.8,135.1c-0.4,0-0.7-0.3-0.7-0.7c0-0.2,0.1-0.4,0.2-0.5c0.3-0.3,0.8-0.3,1,0
				c0.3,0.3,0.3,0.7,0,1c0,0,0,0,0,0l0,0C82.2,135,82,135.1,81.8,135.1L81.8,135.1z"/>
			<path d="M78.8,142.1c-0.4,0-0.7-0.3-0.7-0.7c0-0.2,0.1-0.4,0.2-0.5c0.3-0.3,0.8-0.3,1,0c0.3,0.3,0.3,0.7,0,1c0,0,0,0,0,0l0,0
				C79.1,142.1,78.9,142.1,78.8,142.1L78.8,142.1z M80.4,140.5c-0.4,0-0.7-0.3-0.7-0.7c0-0.2,0.1-0.4,0.2-0.5c0.3-0.3,0.8-0.3,1,0
				c0.3,0.3,0.3,0.7,0,1c0,0,0,0,0,0l0,0C80.8,140.4,80.6,140.5,80.4,140.5L80.4,140.5z M82.1,138.8c-0.4,0-0.7-0.3-0.7-0.7
				c0-0.2,0.1-0.4,0.2-0.5c0.3-0.3,0.8-0.3,1,0c0.3,0.3,0.3,0.7,0,1c0,0,0,0,0,0l0,0C82.5,138.7,82.3,138.8,82.1,138.8L82.1,138.8z
				 M83.8,137.1c-0.4,0-0.7-0.3-0.7-0.7c0-0.2,0.1-0.4,0.2-0.5c0.3-0.3,0.7-0.3,1,0c0.3,0.3,0.3,0.7,0,1c0,0,0,0,0,0l0,0
				C84.2,137,84,137.1,83.8,137.1z M85.5,135.4c-0.4,0-0.7-0.3-0.7-0.7c0-0.2,0.1-0.4,0.2-0.5c0.3-0.3,0.7-0.3,1,0
				c0.3,0.3,0.3,0.7,0,1c0,0,0,0,0,0l0,0C85.9,135.3,85.7,135.4,85.5,135.4L85.5,135.4z"/>
			<path d="M82.4,142.5c-0.4,0-0.7-0.3-0.7-0.7c0-0.2,0.1-0.4,0.2-0.5c0.3-0.3,0.7-0.3,1,0c0.3,0.3,0.3,0.7,0,1c0,0,0,0,0,0l0,0
				C82.8,142.4,82.6,142.5,82.4,142.5L82.4,142.5z M84.1,140.8c-0.4,0-0.7-0.3-0.7-0.7c0-0.2,0.1-0.4,0.2-0.5c0.3-0.3,0.7-0.3,1,0
				c0.3,0.3,0.3,0.7,0,1c0,0,0,0,0,0l0,0C84.5,140.7,84.3,140.8,84.1,140.8L84.1,140.8z M85.8,139.1c-0.4,0-0.7-0.3-0.7-0.7
				c0-0.2,0.1-0.4,0.2-0.5c0.3-0.3,0.7-0.3,1,0c0.3,0.3,0.3,0.7,0,1c0,0,0,0,0,0l0,0C86.2,139,86,139.1,85.8,139.1L85.8,139.1z
				 M87.4,137.4c-0.4,0-0.7-0.3-0.7-0.7c0-0.2,0.1-0.4,0.2-0.5c0.3-0.3,0.8-0.3,1,0c0.3,0.3,0.3,0.7,0,1c0,0,0,0,0,0l0,0
				C87.8,137.4,87.6,137.4,87.4,137.4L87.4,137.4z M89.1,135.7c-0.4,0-0.7-0.3-0.7-0.7c0-0.2,0.1-0.4,0.2-0.5c0.3-0.3,0.8-0.3,1,0
				c0.3,0.3,0.3,0.7,0,1c0,0,0,0,0,0l0,0C89.5,135.7,89.3,135.7,89.1,135.7L89.1,135.7z M90.8,134.1c-0.4,0-0.7-0.3-0.7-0.7
				c0-0.2,0.1-0.4,0.2-0.5c0.3-0.3,0.8-0.3,1,0c0.3,0.3,0.3,0.7,0,1c0,0,0,0,0,0l0,0C91.2,134,91,134.1,90.8,134.1L90.8,134.1z"/>
			<path d="M87.7,141.1c-0.4,0-0.7-0.3-0.7-0.7c0-0.2,0.1-0.4,0.2-0.5c0.3-0.3,0.7-0.3,1,0c0.3,0.3,0.3,0.7,0,1c0,0,0,0,0,0l0,0
				C88.1,141,87.9,141.1,87.7,141.1L87.7,141.1z M89.4,139.4c-0.4,0-0.7-0.3-0.7-0.7c0-0.2,0.1-0.4,0.2-0.5c0.3-0.3,0.7-0.3,1,0
				c0.3,0.3,0.3,0.7,0,1c0,0,0,0,0,0l0,0C89.8,139.3,89.6,139.4,89.4,139.4L89.4,139.4z M91.1,137.8c-0.4,0-0.7-0.3-0.7-0.7
				c0-0.4,0.3-0.7,0.7-0.7c0.2,0,0.4,0.1,0.5,0.2c0.3,0.3,0.3,0.7,0,1c0,0,0,0,0,0l0,0C91.5,137.7,91.3,137.8,91.1,137.8L91.1,137.8
				z M92.8,136.1c-0.4,0-0.7-0.3-0.7-0.7c0-0.2,0.1-0.4,0.2-0.5c0.3-0.3,0.8-0.3,1,0c0.3,0.3,0.3,0.7,0,1c0,0,0,0,0,0l0,0
				C93.1,136,93,136.1,92.8,136.1L92.8,136.1z M94.4,134.4c-0.4,0-0.7-0.3-0.7-0.7c0-0.2,0.1-0.4,0.2-0.5c0.3-0.3,0.8-0.3,1,0
				c0.3,0.3,0.3,0.7,0,1c0,0,0,0,0,0l0,0C94.8,134.3,94.6,134.4,94.4,134.4L94.4,134.4z"/>
			<path d="M91.4,141.4c-0.4,0-0.7-0.3-0.7-0.7c0-0.2,0.1-0.4,0.2-0.5c0.3-0.3,0.8-0.3,1,0c0.3,0.3,0.3,0.7,0,1c0,0,0,0,0,0l0,0
				C91.7,141.4,91.6,141.4,91.4,141.4L91.4,141.4z M93.1,139.8c-0.4,0-0.7-0.3-0.7-0.7c0-0.2,0.1-0.4,0.2-0.5c0.3-0.3,0.8-0.3,1,0
				c0.3,0.3,0.3,0.7,0,1c0,0,0,0,0,0l0,0C93.4,139.7,93.2,139.8,93.1,139.8L93.1,139.8z M94.7,138.1c-0.4,0-0.7-0.3-0.7-0.7
				c0-0.2,0.1-0.4,0.2-0.5c0.3-0.3,0.7-0.3,1,0c0.3,0.3,0.3,0.7,0,1c0,0,0,0,0,0l0,0C95.1,138,94.9,138.1,94.7,138.1L94.7,138.1z
				 M96.4,136.4c-0.4,0-0.7-0.3-0.7-0.7c0-0.2,0.1-0.4,0.2-0.5c0.3-0.3,0.8-0.3,1,0c0.3,0.3,0.3,0.7,0,1c0,0,0,0,0,0l0,0
				C96.8,136.3,96.6,136.4,96.4,136.4L96.4,136.4z M98.1,134.7c-0.4,0-0.7-0.3-0.7-0.7c0-0.2,0.1-0.4,0.2-0.5c0.3-0.3,0.8-0.3,1,0
				c0.3,0.3,0.3,0.7,0,1c0,0,0,0,0,0l0,0C98.5,134.6,98.3,134.7,98.1,134.7L98.1,134.7z"/>
			<path d="M95,141.8c-0.4,0-0.7-0.3-0.7-0.7c0-0.2,0.1-0.4,0.2-0.5c0.3-0.3,0.8-0.3,1,0c0.3,0.3,0.3,0.7,0,1c0,0,0,0,0,0l0,0
				C95.4,141.7,95.2,141.8,95,141.8L95,141.8z M96.7,140.1c-0.4,0-0.7-0.3-0.7-0.7c0-0.2,0.1-0.4,0.2-0.5c0.3-0.3,0.8-0.3,1,0
				c0.3,0.3,0.3,0.7,0,1c0,0,0,0,0,0l0,0C97.1,140,96.9,140.1,96.7,140.1L96.7,140.1z M98.4,138.4c-0.4,0-0.7-0.3-0.7-0.7
				c0-0.2,0.1-0.4,0.2-0.5c0.3-0.3,0.7-0.3,1,0c0.3,0.3,0.3,0.7,0,1c0,0,0,0,0,0l0,0C98.8,138.3,98.6,138.4,98.4,138.4L98.4,138.4z
				 M100.1,136.7c-0.4,0-0.7-0.3-0.7-0.7c0-0.2,0.1-0.4,0.2-0.5c0.3-0.3,0.8-0.3,1,0c0.3,0.3,0.3,0.7,0,1c0,0,0,0,0,0l0,0
				C100.4,136.6,100.3,136.7,100.1,136.7L100.1,136.7z M101.7,135c-0.4,0-0.7-0.3-0.7-0.7c0-0.2,0.1-0.4,0.2-0.5
				c0.3-0.3,0.8-0.3,1,0c0.3,0.3,0.3,0.7,0,1c0,0,0,0,0,0l0,0C102.1,135,101.9,135,101.7,135L101.7,135z"/>
			<path d="M98.7,142.1c-0.4,0-0.7-0.3-0.7-0.7c0-0.2,0.1-0.4,0.2-0.5c0.3-0.3,0.8-0.3,1,0c0.3,0.3,0.3,0.7,0,1c0,0,0,0,0,0l0,0
				C99,142,98.9,142.1,98.7,142.1L98.7,142.1z M100.3,140.4c-0.4,0-0.7-0.3-0.7-0.7c0-0.2,0.1-0.4,0.2-0.5c0.3-0.3,0.7-0.3,1,0
				c0.3,0.3,0.3,0.7,0,1c0,0,0,0,0,0l0,0C100.7,140.3,100.5,140.4,100.3,140.4L100.3,140.4z M102,138.7c-0.4,0-0.7-0.3-0.7-0.7
				c0-0.2,0.1-0.4,0.2-0.5c0.3-0.3,0.7-0.3,1,0c0.3,0.3,0.3,0.7,0,1c0,0,0,0,0,0l0,0C102.4,138.6,102.2,138.7,102,138.7L102,138.7z
				 M103.7,137c-0.4,0-0.7-0.3-0.7-0.7c0-0.2,0.1-0.4,0.2-0.5c0.3-0.3,0.8-0.3,1,0c0.3,0.3,0.3,0.7,0,1c0,0,0,0,0,0l0,0
				C104.1,137,103.9,137.1,103.7,137L103.7,137z M105.4,135.4c-0.4,0-0.7-0.3-0.7-0.7c0-0.2,0.1-0.4,0.2-0.5c0.3-0.3,0.8-0.3,1,0
				c0.3,0.3,0.3,0.7,0,1c0,0,0,0,0,0l0,0C105.8,135.3,105.6,135.4,105.4,135.4L105.4,135.4z"/>
			<path d="M102.3,142.4c-0.4,0-0.7-0.3-0.7-0.7c0-0.2,0.1-0.4,0.2-0.5c0.3-0.3,0.7-0.3,1,0c0.3,0.3,0.3,0.7,0,1c0,0,0,0,0,0l0,0
				C102.7,142.3,102.5,142.4,102.3,142.4L102.3,142.4z M104,140.7c-0.4,0-0.7-0.3-0.7-0.7c0-0.2,0.1-0.4,0.2-0.5
				c0.3-0.3,0.7-0.3,1,0c0.3,0.3,0.3,0.7,0,1c0,0,0,0,0,0l0,0C104.4,140.7,104.2,140.7,104,140.7L104,140.7z M105.7,139.1
				c-0.4,0-0.7-0.3-0.7-0.7c0-0.4,0.3-0.7,0.7-0.7c0.2,0,0.4,0.1,0.5,0.2c0.3,0.3,0.3,0.7,0,1c0,0,0,0,0,0l0,0
				C106.1,139,105.9,139.1,105.7,139.1L105.7,139.1z M107.4,137.4c-0.4,0-0.7-0.3-0.7-0.7c0-0.2,0.1-0.4,0.2-0.5
				c0.3-0.3,0.8-0.3,1,0c0.3,0.3,0.3,0.7,0,1c0,0,0,0,0,0l0,0C107.7,137.3,107.5,137.4,107.4,137.4L107.4,137.4z M109,135.7
				c-0.4,0-0.7-0.3-0.7-0.7c0-0.2,0.1-0.4,0.2-0.5c0.3-0.3,0.8-0.3,1,0c0.3,0.3,0.3,0.7,0,1c0,0,0,0,0,0l0,0
				C109.4,135.6,109.2,135.7,109,135.7L109,135.7z M110.7,134c-0.4,0-0.7-0.3-0.7-0.7c0-0.2,0.1-0.4,0.2-0.5c0.3-0.3,0.8-0.3,1,0
				c0.3,0.3,0.3,0.7,0,1c0,0,0,0,0,0l0,0C111.1,133.9,110.9,134,110.7,134L110.7,134z"/>
			<path d="M44.3,140.9c-0.4,0-0.7-0.3-0.7-0.7c0-0.2,0.1-0.4,0.2-0.5c0.3-0.3,0.8-0.3,1,0c0.3,0.3,0.3,0.7,0,1c0,0,0,0,0,0l0,0
				C44.7,140.8,44.5,140.9,44.3,140.9L44.3,140.9z M46,139.2c-0.4,0-0.7-0.3-0.7-0.7c0-0.2,0.1-0.4,0.2-0.5c0.3-0.3,0.7-0.3,1,0
				c0.3,0.3,0.3,0.7,0,1c0,0,0,0,0,0l0,0C46.4,139.1,46.2,139.2,46,139.2L46,139.2z M47.6,137.5c-0.4,0-0.7-0.3-0.7-0.7
				c0-0.2,0.1-0.4,0.2-0.5c0.3-0.3,0.7-0.3,1,0c0.3,0.3,0.3,0.7,0,1c0,0,0,0,0,0l0,0C48,137.4,47.8,137.5,47.6,137.5L47.6,137.5z
				 M49.3,135.8c-0.4,0-0.7-0.3-0.7-0.7c0-0.2,0.1-0.4,0.2-0.5c0.3-0.3,0.8-0.3,1,0c0.3,0.3,0.3,0.7,0,1c0,0,0,0,0,0l0,0
				C49.7,135.8,49.5,135.8,49.3,135.8L49.3,135.8z M51,134.2c-0.4,0-0.7-0.3-0.7-0.7c0-0.2,0.1-0.4,0.2-0.5c0.3-0.3,0.8-0.3,1,0
				c0.3,0.3,0.3,0.7,0,1c0,0,0,0,0,0l0,0C51.4,134.1,51.2,134.2,51,134.2z"/>
			<path d="M47.9,141.2c-0.4,0-0.7-0.3-0.7-0.7c0-0.2,0.1-0.4,0.2-0.5c0.3-0.3,0.8-0.3,1,0c0.3,0.3,0.3,0.7,0,1c0,0,0,0,0,0l0,0
				C48.3,141.1,48.1,141.2,47.9,141.2L47.9,141.2z M49.6,139.5c-0.4,0-0.7-0.3-0.7-0.7c0-0.2,0.1-0.4,0.2-0.5c0.3-0.3,0.7-0.3,1,0
				c0.3,0.3,0.3,0.7,0,1c0,0,0,0,0,0l0,0C50,139.4,49.8,139.5,49.6,139.5L49.6,139.5z M51.3,137.8c-0.4,0-0.7-0.3-0.7-0.7
				c0-0.2,0.1-0.4,0.2-0.5c0.3-0.3,0.7-0.3,1,0c0.3,0.3,0.3,0.7,0,1c0,0,0,0,0,0l0,0C51.7,137.8,51.5,137.8,51.3,137.8L51.3,137.8z
				 M53,136.2c-0.4,0-0.7-0.3-0.7-0.7c0-0.2,0.1-0.4,0.2-0.5c0.3-0.3,0.8-0.3,1,0c0.3,0.3,0.3,0.7,0,1c0,0,0,0,0,0l0,0
				C53.3,136.1,53.2,136.2,53,136.2L53,136.2z M54.6,134.5c-0.4,0-0.7-0.3-0.7-0.7c0-0.2,0.1-0.4,0.2-0.5c0.3-0.3,0.8-0.3,1,0
				c0.3,0.3,0.3,0.7,0,1c0,0,0,0,0,0l0,0C55,134.4,54.8,134.5,54.6,134.5L54.6,134.5z"/>
			<path d="M51.6,141.5c-0.4,0-0.7-0.3-0.7-0.7c0-0.2,0.1-0.4,0.2-0.5c0.3-0.3,0.7-0.3,1,0c0.3,0.3,0.3,0.7,0,1c0,0,0,0,0,0l0,0
				C52,141.5,51.8,141.5,51.6,141.5L51.6,141.5z M53.2,139.9c-0.4,0-0.7-0.3-0.7-0.7c0-0.2,0.1-0.4,0.2-0.5c0.3-0.3,0.7-0.3,1,0
				c0.3,0.3,0.3,0.7,0,1c0,0,0,0,0,0l0,0C53.6,139.8,53.4,139.9,53.2,139.9L53.2,139.9z M54.9,138.2c-0.4,0-0.7-0.3-0.7-0.7
				c0-0.2,0.1-0.4,0.2-0.5c0.3-0.3,0.8-0.3,1,0c0.3,0.3,0.3,0.7,0,1c0,0,0,0,0,0l0,0C55.3,138.1,55.1,138.2,54.9,138.2L54.9,138.2z
				 M56.6,136.5c-0.4,0-0.7-0.3-0.7-0.7c0-0.2,0.1-0.4,0.2-0.5c0.3-0.3,0.8-0.3,1,0c0.3,0.3,0.3,0.7,0,1c0,0,0,0,0,0l0,0
				C57,136.4,56.8,136.5,56.6,136.5L56.6,136.5z M58.3,134.8c-0.4,0-0.7-0.3-0.7-0.7c0-0.2,0.1-0.4,0.2-0.5c0.3-0.3,0.8-0.3,1,0
				c0.3,0.3,0.3,0.7,0,1c0,0,0,0,0,0l0,0C58.6,134.7,58.5,134.8,58.3,134.8L58.3,134.8z"/>
			<path d="M55.2,141.9c-0.4,0-0.7-0.3-0.7-0.7c0-0.2,0.1-0.4,0.2-0.5c0.3-0.3,0.8-0.3,1,0c0.3,0.3,0.3,0.7,0,1c0,0,0,0,0,0l0,0
				C55.6,141.8,55.4,141.9,55.2,141.9L55.2,141.9z M56.9,140.2c-0.4,0-0.7-0.3-0.7-0.7c0-0.2,0.1-0.4,0.2-0.5c0.3-0.3,0.8-0.3,1,0
				c0.3,0.3,0.3,0.7,0,1c0,0,0,0,0,0l0,0C57.3,140.1,57.1,140.2,56.9,140.2L56.9,140.2z M58.6,138.5c-0.4,0-0.7-0.3-0.7-0.7
				c0-0.2,0.1-0.4,0.2-0.5c0.3-0.3,0.8-0.3,1,0c0.3,0.3,0.3,0.7,0,1c0,0,0,0,0,0l0,0C59,138.4,58.8,138.5,58.6,138.5L58.6,138.5z
				 M60.3,136.8c-0.4,0-0.7-0.3-0.7-0.7c0-0.2,0.1-0.4,0.2-0.5c0.3-0.3,0.8-0.3,1,0c0.3,0.3,0.3,0.7,0,1c0,0,0,0,0,0l0,0
				C60.6,136.7,60.4,136.8,60.3,136.8L60.3,136.8z M61.9,135.1c-0.4,0-0.7-0.3-0.7-0.7c0-0.2,0.1-0.4,0.2-0.5c0.3-0.3,0.8-0.3,1,0
				c0.3,0.3,0.3,0.7,0,1c0,0,0,0,0,0l0,0C62.3,135.1,62.1,135.1,61.9,135.1L61.9,135.1z"/>
			<path d="M58.9,142.2c-0.4,0-0.7-0.3-0.7-0.7c0-0.2,0.1-0.4,0.2-0.5c0.3-0.3,0.7-0.3,1,0c0.3,0.3,0.3,0.7,0,1c0,0,0,0,0,0l0,0
				C59.3,142.1,59.1,142.2,58.9,142.2L58.9,142.2z M60.5,140.5c-0.4,0-0.7-0.3-0.7-0.7c0-0.2,0.1-0.4,0.2-0.5c0.3-0.3,0.8-0.3,1,0
				c0.3,0.3,0.3,0.7,0,1c0,0,0,0,0,0l0,0C60.9,140.4,60.7,140.5,60.5,140.5L60.5,140.5z M62.2,138.8c-0.4,0-0.7-0.3-0.7-0.7
				c0-0.2,0.1-0.4,0.2-0.5c0.3-0.3,0.8-0.3,1,0c0.3,0.3,0.3,0.7,0,1c0,0,0,0,0,0l0,0C62.6,138.8,62.4,138.8,62.2,138.8L62.2,138.8z
				 M63.9,137.1c-0.4,0-0.7-0.3-0.7-0.7c0-0.2,0.1-0.4,0.2-0.5c0.3-0.3,0.8-0.3,1,0c0.3,0.3,0.3,0.7,0,1c0,0,0,0,0,0l0,0
				C64.3,137.1,64.1,137.1,63.9,137.1L63.9,137.1z M65.6,135.5c-0.4,0-0.7-0.3-0.7-0.7c0-0.2,0.1-0.4,0.2-0.5c0.3-0.3,0.7-0.3,1,0
				c0.3,0.3,0.3,0.7,0,1c0,0,0,0,0,0l0,0C66,135.4,65.8,135.5,65.6,135.5L65.6,135.5z"/>
			<path d="M64.2,140.8c-0.4,0-0.7-0.3-0.7-0.7c0-0.2,0.1-0.4,0.2-0.5c0.3-0.3,0.8-0.3,1,0c0.3,0.3,0.3,0.7,0,1c0,0,0,0,0,0l0,0
				C64.5,140.8,64.4,140.8,64.2,140.8L64.2,140.8z M65.9,139.1c-0.4,0-0.7-0.3-0.7-0.7c0-0.2,0.1-0.4,0.2-0.5c0.3-0.3,0.8-0.3,1,0
				c0.3,0.3,0.3,0.7,0,1c0,0,0,0,0,0l0,0C66.2,139.1,66.1,139.2,65.9,139.1L65.9,139.1z M67.5,137.5c-0.4,0-0.7-0.3-0.7-0.7
				c0-0.2,0.1-0.4,0.2-0.5c0.3-0.3,0.7-0.3,1,0c0.3,0.3,0.3,0.7,0,1c0,0,0,0,0,0l0,0C67.9,137.4,67.7,137.5,67.5,137.5L67.5,137.5z
				 M69.2,135.8c-0.4,0-0.7-0.3-0.7-0.7c0-0.2,0.1-0.4,0.2-0.5c0.3-0.3,0.7-0.3,1,0c0.3,0.3,0.3,0.7,0,1c0,0,0,0,0,0l0,0
				C69.6,135.7,69.4,135.8,69.2,135.8L69.2,135.8z M70.9,134.1c-0.4,0-0.7-0.3-0.7-0.7c0-0.2,0.1-0.4,0.2-0.5c0.3-0.3,0.8-0.3,1,0
				c0.3,0.3,0.3,0.7,0,1c0,0,0,0,0,0l0,0C71.3,134,71.1,134.1,70.9,134.1L70.9,134.1z"/>
			<path d="M67.8,141.2c-0.4,0-0.7-0.3-0.7-0.7c0-0.2,0.1-0.4,0.2-0.5c0.3-0.3,0.8-0.3,1,0c0.3,0.3,0.3,0.7,0,1c0,0,0,0,0,0l0,0
				C68.2,141.1,68,141.2,67.8,141.2L67.8,141.2z M69.5,139.5c-0.4,0-0.7-0.3-0.7-0.7c0-0.2,0.1-0.4,0.2-0.5c0.3-0.3,0.8-0.3,1,0
				c0.3,0.3,0.3,0.7,0,1c0,0,0,0,0,0l0,0C69.9,139.4,69.7,139.5,69.5,139.5L69.5,139.5z M71.2,137.8c-0.4,0-0.7-0.3-0.7-0.7
				c0-0.2,0.1-0.4,0.2-0.5c0.3-0.3,0.8-0.3,1,0c0.3,0.3,0.3,0.7,0,1c0,0,0,0,0,0l0,0C71.6,137.7,71.4,137.8,71.2,137.8L71.2,137.8z
				 M72.9,136.1c-0.4,0-0.7-0.3-0.7-0.7c0-0.2,0.1-0.4,0.2-0.5c0.3-0.3,0.8-0.3,1,0c0.3,0.3,0.3,0.7,0,1c0,0,0,0,0,0l0,0
				C73.2,136,73.1,136.1,72.9,136.1L72.9,136.1z M74.6,134.4c-0.4,0-0.7-0.3-0.7-0.7c0-0.4,0.3-0.7,0.7-0.7c0.2,0,0.4,0.1,0.5,0.2
				c0.3,0.3,0.3,0.7,0,1c0,0,0,0,0,0l0,0C74.9,134.4,74.7,134.4,74.6,134.4L74.6,134.4z"/>
			<path d="M71.5,141.5c-0.4,0-0.7-0.3-0.7-0.7c0-0.2,0.1-0.4,0.2-0.5c0.3-0.3,0.8-0.3,1,0c0.3,0.3,0.3,0.7,0,1c0,0,0,0,0,0l0,0
				C71.8,141.4,71.7,141.5,71.5,141.5L71.5,141.5z M73.2,139.8c-0.4,0-0.7-0.3-0.7-0.7c0-0.2,0.1-0.4,0.2-0.5c0.3-0.3,0.8-0.3,1,0
				c0.3,0.3,0.3,0.7,0,1c0,0,0,0,0,0l0,0C73.5,139.7,73.3,139.8,73.2,139.8L73.2,139.8z M74.8,138.1c-0.4,0-0.7-0.3-0.7-0.7
				c0-0.2,0.1-0.4,0.2-0.5c0.3-0.3,0.8-0.3,1,0c0.3,0.3,0.3,0.7,0,1c0,0,0,0,0,0l0,0C75.2,138.1,75,138.1,74.8,138.1L74.8,138.1z
				 M76.5,136.4c-0.4,0-0.7-0.3-0.7-0.7c0-0.2,0.1-0.4,0.2-0.5c0.3-0.3,0.7-0.3,1,0c0.3,0.3,0.3,0.7,0,1c0,0,0,0,0,0l0,0
				C76.9,136.4,76.7,136.4,76.5,136.4L76.5,136.4z M78.2,134.8c-0.4,0-0.7-0.3-0.7-0.7c0-0.2,0.1-0.4,0.2-0.5c0.3-0.3,0.7-0.3,1,0
				c0.3,0.3,0.3,0.7,0,1c0,0,0,0,0,0l0,0C78.6,134.7,78.4,134.8,78.2,134.8L78.2,134.8z"/>
			<path d="M25.2,136.3c-0.4,0-0.7-0.3-0.7-0.7c0-0.2,0.1-0.4,0.2-0.5c0.3-0.3,0.8-0.3,1,0c0.3,0.3,0.3,0.7,0,1c0,0,0,0,0,0l0,0
				C25.5,136.2,25.4,136.3,25.2,136.3L25.2,136.3z M26.9,134.6c-0.4,0-0.7-0.3-0.7-0.7c0-0.2,0.1-0.4,0.2-0.5c0.3-0.3,0.8-0.3,1,0
				c0.3,0.3,0.3,0.7,0,1c0,0,0,0,0,0l0,0C27.2,134.5,27,134.6,26.9,134.6L26.9,134.6z"/>
			<path d="M25.5,139.9c-0.4,0-0.7-0.3-0.7-0.7c0-0.2,0.1-0.4,0.2-0.5c0.3-0.3,0.8-0.3,1,0c0.3,0.3,0.3,0.7,0,1c0,0,0,0,0,0l0,0
				C25.8,139.9,25.6,139.9,25.5,139.9L25.5,139.9z M27.1,138.3c-0.4,0-0.7-0.3-0.7-0.7c0-0.2,0.1-0.4,0.2-0.5c0.3-0.3,0.8-0.3,1,0
				c0.3,0.3,0.3,0.7,0,1c0,0,0,0,0,0l0,0C27.5,138.2,27.3,138.3,27.1,138.3L27.1,138.3z M28.8,136.6c-0.4,0-0.7-0.3-0.7-0.7
				c0-0.2,0.1-0.4,0.2-0.5c0.3-0.3,0.7-0.3,1,0c0.3,0.3,0.3,0.7,0,1c0,0,0,0,0,0l0,0C29.2,136.5,29,136.6,28.8,136.6L28.8,136.6z
				 M30.5,134.9c-0.4,0-0.7-0.3-0.7-0.7c0-0.2,0.1-0.4,0.2-0.5c0.3-0.3,0.7-0.3,1,0c0.3,0.3,0.3,0.7,0,1c0,0,0,0,0,0l0,0
				C30.9,134.8,30.7,134.9,30.5,134.9z"/>
			<path d="M27.4,141.9c-0.4,0-0.7-0.3-0.7-0.7c0-0.2,0.1-0.4,0.2-0.5c0.3-0.3,0.8-0.3,1,0c0.3,0.3,0.3,0.7,0,1c0,0,0,0,0,0l0,0
				C27.8,141.9,27.6,141.9,27.4,141.9L27.4,141.9z M29.1,140.3c-0.4,0-0.7-0.3-0.7-0.7c0-0.2,0.1-0.4,0.2-0.5c0.3-0.3,0.8-0.3,1,0
				c0.3,0.3,0.3,0.7,0,1c0,0,0,0,0,0l0,0C29.5,140.2,29.3,140.3,29.1,140.3L29.1,140.3z M30.8,138.6c-0.4,0-0.7-0.3-0.7-0.7
				c0-0.2,0.1-0.4,0.2-0.5c0.3-0.3,0.7-0.3,1,0c0.3,0.3,0.3,0.7,0,1c0,0,0,0,0,0l0,0C31.2,138.5,31,138.6,30.8,138.6L30.8,138.6z
				 M32.5,136.9c-0.4,0-0.7-0.3-0.7-0.7c0-0.2,0.1-0.4,0.2-0.5c0.3-0.3,0.7-0.3,1,0c0.3,0.3,0.3,0.7,0,1c0,0,0,0,0,0l0,0
				C32.9,136.8,32.7,136.9,32.5,136.9L32.5,136.9z M34.1,135.2c-0.4,0-0.7-0.3-0.7-0.7c0-0.2,0.1-0.4,0.2-0.5c0.3-0.3,0.8-0.3,1,0
				c0.3,0.3,0.3,0.7,0,1c0,0,0,0,0,0l0,0C34.5,135.1,34.3,135.2,34.1,135.2L34.1,135.2z"/>
			<path d="M31.1,142.3c-0.4,0-0.7-0.3-0.7-0.7c0-0.2,0.1-0.4,0.2-0.5c0.3-0.3,0.8-0.3,1,0c0.3,0.3,0.3,0.7,0,1c0,0,0,0,0,0l0,0
				C31.4,142.2,31.2,142.3,31.1,142.3L31.1,142.3z M32.7,140.6c-0.4,0-0.7-0.3-0.7-0.7c0-0.2,0.1-0.4,0.2-0.5c0.3-0.3,0.8-0.3,1,0
				c0.3,0.3,0.3,0.7,0,1c0,0,0,0,0,0l0,0C33.1,140.5,32.9,140.6,32.7,140.6L32.7,140.6z M34.4,138.9c-0.4,0-0.7-0.3-0.7-0.7
				c0-0.2,0.1-0.4,0.2-0.5c0.3-0.3,0.7-0.3,1,0c0.3,0.3,0.3,0.7,0,1c0,0,0,0,0,0l0,0C34.8,138.8,34.6,138.9,34.4,138.9L34.4,138.9z
				 M36.1,137.2c-0.4,0-0.7-0.3-0.7-0.7c0-0.2,0.1-0.4,0.2-0.5c0.3-0.3,0.7-0.3,1,0c0.3,0.3,0.3,0.7,0,1c0,0,0,0,0,0l0,0
				C36.5,137.2,36.3,137.2,36.1,137.2L36.1,137.2z M37.8,135.6c-0.4,0-0.7-0.3-0.7-0.7c0-0.2,0.1-0.4,0.2-0.5c0.3-0.3,0.8-0.3,1,0
				c0.3,0.3,0.3,0.7,0,1c0,0,0,0,0,0l0,0C38.1,135.5,38,135.6,37.8,135.6L37.8,135.6z"/>
			<path d="M36.4,140.9c-0.4,0-0.7-0.3-0.7-0.7c0-0.2,0.1-0.4,0.2-0.5c0.3-0.3,0.8-0.3,1,0c0.3,0.3,0.3,0.7,0,1c0,0,0,0,0,0l0,0
				C36.8,140.8,36.6,140.9,36.4,140.9L36.4,140.9z M38.1,139.2c-0.4,0-0.7-0.3-0.7-0.7c0-0.2,0.1-0.4,0.2-0.5c0.3-0.3,0.8-0.3,1,0
				c0.3,0.3,0.3,0.7,0,1c0,0,0,0,0,0l0,0C38.4,139.2,38.3,139.2,38.1,139.2L38.1,139.2z M39.7,137.6c-0.4,0-0.7-0.3-0.7-0.7
				c0-0.2,0.1-0.4,0.2-0.5c0.3-0.3,0.8-0.3,1,0c0.3,0.3,0.3,0.7,0,1c0,0,0,0,0,0l0,0C40.1,137.5,39.9,137.6,39.7,137.6L39.7,137.6z
				 M41.4,135.9c-0.4,0-0.7-0.3-0.7-0.7c0-0.2,0.1-0.4,0.2-0.5c0.3-0.3,0.7-0.3,1,0c0.3,0.3,0.3,0.7,0,1c0,0,0,0,0,0l0,0
				C41.8,135.8,41.6,135.9,41.4,135.9L41.4,135.9z M43.1,134.2c-0.4,0-0.7-0.3-0.7-0.7c0-0.2,0.1-0.4,0.2-0.5c0.3-0.3,0.7-0.3,1,0
				c0.3,0.3,0.3,0.7,0,1c0,0,0,0,0,0l0,0C43.5,134.1,43.3,134.2,43.1,134.2L43.1,134.2z"/>
			<path d="M40,141.2c-0.4,0-0.7-0.3-0.7-0.7c0-0.4,0.3-0.7,0.7-0.7c0.2,0,0.4,0.1,0.5,0.2c0.3,0.3,0.3,0.7,0,1c0,0,0,0,0,0l0,0
				C40.4,141.2,40.2,141.2,40,141.2L40,141.2z M41.7,139.6c-0.4,0-0.7-0.3-0.7-0.7c0-0.2,0.1-0.4,0.2-0.5c0.3-0.3,0.8-0.3,1,0
				c0.3,0.3,0.3,0.7,0,1c0,0,0,0,0,0l0,0C42.1,139.5,41.9,139.6,41.7,139.6L41.7,139.6z M43.4,137.9c-0.4,0-0.7-0.3-0.7-0.7
				c0-0.2,0.1-0.4,0.2-0.5c0.3-0.3,0.8-0.3,1,0c0.3,0.3,0.3,0.7,0,1c0,0,0,0,0,0l0,0C43.8,137.8,43.6,137.9,43.4,137.9L43.4,137.9z
				 M45.1,136.2c-0.4,0-0.7-0.3-0.7-0.7c0-0.2,0.1-0.4,0.2-0.5c0.3-0.3,0.8-0.3,1,0c0.3,0.3,0.3,0.7,0,1c0,0,0,0,0,0l0,0
				C45.5,136.1,45.3,136.2,45.1,136.2L45.1,136.2z M46.8,134.5c-0.4,0-0.7-0.3-0.7-0.7c0-0.2,0.1-0.4,0.2-0.5c0.3-0.3,0.8-0.3,1,0
				c0.3,0.3,0.3,0.7,0,1c0,0,0,0,0,0l0,0C47.1,134.5,46.9,134.5,46.8,134.5L46.8,134.5z"/>
		</g>
	</g>
</g>
</svg>
